<svg width="696" height="844" viewBox="0 0 696 844" fill="none" xmlns="http://www.w3.org/2000/svg">
<path fill-rule="evenodd" clip-rule="evenodd" d="M377.197 208.591C454.237 198.947 544.26 214.827 586.836 279.948C627.361 341.934 586.765 420.245 560.997 489.719C540.82 544.119 512.23 595.125 460.378 620.893C407.798 647.024 349.342 639.546 293.066 622.872C216.631 600.224 112.267 590.292 94.2658 512.414C76.2567 434.5 169.862 383.777 224.291 325.329C270.292 275.931 310.326 216.961 377.197 208.591Z" fill="#CAE6FF"/>
<path d="M562.155 505.78C562.155 505.943 452.671 506.062 317.721 506.062C182.771 506.062 73.209 505.943 73.209 505.78C73.209 505.618 182.66 505.498 317.721 505.498C452.782 505.498 562.155 505.628 562.155 505.78Z" fill="#263238"/>
<path d="M482.314 517.34L497.658 508.835L506.447 528.001L486.614 535.921L477.859 523.646L482.314 517.34Z" fill="#455A64"/>
<path d="M489.503 536.246L487.947 536.701C487.947 536.701 487.525 559.627 481.981 561.512L466.226 522.237L482.048 517.015C481.148 524.09 483.536 530.656 489.503 536.246Z" fill="#92E3A9"/>
<path d="M466.226 522.238L470.026 520.981L484.025 559.551C484.025 559.551 483.114 561.198 481.981 561.512L466.226 522.238Z" fill="#E0E0E0"/>
<path d="M482.148 538.262C482.148 538.262 482.437 538.001 483.003 537.817C483.756 537.583 484.553 537.513 485.337 537.611C486.08 537.689 486.794 537.942 487.414 538.348C487.87 538.662 488.048 538.933 488.003 538.977C487.117 538.559 486.18 538.253 485.214 538.067C484.188 538.021 483.16 538.086 482.148 538.262Z" fill="white"/>
<path d="M481.848 535.986C482.829 535.48 483.958 535.315 485.048 535.52C485.568 535.53 486.081 535.641 486.556 535.847C487.031 536.054 487.459 536.352 487.814 536.723C486.866 536.422 485.902 536.172 484.925 535.975C483.9 535.925 482.873 535.928 481.848 535.986Z" fill="white"/>
<path d="M482.259 541.739C482.921 541.089 483.809 540.703 484.748 540.656C485.185 540.546 485.642 540.523 486.089 540.59C486.536 540.657 486.964 540.812 487.347 541.046C487.347 541.176 486.236 540.916 484.781 541.122C483.325 541.328 482.348 541.859 482.259 541.739Z" fill="white"/>
<path d="M487.592 539.215C487.592 539.215 487.925 538.608 488.903 537.991C489.474 537.643 490.077 537.345 490.703 537.102C491.058 536.961 491.425 536.831 491.814 536.701C492.022 536.617 492.238 536.552 492.458 536.506C492.596 536.476 492.74 536.475 492.878 536.505C493.017 536.535 493.146 536.595 493.258 536.68C493.366 536.779 493.433 536.913 493.445 537.057C493.457 537.201 493.415 537.345 493.325 537.46C493.189 537.651 493.015 537.813 492.814 537.936C492.464 538.163 492.092 538.356 491.703 538.511C491.075 538.784 490.408 538.963 489.725 539.042C489.118 539.172 488.486 539.13 487.903 538.922C487.903 538.847 488.603 538.922 489.692 538.727C490.316 538.6 490.924 538.404 491.503 538.142C491.84 537.985 492.164 537.8 492.469 537.59C492.78 537.395 492.969 537.102 492.825 537.026C492.68 536.951 492.314 536.972 491.925 537.113L490.814 537.492C490.203 537.705 489.608 537.963 489.036 538.262C488.114 538.771 487.658 539.258 487.592 539.215Z" fill="white"/>
<path d="M487.814 539.432C487.814 539.432 487.714 539.432 487.57 539.291L487.458 539.193H487.636C488.327 539.105 489.029 539.124 489.714 539.247C490.235 539.332 490.745 539.47 491.236 539.659C491.506 539.762 491.77 539.882 492.025 540.017C492.177 540.096 492.316 540.199 492.436 540.32C492.504 540.4 492.55 540.496 492.572 540.598C492.593 540.7 492.588 540.805 492.558 540.905C492.498 541.044 492.395 541.163 492.264 541.244C492.133 541.325 491.98 541.366 491.825 541.36C491.615 541.369 491.406 541.347 491.203 541.295C490.264 541.126 489.376 540.756 488.603 540.212C487.825 539.616 487.559 539.128 487.614 539.063C487.67 538.998 488.058 539.453 488.858 539.952C489.328 540.25 489.836 540.487 490.369 540.656C490.688 540.761 491.015 540.84 491.347 540.894C491.703 540.981 492.069 540.948 492.047 540.894C492.025 540.84 491.425 540.342 490.992 540.147C490.535 539.958 490.063 539.806 489.581 539.692C488.937 539.55 488.283 539.459 487.625 539.421L487.703 539.302C487.814 539.345 487.814 539.421 487.814 539.432Z" fill="white"/>
<path d="M549.845 467.394C550.767 467.394 561.822 475.661 558.445 489.225C556.956 495.227 546.301 504.447 534.868 512.887C520.424 523.548 504.747 532.942 504.747 532.942L488.392 509.355L511.047 492.367L507.991 486.397L549.845 467.394Z" fill="#263238"/>
<path d="M530.835 504.198L545.112 513.635L537.668 531.468L518.324 525.531V523.256L530.835 504.198Z" fill="#455A64"/>
<path d="M543.234 511.262L544.612 512.248C544.612 512.248 564.711 498.164 569.822 501.576L545.734 539.215L531.29 529.464C537.934 525.737 542.145 519.681 543.234 511.262Z" fill="#92E3A9"/>
<path d="M545.734 539.215L542.256 536.875L566.844 501.121C567.86 500.949 568.905 501.105 569.822 501.565L545.734 539.215Z" fill="#E0E0E0"/>
<path d="M549.6 516.04C549.6 516.094 549.2 515.975 548.667 515.618C547.996 515.144 547.439 514.534 547.034 513.83C546.638 513.17 546.41 512.427 546.367 511.663C546.367 511.1 546.467 510.775 546.534 510.796C546.739 511.784 547.063 512.744 547.5 513.657C548.106 514.526 548.81 515.326 549.6 516.04Z" fill="white"/>
<path d="M547.812 517.72C546.753 517.237 545.901 516.409 545.401 515.379C544.761 514.5 544.506 513.409 544.69 512.346C545.032 513.315 545.425 514.266 545.867 515.195C546.468 516.07 547.117 516.913 547.812 517.72Z" fill="white"/>
<path d="M552.534 513.765C551.555 513.624 550.664 513.134 550.034 512.389C549.296 511.792 548.829 510.936 548.734 510.005C548.889 510.005 549.356 511.089 550.412 512.075C551.467 513.061 552.578 513.624 552.534 513.765Z" fill="white"/>
<path d="M547.001 510.97C546.357 511.045 545.704 510.936 545.123 510.656C544.46 510.406 543.824 510.094 543.223 509.724C542.879 509.529 542.534 509.301 542.179 509.074C541.975 508.953 541.781 508.815 541.601 508.662C541.49 508.566 541.401 508.447 541.342 508.314C541.282 508.182 541.253 508.038 541.257 507.893C541.276 507.742 541.351 507.604 541.467 507.504C541.584 507.404 541.735 507.35 541.89 507.351C542.14 507.345 542.389 507.385 542.623 507.47C543.028 507.609 543.418 507.783 543.79 507.99C544.418 508.336 544.991 508.771 545.49 509.28C545.983 509.701 546.345 510.249 546.534 510.861C546.456 510.861 546.09 510.276 545.234 509.518C544.737 509.088 544.184 508.724 543.59 508.434C543.234 508.25 542.862 508.098 542.479 507.979C542.112 507.849 541.734 507.871 541.757 508.044C541.779 508.218 542.034 508.489 542.412 508.727L543.423 509.399C543.99 509.766 544.585 510.092 545.201 510.374C546.29 510.807 547.001 510.883 547.001 510.97Z" fill="white"/>
<path d="M547.045 510.623C547.045 510.623 547.045 510.721 547.045 510.916V511.067L546.901 510.937C546.391 510.428 545.967 509.843 545.645 509.204C545.391 508.72 545.19 508.212 545.045 507.687C544.968 507.405 544.912 507.113 544.857 506.809C544.829 506.637 544.829 506.462 544.857 506.289C544.88 506.181 544.931 506.081 545.005 505.998C545.078 505.914 545.173 505.851 545.279 505.813C545.437 505.775 545.604 505.785 545.756 505.841C545.909 505.897 546.041 505.997 546.134 506.127C546.277 506.297 546.393 506.487 546.479 506.69C546.641 507.04 546.775 507.403 546.879 507.774C547.059 508.356 547.141 508.964 547.123 509.572C547.174 510.11 547.045 510.649 546.756 511.111C546.668 511.111 546.812 510.493 546.756 509.529C546.714 508.957 546.598 508.393 546.412 507.849C546.306 507.518 546.172 507.195 546.012 506.885C545.857 506.538 545.612 506.257 545.534 506.333C545.234 506.398 545.445 507.199 545.534 507.676C545.659 508.169 545.826 508.651 546.034 509.117C546.309 509.737 546.64 510.332 547.023 510.894H546.868C546.968 510.699 547.012 510.612 547.045 510.623Z" fill="white"/>
<path d="M469.437 358.237C468.733 349.668 464.718 341.68 458.204 335.886L458.949 335.561C455.707 333.956 451.966 333.596 448.464 334.551C444.963 335.505 441.956 337.706 440.039 340.718C438.561 343.254 437.961 346.135 436.983 348.931C436.005 351.726 434.505 354.467 431.894 355.886C430.506 356.645 428.906 356.97 427.45 357.642C426.704 357.919 426.048 358.387 425.551 358.997C425.054 359.607 424.736 360.337 424.628 361.109C424.573 363.102 426.617 364.532 428.561 365.117C430.506 365.702 432.683 365.876 434.294 367.089C433.57 367.5 432.935 368.045 432.427 368.695C431.919 369.344 431.547 370.085 431.332 370.875C431.118 371.665 431.065 372.488 431.177 373.298C431.288 374.107 431.562 374.888 431.983 375.594C432.404 376.301 432.964 376.919 433.63 377.415C434.296 377.91 435.056 378.273 435.866 378.482C436.676 378.692 437.52 378.743 438.35 378.634C439.181 378.526 439.981 378.258 440.705 377.848C438.939 380.892 440.227 385.053 443.094 387.154C444.586 388.13 446.299 388.738 448.085 388.927C449.871 389.116 451.677 388.879 453.349 388.238C456.687 386.919 459.6 384.748 461.782 381.954C467.319 375.278 470.055 366.803 469.437 358.237Z" fill="#263238"/>
<path d="M517.513 348.508C517.513 346.103 515.568 344.044 513.302 343.091C510.979 342.272 508.514 341.904 506.047 342.008C507.413 339.104 508.813 336.103 508.902 332.907C508.991 329.711 507.469 326.233 504.458 324.998C501.858 323.914 498.847 324.716 496.303 325.908C493.758 327.099 491.358 328.703 488.603 329.321C481.448 330.946 474.492 325.637 467.137 325.55C459.604 325.463 451.738 332.3 451.238 339.635C462.137 346.471 473.137 353.373 482.214 362.387C487.125 367.252 492.269 373.113 499.258 373.449C501.447 373.558 503.626 373.087 505.563 372.087C507.501 371.087 509.125 369.595 510.264 367.768C511.402 365.942 512.013 363.849 512.032 361.712C512.05 359.574 511.476 357.471 510.369 355.626C513.657 354.24 517.513 352.051 517.513 348.508Z" fill="#263238"/>
<path d="M502.258 362.16C503.536 352.69 495.103 341.379 485.348 340.491L453.216 340.339L457.593 345.756L447.06 406.732C447.06 406.732 440.227 428.618 457.838 430.806C473.659 432.778 476.048 416.526 476.048 416.526L477.948 404.695C477.948 404.695 490.659 406.624 496.347 391.532C499.169 384.002 500.825 372.669 502.258 362.16Z" fill="#FFBF9D"/>
<path d="M495.425 375.941C495.322 376.462 495.016 376.925 494.57 377.23C494.124 377.535 493.574 377.659 493.036 377.577C492.511 377.514 492.032 377.251 491.705 376.845C491.378 376.439 491.229 375.923 491.292 375.41C491.392 374.889 491.697 374.427 492.141 374.122C492.584 373.816 493.133 373.692 493.67 373.774C494.196 373.836 494.676 374.099 495.005 374.505C495.334 374.911 495.485 375.427 495.425 375.941Z" fill="#263238"/>
<path d="M497.814 369.906C497.514 370.112 496.181 368.693 493.981 368.281C491.781 367.869 489.937 368.628 489.748 368.281C489.659 368.14 490.014 367.718 490.859 367.36C491.944 366.894 493.152 366.769 494.314 367.003C495.463 367.22 496.51 367.789 497.303 368.628C497.814 369.299 497.914 369.809 497.814 369.906Z" fill="#263238"/>
<path d="M477.248 373.178C477.151 373.7 476.847 374.164 476.402 374.47C475.958 374.776 475.408 374.899 474.871 374.814C474.61 374.785 474.357 374.705 474.128 374.58C473.899 374.455 473.697 374.287 473.535 374.085C473.373 373.884 473.253 373.653 473.183 373.406C473.113 373.159 473.094 372.901 473.126 372.647C473.224 372.125 473.528 371.661 473.972 371.356C474.417 371.05 474.967 370.926 475.504 371.011C476.03 371.074 476.508 371.337 476.836 371.743C477.163 372.149 477.311 372.665 477.248 373.178Z" fill="#263238"/>
<path d="M477.404 366.342C477.093 366.547 475.77 365.128 473.559 364.716C471.348 364.305 469.526 365.063 469.337 364.716C469.248 364.576 469.593 364.153 470.448 363.796C471.53 363.33 472.734 363.205 473.893 363.438C475.043 363.65 476.092 364.22 476.881 365.063C477.415 365.735 477.548 366.244 477.404 366.342Z" fill="#263238"/>
<path d="M480.881 383.232C482.116 383.141 483.357 383.184 484.581 383.362C485.148 383.362 485.692 383.427 485.87 383.124C486.013 382.645 485.981 382.132 485.781 381.672L484.859 377.826C484.503 376.428 482.948 368.595 483.059 367.891C483.326 367.891 484.559 372.225 485.814 377.729C486.103 379.072 486.392 380.35 486.659 381.575C486.776 381.878 486.828 382.202 486.813 382.526C486.798 382.85 486.715 383.168 486.57 383.46C486.432 383.616 486.262 383.743 486.07 383.83C485.879 383.918 485.67 383.965 485.459 383.969C485.131 383.98 484.803 383.955 484.481 383.893C483.262 383.791 482.056 383.57 480.881 383.232Z" fill="#263238"/>
<path d="M477.948 404.674C470.449 403.385 463.472 400.067 457.815 395.096C457.815 395.096 461.082 407.014 477.37 408.65L477.948 404.674Z" fill="#FF9A6C"/>
<path d="M479.659 357.956C479.27 358.573 477.437 357.707 475.148 357.425C472.86 357.143 470.782 357.425 470.704 356.721C470.704 356.396 471.171 355.865 472.082 355.421C473.217 354.899 474.483 354.711 475.726 354.879C476.927 355.036 478.048 355.55 478.937 356.352C479.582 357.013 479.837 357.674 479.659 357.956Z" fill="#263238"/>
<path d="M499.358 361.358C498.88 361.9 497.336 361.098 495.403 360.838C493.469 360.578 491.77 360.838 491.47 360.155C491.336 359.83 491.669 359.278 492.458 358.812C493.469 358.253 494.646 358.051 495.792 358.237C496.958 358.416 498.026 358.983 498.814 359.841C499.425 360.469 499.58 361.098 499.358 361.358Z" fill="#263238"/>
<path d="M502.658 353.059C500.858 347.176 496.125 342.398 490.525 339.602C484.83 336.959 478.563 335.699 472.26 335.93C465.966 336.159 459.701 336.884 453.527 338.096C452.027 338.356 450.383 338.692 449.46 339.873C448.897 340.727 448.568 341.709 448.505 342.723C447.216 351.152 445.935 359.574 444.661 367.988L445.894 373.557C448.649 374.142 451.449 372.636 453.671 370.946C461.532 364.959 466.741 356.263 468.226 346.645C468.693 347.9 468.948 349.221 468.982 350.556C469.006 351.227 469.195 351.883 469.531 352.469C469.867 353.055 470.342 353.554 470.915 353.925C472.959 354.922 475.282 352.896 476.07 350.794C476.859 348.692 476.982 346.276 478.47 344.575C480.015 348.13 482.371 351.294 485.359 353.828C486.77 355.009 488.692 356.092 490.381 355.28C490.944 354.945 491.399 354.463 491.696 353.888C491.992 353.314 492.118 352.67 492.059 352.029C491.927 350.752 491.55 349.509 490.948 348.367C492.998 351.71 496.007 354.396 499.603 356.092C499.969 356.323 500.386 356.469 500.819 356.517C501.253 356.566 501.692 356.517 502.103 356.374C503.114 355.832 503.025 354.24 502.658 353.059Z" fill="#263238"/>
<path d="M455.06 367.349C454.838 367.198 445.794 362.701 444.261 372.29C442.727 381.878 452.894 381.401 452.96 381.131C453.027 380.86 455.06 367.349 455.06 367.349Z" fill="#FFBF9D"/>
<path d="M450.538 377.035C450.538 377.035 450.349 377.133 450.038 377.219C449.605 377.319 449.149 377.257 448.76 377.046C447.783 376.515 447.16 374.771 447.394 373.037C447.496 372.21 447.792 371.416 448.26 370.719C448.401 370.435 448.61 370.188 448.869 369.999C449.128 369.811 449.43 369.686 449.749 369.635C449.956 369.614 450.163 369.665 450.336 369.778C450.508 369.89 450.635 370.059 450.694 370.253C450.782 370.535 450.694 370.719 450.694 370.74C450.694 370.762 450.927 370.621 450.916 370.21C450.896 369.962 450.79 369.729 450.616 369.549C450.381 369.308 450.057 369.167 449.716 369.159C449.299 369.175 448.893 369.295 448.537 369.507C448.181 369.72 447.887 370.017 447.683 370.372C447.132 371.138 446.781 372.023 446.66 372.951C446.416 374.89 447.138 376.851 448.494 377.469C448.745 377.587 449.02 377.648 449.299 377.648C449.578 377.648 449.853 377.587 450.105 377.469C450.482 377.274 450.571 377.057 450.538 377.035Z" fill="#FF9A6C"/>
<path d="M466.371 345.128C466.29 345.313 466.185 345.488 466.06 345.648C465.837 345.984 465.504 346.461 465.026 347.056C463.713 348.738 462.224 350.281 460.582 351.661C459.443 352.618 458.24 353.501 456.982 354.305C456.293 354.727 455.593 355.161 454.816 355.561C454.013 356.021 453.09 356.24 452.16 356.19C451.658 356.128 451.18 355.942 450.772 355.65C450.364 355.359 450.038 354.97 449.827 354.521C449.398 353.618 449.233 352.617 449.349 351.629C449.627 349.602 450.883 347.923 451.471 346.027C451.549 345.785 451.612 345.539 451.66 345.29L452.082 345.54L447.283 349.007L445.005 350.653C444.283 351.251 443.414 351.654 442.483 351.824C441.984 351.875 441.483 351.739 441.083 351.444C440.724 351.165 440.457 350.788 440.316 350.361C440.104 349.565 440.066 348.734 440.205 347.923C440.361 346.499 440.704 345.101 441.227 343.763C441.976 341.827 443.083 340.042 444.494 338.497C444.874 338.082 445.279 337.687 445.705 337.316C445.849 337.179 446.01 337.059 446.183 336.959C446.183 336.959 445.594 337.522 444.649 338.627C443.319 340.192 442.278 341.97 441.572 343.882C441.088 345.201 440.771 346.573 440.627 347.966C440.505 348.718 440.547 349.486 440.75 350.22C440.837 350.583 441.056 350.903 441.366 351.12C441.677 351.337 442.058 351.437 442.438 351.401C443.281 351.23 444.068 350.858 444.727 350.318L446.949 348.671L451.727 345.204L452.282 344.803L452.149 345.453C452.094 345.702 452.027 345.973 451.938 346.244C451.305 348.237 450.071 349.917 449.827 351.748C449.71 352.643 449.857 353.552 450.249 354.37C450.434 354.747 450.717 355.07 451.07 355.308C451.422 355.546 451.833 355.689 452.26 355.724C453.099 355.761 453.931 355.566 454.66 355.161C455.405 354.781 456.116 354.359 456.793 353.947C459.867 352.04 462.612 349.671 464.926 346.926C465.415 346.363 465.782 345.908 466.037 345.594C466.132 345.428 466.244 345.272 466.371 345.128Z" fill="#455A64"/>
<path d="M478.77 386.125C477.513 385.055 476.176 384.077 474.77 383.2C474.347 382.872 473.822 382.696 473.281 382.702C473.037 382.747 472.804 382.841 472.598 382.977C472.392 383.113 472.216 383.288 472.082 383.492C471.72 383.963 471.471 384.506 471.354 385.083C471.237 385.66 471.256 386.255 471.407 386.824C471.559 387.393 471.84 387.921 472.23 388.37C472.62 388.818 473.108 389.175 473.659 389.414C474.21 389.653 474.809 389.768 475.412 389.75C476.014 389.732 476.605 389.582 477.14 389.31C477.675 389.039 478.14 388.654 478.501 388.183C478.862 387.712 479.11 387.168 479.226 386.591L478.77 386.125Z" fill="#FF9A6C"/>
<path d="M475.704 389.711C475.704 389.711 475.481 389.885 474.993 389.939C474.294 390.006 473.592 389.85 472.993 389.495C472.538 389.234 472.146 388.879 471.845 388.457C471.544 388.034 471.34 387.553 471.248 387.046C471.143 386.429 471.168 385.797 471.323 385.189C471.478 384.582 471.759 384.012 472.148 383.514C472.533 382.945 473.118 382.533 473.793 382.355C474.119 382.322 474.449 382.354 474.762 382.449C475.075 382.544 475.365 382.7 475.615 382.907C476.504 383.59 477.226 384.251 477.837 384.793C478.55 385.345 479.202 385.97 479.781 386.656C478.987 386.217 478.242 385.698 477.559 385.107C476.904 384.608 476.137 383.958 475.27 383.33C475.076 383.17 474.851 383.05 474.609 382.976C474.367 382.901 474.112 382.874 473.859 382.897C473.325 383.062 472.866 383.403 472.559 383.861C471.874 384.746 471.575 385.86 471.726 386.959C471.859 387.707 472.25 388.389 472.834 388.891C473.417 389.393 474.159 389.687 474.937 389.722C475.192 389.7 475.448 389.696 475.704 389.711Z" fill="#263238"/>
<path d="M491.303 415.096C495.875 419.065 499.484 423.976 501.869 429.474C506.025 438.834 509.869 455.974 509.869 455.974L435.65 503.158L423.95 507.405C423.95 507.405 419.806 504.653 419.506 495.964C419.206 487.275 417.417 458.174 417.417 456.299C417.417 454.425 416.695 431.532 419.506 422.388C422.006 414.251 424.306 411.261 431.85 406.916C436.805 404.078 448.205 400.416 448.205 400.416C448.205 400.416 459.549 408.119 469.004 410.968C476.581 413.254 477.559 407.469 477.559 407.469L491.303 415.096Z" fill="#92E3A9"/>
<path d="M423.95 507.384C423.95 507.384 451.016 478.347 467.282 474.88C483.548 471.413 498.636 485.986 502.736 487.882C507.902 490.309 537.301 507.015 537.301 507.015L523.724 529.767L479.87 516.582C479.87 516.582 469.159 534.004 456.482 534.101C454.616 534.101 456.938 534.101 454.76 534.004C439.627 533.429 428.883 524.198 424.695 509.995L423.95 507.384Z" fill="#263238"/>
<path d="M460.482 457.957L477.859 452.941L480.114 467.394L461.326 475.552L460.482 457.957Z" fill="#FFBF9D"/>
<path d="M447.672 422.68C447.672 422.68 447.672 422.897 447.672 423.298L447.772 425.107C447.827 426.7 447.883 429.04 447.861 432.052C447.861 438.087 447.538 446.809 446.75 457.545L446.538 457.318L460.393 457.188H460.638V457.415C460.905 462.995 461.216 469.117 461.527 475.541V475.66L461.438 475.736C459.211 477.924 456.816 479.942 454.271 481.771C451.637 483.72 448.763 485.34 445.716 486.592C442.502 487.804 439.056 488.322 435.617 488.109C432.04 488.018 428.587 486.814 425.761 484.675C424.279 483.484 423.17 481.911 422.562 480.135C422.273 479.268 422.017 478.402 421.806 477.524C421.595 476.646 421.417 475.769 421.284 474.891C420.662 471.37 420.34 467.881 420.051 464.458C419.506 457.6 419.295 450.98 419.195 444.663C419.195 441.511 419.14 438.423 419.195 435.432C419.201 432.524 419.484 429.622 420.04 426.765C420.901 421.573 422.927 416.631 425.973 412.29C427.367 410.393 429.297 408.933 431.528 408.086C433.592 407.567 435.776 407.739 437.728 408.574C440.874 409.788 443.525 411.977 445.272 414.804C446.387 416.563 447.142 418.517 447.494 420.557C447.623 421.272 447.687 421.997 447.683 422.724C447.683 422.724 447.683 421.987 447.383 420.611C447.006 418.605 446.253 416.684 445.161 414.945C443.41 412.193 440.79 410.071 437.694 408.899C435.809 408.101 433.702 407.949 431.717 408.466C429.582 409.303 427.744 410.73 426.428 412.572C423.539 416.386 421.706 421.413 420.628 426.884C419.551 432.355 419.84 438.401 419.862 444.696C419.884 450.991 420.195 457.621 420.751 464.458C421.039 467.871 421.373 471.359 421.984 474.837C422.117 475.715 422.328 476.571 422.506 477.437C422.684 478.304 422.962 479.16 423.239 479.994C423.806 481.688 424.854 483.191 426.261 484.328C428.996 486.388 432.33 487.549 435.783 487.643C439.142 487.843 442.506 487.341 445.65 486.17C448.648 484.931 451.477 483.333 454.071 481.414C456.597 479.61 458.978 477.622 461.193 475.465L461.116 475.66C460.816 469.225 460.527 463.114 460.271 457.524L460.516 457.751L446.65 457.827H446.416V457.6C447.238 446.884 447.594 438.163 447.705 432.139C447.761 429.127 447.705 426.787 447.705 425.194C447.705 424.425 447.705 423.818 447.705 423.385C447.678 423.151 447.667 422.916 447.672 422.68Z" fill="#263238"/>
<path d="M491.447 446.949C491.321 446.048 491.299 445.136 491.381 444.23C491.436 442.551 491.558 440.232 491.792 437.675C492.025 435.118 492.325 432.821 492.592 431.175C492.673 430.268 492.859 429.374 493.147 428.509C493.19 429.419 493.138 430.33 492.992 431.229L492.369 437.729C492.158 440.167 491.958 442.377 491.792 444.23C491.771 445.145 491.656 446.057 491.447 446.949Z" fill="#263238"/>
<path d="M439.405 465.877C440.663 462.216 443.339 459.18 446.861 457.415C446.961 457.556 444.783 458.943 442.727 461.305C440.672 463.667 439.572 465.953 439.405 465.877Z" fill="#263238"/>
<path d="M503.647 487.882C503.882 487.959 504.106 488.064 504.314 488.196L506.191 489.171L513.236 492.952L537.812 506.289L538.057 506.408L537.912 506.647L525.268 527.774L523.991 529.941L523.868 530.136L523.657 530.071L480.037 517.069C476.473 515.43 473.309 513.066 470.76 510.135C469.832 509.103 469.02 507.977 468.337 506.777L468.504 506.994L468.971 507.633C469.393 508.185 470.015 509.02 470.915 510.005C473.5 512.855 476.662 515.149 480.204 516.744L523.924 529.497L523.591 529.627L524.868 527.46C529.313 519.973 533.646 512.844 537.535 506.365L537.635 506.723L513.191 493.212L506.225 489.312L504.38 488.228C504.129 488.127 503.884 488.011 503.647 487.882Z" fill="#455A64"/>
<path d="M559.9 468.781L560.778 460.839L566.133 456.332L580.666 447.621L591.71 443.212L592.255 443.937L560.778 469.821L559.9 468.781Z" fill="#E0E0E0"/>
<path d="M537.734 454.273C537.734 454.273 550.934 445.075 561.489 444.273C572.044 443.472 580.699 446.18 581.366 447.989C582.033 449.799 579.633 450.503 577.422 450.601C574.996 450.475 572.586 450.138 570.222 449.593L564.533 456.733L552.989 461.76L539.523 460.351L537.734 454.273Z" fill="#FFBF9D"/>
<path d="M511.346 447.372C511.346 447.372 518.224 449.755 521.69 450.438C525.157 451.121 540.101 451.521 548.356 455.303C552.8 457.318 557.933 465.498 557.933 465.498L559.589 467.307L555.289 470.493L526.946 467.741L502.725 456.722L511.346 447.372Z" fill="#F5F5F5"/>
<path d="M591.71 442.594L590.455 441.51L547.712 460.232L557.167 470.135L561.145 468.726C560.884 467.093 560.884 465.43 561.145 463.797C561.567 460.915 568.922 455.628 570.933 454.642C574.055 453.103 590.543 445.086 591.71 442.594Z" fill="#F5F5F5"/>
<path d="M591.843 442.096L561.622 467.101L560.511 467.838C560.003 468.175 559.403 468.356 558.789 468.358C558.547 468.358 558.315 468.265 558.145 468.098C557.974 467.931 557.878 467.705 557.878 467.47V466.235C557.881 466.052 557.825 465.872 557.717 465.722C557.609 465.573 557.455 465.46 557.278 465.4L509.346 448.802C509.132 448.721 508.894 448.721 508.68 448.802L440.905 477.405C440.739 477.476 440.598 477.595 440.502 477.745C440.405 477.895 440.357 478.07 440.363 478.247C440.369 478.424 440.429 478.595 440.535 478.738C440.642 478.882 440.79 478.991 440.96 479.052L488.814 495.758C489.457 496.058 490.162 496.214 490.875 496.214C491.588 496.214 492.293 496.058 492.936 495.758L560.255 470.352C560.352 470.31 560.442 470.255 560.522 470.189L593.01 443.417C593.104 443.341 593.182 443.246 593.237 443.139C593.293 443.031 593.325 442.914 593.333 442.795C593.34 442.675 593.322 442.555 593.28 442.442C593.238 442.329 593.172 442.226 593.087 442.139C592.927 441.974 592.707 441.877 592.474 441.869C592.242 441.861 592.015 441.942 591.843 442.096Z" fill="#455A64"/>
<path d="M562.022 446.343C562.634 447.254 563.31 448.122 564.044 448.943C564.044 448.943 570.711 448.141 571.977 449.842C572.354 450.304 572.559 450.877 572.559 451.467C572.559 452.058 572.354 452.63 571.977 453.092C569.778 454.717 567.08 455.569 564.322 455.509C559.878 455.303 556.345 459.42 552.689 456.408C550.516 454.628 549.025 452.185 548.456 449.474" fill="#FFBF9D"/>
<path d="M548.456 449.441C548.456 449.441 548.612 450.026 549.023 451.023C549.586 452.438 550.403 453.744 551.434 454.88C552.11 455.666 552.927 456.327 553.845 456.83C554.358 457.075 554.918 457.211 555.489 457.231C556.106 457.227 556.719 457.14 557.311 456.971C558.545 456.646 559.8 456.072 561.2 455.649C561.923 455.428 562.668 455.283 563.422 455.216C564.211 455.216 564.933 455.216 565.644 455.216C567.88 455.023 570.016 454.224 571.811 452.908C572.145 452.486 572.328 451.968 572.333 451.435C572.312 450.922 572.134 450.428 571.822 450.016C571.479 449.662 571.033 449.419 570.544 449.322C570.059 449.199 569.565 449.112 569.066 449.062C567.414 448.923 565.752 448.923 564.1 449.062H564.011V449.008C563.228 448.218 562.586 447.306 562.111 446.31C562.111 446.31 562.822 447.253 564.244 448.813H564.111C565.782 448.586 567.472 448.524 569.155 448.629C569.684 448.662 570.208 448.742 570.722 448.867C571.32 448.985 571.865 449.285 572.277 449.723C572.666 450.216 572.887 450.814 572.911 451.435C572.908 452.093 572.686 452.732 572.277 453.255C570.403 454.66 568.155 455.514 565.8 455.714C565.022 455.79 564.244 455.714 563.578 455.714C562.873 455.786 562.177 455.924 561.5 456.126C560.156 456.527 558.9 457.09 557.589 457.426C556.949 457.6 556.287 457.684 555.622 457.675C554.98 457.643 554.352 457.481 553.778 457.199C552.812 456.633 551.96 455.898 551.267 455.032C550.233 453.845 549.448 452.472 548.956 450.991C548.698 450.507 548.529 449.982 548.456 449.441Z" fill="#FF9A6C"/>
<path d="M509.869 448.986C509.869 448.986 509.969 448.813 510.202 448.531L511.314 447.296V447.242H511.38C513.458 447.827 516.935 448.889 521.38 450.005C523.602 450.568 526.091 450.926 528.757 451.37L537.212 452.681L542.934 453.548C544.729 453.821 546.49 454.275 548.19 454.902C551.123 455.918 553.667 457.786 555.478 460.254C556.627 461.946 557.567 463.764 558.278 465.671C558.534 466.278 558.734 466.755 558.9 467.177C558.99 467.348 559.054 467.53 559.089 467.719C558.977 467.566 558.88 467.403 558.8 467.231C558.623 466.895 558.378 466.397 558.078 465.758C557.282 463.926 556.3 462.176 555.145 460.536C553.341 458.176 550.852 456.398 548.001 455.433C544.845 454.198 541.046 453.927 537.124 453.266L528.657 451.933C526.002 451.467 523.48 451.088 521.246 450.492C516.802 449.3 513.358 448.163 511.314 447.48H511.436L510.325 448.64C510.186 448.771 510.033 448.887 509.869 448.986Z" fill="#263238"/>
<g opacity="0.3">
<path d="M508.402 481.804L542.257 470.157L506.447 457.415L475.404 470.493L508.402 481.804Z" fill="white"/>
</g>
<path d="M490.27 447.729C490.27 447.729 494.303 444.154 495.892 444.533C497.481 444.913 501.203 448.163 501.747 450.146C502.292 452.128 500.869 453.634 499.414 453.396C497.958 453.158 494.914 450.319 494.914 450.319L491.581 452.237C491.581 452.237 496.836 458.228 496.836 460.525C496.836 462.822 495.614 464.479 493.292 463.84C493.356 464.438 493.225 465.04 492.918 465.562C492.611 466.083 492.143 466.497 491.581 466.744C487.803 468.759 484.381 465.888 484.381 465.888C484.381 465.888 483.648 467.903 480.715 467.34C478.748 466.848 476.967 465.818 475.582 464.371C474.991 463.934 474.509 463.373 474.171 462.73C473.832 462.087 473.646 461.377 473.626 460.655C473.504 458.098 473.626 454.913 473.626 454.913L483.892 450.189C484.682 449.318 485.671 448.642 486.779 448.214C487.887 447.787 489.083 447.621 490.27 447.729Z" fill="#FFBF9D"/>
<path d="M477.993 461.056C480.496 462.072 482.653 463.758 484.215 465.92C482.124 464.319 480.05 462.698 477.993 461.056Z" fill="#FF9A6C"/>
<path d="M487.614 455.346C489.092 456.3 490.33 457.566 491.236 459.051C492.304 460.432 493.044 462.027 493.403 463.721C493.236 463.775 492.358 461.662 490.759 459.387C489.159 457.112 487.492 455.465 487.614 455.346Z" fill="#FF9A6C"/>
<path d="M491.614 466.7C489.657 465.463 487.897 463.952 486.392 462.215C484.751 460.618 483.361 458.793 482.27 456.798C482.414 456.711 484.248 459.149 486.825 461.879C489.403 464.609 491.725 466.57 491.614 466.7Z" fill="#FF9A6C"/>
<path d="M404.173 421.922H276.223V452.237H404.173V421.922Z" fill="#455A64"/>
<path d="M400.507 452.237H272.557V481.912H400.507V452.237Z" fill="#455A64"/>
<path d="M395.151 481.912H245.902V505.78H395.151V481.912Z" fill="#455A64"/>
<path d="M404.173 427.101H378.808V445.758H404.173V427.101Z" fill="white"/>
<path d="M300.922 444.642C300.881 444.118 300.96 443.593 301.155 443.103C301.265 442.956 301.414 442.84 301.586 442.769C301.759 442.699 301.948 442.676 302.133 442.702C302.666 442.702 302.933 442.789 302.933 442.973C303.705 440.382 304.618 437.832 305.666 435.335C307.377 430.951 308.325 428.74 308.51 428.704C309.172 428.61 309.841 428.566 310.51 428.574C311.105 428.587 311.698 428.63 312.288 428.704C313.4 430.859 314.35 433.09 315.132 435.378C316.174 437.86 317.087 440.391 317.865 442.962C317.865 442.778 318.132 442.691 318.665 442.691C318.85 442.666 319.039 442.69 319.211 442.76C319.383 442.831 319.533 442.946 319.643 443.092C319.833 443.583 319.909 444.108 319.865 444.631C319.865 445.476 319.776 445.953 319.588 446.05C319.399 446.148 318.032 446.343 315.577 446.343C313.81 446.343 312.932 446.256 312.932 446.072C312.555 445.855 312.366 445.133 312.366 443.905C312.358 443.764 312.358 443.623 312.366 443.482C312.4 443.364 312.474 443.261 312.577 443.19C312.721 443.077 312.904 443.023 313.088 443.038C313.588 443.038 313.832 443.038 313.832 443.136C313.832 443.233 313.932 443.049 313.932 442.886C313.813 441.89 313.582 440.909 313.243 439.961C312.547 440.026 311.614 440.059 310.444 440.059C309.273 440.059 308.295 440.026 307.51 439.961C307.174 440.917 306.943 441.905 306.821 442.908C306.821 443.038 306.855 443.114 306.921 443.136C307.132 443.051 307.361 443.018 307.588 443.038C307.796 443.022 308.003 443.084 308.166 443.212C308.278 443.299 308.356 443.421 308.388 443.558C308.388 443.677 308.388 443.862 308.388 444.132C308.388 445.223 308.199 445.884 307.821 446.115C307.821 446.299 306.944 446.386 305.177 446.386C302.722 446.386 301.388 446.288 301.166 446.093C300.944 445.898 300.922 445.487 300.922 444.642ZM308.455 436.928C309.11 436.928 309.732 436.852 310.332 436.852C310.993 436.853 311.653 436.889 312.31 436.96C311.569 434.707 310.929 432.962 310.388 431.727C309.914 432.919 309.269 434.652 308.455 436.928Z" fill="white"/>
<path d="M321.31 444.685C321.295 444.422 321.295 444.157 321.31 443.894C321.36 443.672 321.481 443.471 321.654 443.32C321.906 443.109 322.234 443.003 322.565 443.027L322.899 443.081C322.754 441.5 322.688 440.005 322.688 438.585C322.664 436.396 322.776 434.207 323.021 432.03C322.555 432.022 322.091 431.978 321.632 431.9C321.488 431.419 321.439 430.915 321.488 430.416C321.458 429.934 321.484 429.451 321.566 428.975C322.508 428.472 323.585 428.26 324.654 428.368C325.121 428.368 325.765 428.368 326.443 428.466C326.522 428.781 326.556 429.106 326.543 429.43C327.133 429.117 327.76 428.873 328.41 428.704C329.085 428.514 329.784 428.412 330.487 428.401C331.129 428.39 331.765 428.525 332.343 428.796C332.922 429.067 333.428 429.466 333.821 429.961C334.684 430.945 335.157 432.198 335.154 433.493C335.162 434.273 334.998 435.046 334.672 435.758C334.346 436.471 333.866 437.106 333.265 437.621C333.997 438.062 334.595 438.684 335 439.425C335.404 440.165 335.599 440.997 335.565 441.836C335.586 443.065 335.139 444.258 334.309 445.183C333.943 445.63 333.478 445.99 332.949 446.238C332.42 446.485 331.841 446.614 331.254 446.613C328.676 446.613 326.999 446.267 326.232 445.53C326.232 445.963 326.11 446.234 325.876 446.321C325.324 446.448 324.755 446.496 324.188 446.462C323.274 446.472 322.364 446.37 321.477 446.158C321.369 445.674 321.314 445.18 321.31 444.685ZM326.421 435.692C326.421 435.801 326.899 435.942 327.832 436.126C328.446 436.264 329.07 436.354 329.699 436.397C329.983 436.404 330.265 436.342 330.518 436.218C330.772 436.093 330.991 435.909 331.154 435.682C331.543 435.156 331.743 434.52 331.721 433.872C331.729 433.199 331.592 432.531 331.321 431.911C331.229 431.65 331.055 431.423 330.824 431.263C330.593 431.104 330.315 431.02 330.032 431.023C329.324 431.054 328.622 431.17 327.943 431.37C327.065 431.608 326.632 431.835 326.61 432.063C326.596 432.297 326.596 432.533 326.61 432.767C326.61 433.071 326.61 433.504 326.61 434.067C326.61 434.631 326.443 435.151 326.421 435.682V435.692ZM326.421 443.331C326.421 443.439 326.899 443.58 327.832 443.753C328.447 443.885 329.071 443.976 329.699 444.024C329.986 444.024 330.27 443.954 330.523 443.822C330.777 443.69 330.994 443.499 331.154 443.266C331.54 442.755 331.739 442.134 331.721 441.5C331.729 440.843 331.592 440.193 331.321 439.593C331.224 439.336 331.048 439.115 330.818 438.96C330.587 438.804 330.312 438.723 330.032 438.726C329.324 438.757 328.622 438.873 327.943 439.073C327.065 439.3 326.632 439.528 326.61 439.745C326.596 439.972 326.596 440.2 326.61 440.427C326.61 440.72 326.61 441.142 326.61 441.684C326.61 442.226 326.443 442.811 326.421 443.331Z" fill="white"/>
<path d="M337.92 437.621C337.84 435.281 338.546 432.979 339.931 431.066C340.529 430.223 341.333 429.538 342.27 429.073C343.206 428.608 344.247 428.377 345.298 428.401C346.594 428.288 347.883 428.677 348.886 429.484C348.886 428.975 349.109 428.672 349.431 428.553C349.928 428.355 350.461 428.259 350.997 428.271C351.671 428.234 352.338 428.413 352.897 428.78C352.897 428.964 352.953 429.257 353.02 429.647C353.086 430.037 353.12 430.394 353.164 430.73C353.179 431.026 353.179 431.323 353.164 431.619C353.194 432.06 353.127 432.503 352.968 432.918C352.809 433.333 352.562 433.71 352.242 434.024C352.004 434.238 351.723 434.4 351.417 434.501C351.111 434.602 350.786 434.639 350.464 434.609C349.77 434.662 349.082 434.452 348.542 434.024C348.523 433.946 348.523 433.864 348.542 433.786C348.532 433.648 348.559 433.51 348.62 433.385C348.339 432.752 347.84 432.234 347.209 431.922C346.669 431.61 346.058 431.435 345.431 431.413C344.844 431.474 344.283 431.68 343.801 432.012C343.319 432.344 342.931 432.79 342.676 433.309C341.817 434.597 341.372 436.106 341.398 437.643C341.332 438.991 341.757 440.319 342.598 441.391C342.911 441.826 343.325 442.183 343.805 442.433C344.286 442.684 344.82 442.82 345.364 442.832C345.97 442.817 346.569 442.696 347.131 442.475C347.706 442.295 348.211 441.947 348.575 441.478C348.52 441.175 348.498 441.012 348.498 440.98C348.492 440.944 348.492 440.907 348.498 440.871C348.502 440.846 348.502 440.821 348.498 440.795C349.019 440.537 349.591 440.39 350.175 440.362C350.899 440.419 351.608 440.591 352.275 440.871C352.596 441.176 352.844 441.545 353.004 441.953C353.163 442.361 353.229 442.798 353.197 443.233C353.199 443.534 353.181 443.834 353.142 444.132C353.142 444.468 353.042 444.826 352.986 445.216C352.931 445.606 352.886 445.898 352.864 446.104C352.279 446.549 351.55 446.775 350.809 446.744C350.303 446.775 349.802 446.629 349.398 446.332C349.21 446.247 349.055 446.105 348.957 445.927C348.858 445.75 348.822 445.546 348.853 445.346C347.853 446.063 346.65 446.461 345.409 446.483C344.49 446.48 343.583 446.292 342.742 445.931C341.842 445.534 341.022 444.984 340.32 444.306C339.531 443.505 338.928 442.548 338.554 441.5C338.107 440.254 337.893 438.94 337.92 437.621Z" fill="white"/>
<g opacity="0.3">
<path d="M404.151 421.922H373.585V452.237H404.151V421.922Z" fill="black"/>
</g>
<path d="M404.162 431.435C404.162 431.597 398.473 431.716 391.474 431.716C384.474 431.716 378.785 431.597 378.785 431.435C378.785 431.272 384.463 431.153 391.474 431.153C398.484 431.153 404.162 431.283 404.162 431.435Z" fill="#263238"/>
<path d="M404.162 436.418C404.162 436.581 398.473 436.7 391.474 436.7C384.474 436.7 378.785 436.581 378.785 436.418C378.785 436.256 384.463 436.137 391.474 436.137C398.484 436.137 404.162 436.267 404.162 436.418Z" fill="#263238"/>
<path d="M404.162 441.413C404.162 441.565 398.473 441.695 391.474 441.695C384.474 441.695 378.785 441.565 378.785 441.413C378.785 441.261 384.485 441.099 391.474 441.099C398.462 441.099 404.162 441.251 404.162 441.413Z" fill="#263238"/>
<path d="M395.151 485.986H369.786V500.677H395.151V485.986Z" fill="white"/>
<g opacity="0.3">
<path d="M395.14 481.912H364.575V505.78H395.14V481.912Z" fill="black"/>
</g>
<path d="M395.14 489.409C395.14 489.561 389.462 489.691 382.452 489.691C375.441 489.691 369.774 489.561 369.774 489.409C369.774 489.258 375.452 489.128 382.452 489.128C389.451 489.128 395.14 489.247 395.14 489.409Z" fill="#263238"/>
<path d="M395.14 493.331C395.14 493.483 389.462 493.613 382.452 493.613C375.441 493.613 369.774 493.483 369.774 493.331C369.774 493.18 375.452 493.05 382.452 493.05C389.451 493.05 395.14 493.18 395.14 493.331Z" fill="#263238"/>
<path d="M395.14 497.253C395.14 497.416 389.462 497.535 382.452 497.535C375.441 497.535 369.774 497.416 369.774 497.253C369.774 497.091 375.452 496.972 382.452 496.972C389.451 496.972 395.14 497.102 395.14 497.253Z" fill="#263238"/>
<path d="M404.662 452.096C404.662 452.247 375.874 452.377 340.365 452.377C304.855 452.377 276.045 452.247 276.045 452.096C276.045 451.944 304.833 451.814 340.365 451.814C375.896 451.814 404.662 451.933 404.662 452.096Z" fill="#263238"/>
<path d="M400.507 481.912C400.507 482.074 371.697 482.194 336.187 482.194C300.677 482.194 271.856 482.074 271.856 481.912C271.856 481.749 300.655 481.63 336.187 481.63C371.719 481.63 400.507 481.76 400.507 481.912Z" fill="#263238"/>
<path d="M395.14 457.957H272.557V474.945H395.14V457.957Z" fill="#FAFAFA"/>
<g opacity="0.3">
<path d="M400.507 452.247H366.008V481.923H400.507V452.247Z" fill="black"/>
</g>
<path d="M394.485 466.451C394.485 466.603 367.141 466.733 333.376 466.733C299.611 466.733 272.268 466.603 272.268 466.451C272.268 466.3 299.611 466.17 333.376 466.17C367.141 466.17 394.485 466.289 394.485 466.451Z" fill="#263238"/>
<path d="M350.009 461.673V469.604L353.109 467.491L356.209 469.604V461.673H350.009Z" fill="#92E3A9"/>
<path d="M394.485 461.684C394.485 461.836 367.141 461.966 333.376 461.966C299.611 461.966 272.268 461.836 272.268 461.684C272.268 461.532 299.611 461.402 333.376 461.402C367.141 461.402 394.485 461.511 394.485 461.684Z" fill="#263238"/>
<path d="M394.485 471.218C394.485 471.381 367.141 471.5 333.376 471.5C299.611 471.5 272.268 471.381 272.268 471.218C272.268 471.056 299.611 470.937 333.376 470.937C367.141 470.937 394.485 471.067 394.485 471.218Z" fill="#263238"/>
<path d="M349.453 498.575C349.453 498.575 349.453 498.359 349.453 497.958C349.453 497.557 349.453 496.95 349.453 496.192C349.453 494.631 349.453 492.367 349.375 489.431L349.497 489.539C333.631 489.637 298.133 489.713 256.924 489.713L257.212 489.431V498.564L256.924 498.283L322.61 498.402L342.264 498.521H347.609H348.997H349.486C349.338 498.531 349.19 498.531 349.042 498.521H347.686H342.409L322.81 498.608L256.912 498.727H256.624V489.312L256.912 489.03C298.122 489.03 333.576 489.095 349.486 489.193H349.609V489.312C349.609 492.27 349.553 494.566 349.542 496.148C349.542 496.896 349.542 497.47 349.542 497.882C349.527 498.115 349.498 498.346 349.453 498.575Z" fill="#263238"/>
<path d="M289.289 466.505L288.833 460.796L311.666 459.929L310.344 466.96L302.555 470.742L294.844 471.121L289.289 466.505Z" fill="#455A64"/>
<path d="M267.001 466.505L266.545 460.796L289.378 459.929L288.056 466.96L280.278 470.742L272.556 471.121L267.001 466.505Z" fill="#455A64"/>
<path d="M266.712 464.154V465.682C266.712 465.682 243.602 474.891 243.835 480.904H289.389L288.567 463.786C281.745 467.329 274.612 467.708 266.712 464.154Z" fill="#92E3A9"/>
<path d="M289.345 480.926L289.145 476.809L245.035 478.207C244.348 478.956 243.927 479.902 243.835 480.904L289.345 480.926Z" fill="#E0E0E0"/>
<path d="M267.135 471.836C267.19 471.836 267.29 471.478 267.257 470.85C267.197 470.047 266.966 469.265 266.579 468.553C266.209 467.872 265.68 467.286 265.035 466.841C264.546 466.538 264.201 466.462 264.179 466.527C264.938 467.21 265.602 467.986 266.157 468.835C266.6 469.795 266.928 470.802 267.135 471.836Z" fill="white"/>
<path d="M269.545 471.262C269.672 470.125 269.402 468.98 268.779 468.011C267.868 466.365 266.557 465.693 266.557 465.845C267.22 466.638 267.84 467.467 268.412 468.326C269.212 469.81 269.39 471.283 269.545 471.262Z" fill="white"/>
<path d="M263.601 473.06C264.001 472.181 264.049 471.188 263.735 470.276C263.357 468.705 262.423 467.816 262.346 467.936C262.268 468.055 262.923 469.019 263.257 470.417C263.59 471.814 263.457 473.028 263.601 473.06Z" fill="white"/>
<path d="M264.09 467.004C264.506 466.518 264.761 465.922 264.823 465.292C264.955 464.61 265.022 463.917 265.023 463.223C265.023 462.833 265.023 462.432 265.023 462.009C265.02 461.777 264.998 461.545 264.957 461.316C264.939 461.17 264.888 461.03 264.807 460.906C264.726 460.782 264.618 460.678 264.49 460.601C264.348 460.54 264.188 460.531 264.04 460.575C263.891 460.619 263.763 460.712 263.679 460.839C263.54 461.042 263.445 461.27 263.401 461.511C263.304 461.92 263.248 462.337 263.235 462.757C263.203 463.461 263.278 464.165 263.457 464.848C263.566 465.474 263.851 466.059 264.279 466.538C264.346 466.538 264.012 465.866 263.79 464.75C263.67 464.104 263.633 463.445 263.679 462.789C263.713 462.424 263.777 462.062 263.868 461.706C263.946 461.337 264.168 461.045 264.29 461.153C264.412 461.262 264.546 461.619 264.546 462.042V463.244C264.565 463.91 264.535 464.576 264.457 465.238C264.335 466.332 264.023 466.96 264.09 467.004Z" fill="white"/>
<path d="M263.779 466.852C263.779 466.852 263.846 466.939 264.023 467.036L264.157 467.112V466.928C263.983 466.235 263.698 465.573 263.312 464.967C263.027 464.5 262.692 464.064 262.312 463.667C262.112 463.457 261.89 463.252 261.646 463.049C261.502 462.926 261.337 462.83 261.157 462.768C261.051 462.731 260.938 462.72 260.827 462.737C260.717 462.754 260.612 462.798 260.523 462.865C260.407 462.977 260.327 463.12 260.294 463.276C260.26 463.432 260.274 463.594 260.335 463.743C260.415 463.945 260.519 464.138 260.646 464.317C260.849 464.631 261.08 464.929 261.335 465.205C261.748 465.662 262.231 466.053 262.768 466.365C263.668 466.874 264.301 466.939 264.312 466.874C264.323 466.809 263.746 466.592 262.934 466.029C262.46 465.689 262.03 465.292 261.657 464.848C261.429 464.585 261.221 464.306 261.035 464.014C260.812 463.699 260.701 463.342 260.812 463.32C261.023 463.114 261.601 463.71 261.923 464.046C262.286 464.408 262.617 464.8 262.912 465.216C263.3 465.778 263.642 466.368 263.934 466.982L264.034 466.863C263.879 466.83 263.779 466.83 263.779 466.852Z" fill="white"/>
<path d="M290.567 464.252L290.7 465.91C290.7 465.91 267.823 475.097 268.056 481.078H313.61L312.788 463.959C305.966 467.535 298.466 467.816 290.567 464.252Z" fill="#92E3A9"/>
<path d="M313.566 481.186L313.366 477.069L269.245 478.467C268.563 479.219 268.147 480.164 268.057 481.164L313.566 481.186Z" fill="#E0E0E0"/>
<path d="M291.356 472.053C291.356 472.053 291.511 471.684 291.478 471.056C291.419 470.251 291.184 469.468 290.789 468.759C290.419 468.078 289.89 467.492 289.245 467.047C288.767 466.744 288.423 466.668 288.4 466.733C289.161 467.418 289.825 468.198 290.378 469.052C290.823 470.011 291.151 471.019 291.356 472.053Z" fill="white"/>
<path d="M293.755 471.435C293.896 470.299 293.629 469.151 293 468.185C292.089 466.549 290.778 465.866 290.778 466.018C291.442 466.812 292.061 467.64 292.633 468.499C293.058 469.459 293.432 470.439 293.755 471.435Z" fill="white"/>
<path d="M287.823 473.266C288.216 472.385 288.259 471.392 287.945 470.482C287.567 468.911 286.634 468.022 286.556 468.141C286.478 468.261 287.145 469.225 287.478 470.622C287.812 472.02 287.678 473.234 287.823 473.266Z" fill="white"/>
<path d="M288.311 467.21C288.727 466.724 288.982 466.127 289.044 465.498C289.176 464.815 289.243 464.123 289.244 463.428C289.244 463.049 289.244 462.638 289.244 462.215C289.27 461.985 289.27 461.752 289.244 461.522C289.22 461.379 289.165 461.244 289.083 461.124C289 461.005 288.893 460.904 288.767 460.828C288.624 460.768 288.465 460.759 288.316 460.802C288.168 460.846 288.04 460.94 287.956 461.067C287.815 461.274 287.717 461.506 287.667 461.749C287.579 462.156 287.523 462.569 287.5 462.984C287.471 463.689 287.55 464.393 287.733 465.075C287.843 465.7 288.123 466.283 288.544 466.765C288.622 466.765 288.278 466.094 288.067 464.989C287.947 464.342 287.91 463.683 287.956 463.028C287.988 462.645 288.048 462.265 288.133 461.89C288.211 461.522 288.433 461.229 288.567 461.337C288.7 461.446 288.822 461.803 288.822 462.237V463.428C288.842 464.094 288.812 464.76 288.733 465.422C288.556 466.538 288.244 467.166 288.311 467.21Z" fill="white"/>
<path d="M288 467.101C288 467.101 288.067 467.199 288.245 467.286L288.378 467.361V467.177C288.198 466.486 287.913 465.825 287.534 465.216C287.243 464.756 286.909 464.324 286.534 463.927C286.322 463.707 286.1 463.497 285.867 463.298C285.733 463.183 285.579 463.091 285.411 463.028C285.305 462.99 285.191 462.98 285.08 462.999C284.969 463.018 284.865 463.065 284.778 463.136C284.661 463.246 284.581 463.387 284.548 463.541C284.514 463.696 284.528 463.856 284.589 464.003C284.67 464.205 284.774 464.398 284.9 464.577C285.1 464.894 285.331 465.192 285.589 465.465C286.002 465.922 286.486 466.313 287.022 466.625C287.922 467.134 288.556 467.199 288.556 467.134C288.556 467.069 288 466.852 287.189 466.289C286.712 465.952 286.282 465.555 285.911 465.108C285.68 464.847 285.472 464.568 285.289 464.274C285.067 463.959 284.956 463.602 285.067 463.58C285.278 463.374 285.856 463.97 286.178 464.306C286.541 464.668 286.872 465.06 287.167 465.476C287.555 466.038 287.897 466.628 288.189 467.242L288.289 467.123C288.1 467.036 288 467.036 288 467.101Z" fill="white"/>
<path d="M289.222 465.704C288.936 465.934 288.618 466.124 288.278 466.267C287.644 466.581 286.722 467.036 285.578 467.578C283.289 468.661 280.089 470.092 276.689 471.912C273.289 473.732 270.312 475.574 268.69 477.448C267.823 478.463 267.14 479.613 266.668 480.85C266.665 480.478 266.74 480.109 266.89 479.767C267.223 478.82 267.727 477.94 268.379 477.166C269.99 475.151 273.001 473.212 276.412 471.392C279.823 469.572 283.078 468.206 285.389 467.21L288.167 466.061C288.502 465.9 288.857 465.78 289.222 465.704Z" fill="#263238"/>
<path d="M386.941 293.296C385.341 287.236 383.733 281.18 382.119 275.127C379.674 265.95 376.497 253.458 371.064 245.787C363.042 234.455 344.398 231.703 331.432 235.798C319.632 239.569 313.833 244.108 310.722 256.459C307.611 268.811 310.833 288.442 313.699 300.88C314.11 302.646 314.61 304.531 315.921 305.723C317.232 306.915 319.332 307.175 321.188 307.316L348.209 309.331L363.119 303.73C370.072 304.569 377.128 303.519 383.507 300.696C384.295 300.441 385.023 300.036 385.649 299.504C386.275 298.972 386.786 298.324 387.152 297.597C387.527 296.176 387.453 294.677 386.941 293.296Z" fill="#263238"/>
<path d="M314.922 261.747C314.988 252.234 324.643 242.245 334.132 242.841L353.02 245.527C356.409 246.048 359.502 247.716 361.757 250.238C364.012 252.759 365.285 255.975 365.353 259.32L362.92 270.273L365.308 315.084L366.897 315.561C366.897 315.561 365.431 336.06 348.198 335.702C332.721 335.388 335.343 316.904 335.343 316.904L334.876 305.117C334.876 305.117 319.544 305.008 316.133 289.331C314.488 281.53 314.866 272.31 314.922 261.747Z" fill="#FFBF9D"/>
<path d="M319.677 276.806C319.694 277.329 319.919 277.825 320.305 278.189C320.691 278.553 321.206 278.757 321.743 278.756C322.004 278.762 322.263 278.717 322.504 278.623C322.746 278.529 322.966 278.388 323.151 278.209C323.336 278.029 323.481 277.816 323.579 277.58C323.677 277.345 323.725 277.093 323.721 276.839C323.704 276.315 323.479 275.818 323.093 275.452C322.708 275.086 322.192 274.88 321.654 274.878C321.393 274.873 321.134 274.92 320.892 275.016C320.65 275.111 320.43 275.253 320.246 275.433C320.061 275.613 319.916 275.827 319.818 276.063C319.72 276.299 319.672 276.552 319.677 276.806Z" fill="#263238"/>
<path d="M318.166 270.381C318.421 270.609 319.677 269.482 321.61 269.298C323.543 269.114 325.065 270.046 325.243 269.796C325.421 269.547 325.065 269.266 324.41 268.843C323.527 268.317 322.497 268.075 321.465 268.15C320.465 268.215 319.514 268.595 318.754 269.233C318.21 269.84 318.054 270.284 318.166 270.381Z" fill="#263238"/>
<path d="M337.598 276.102C337.615 276.625 337.841 277.121 338.226 277.485C338.612 277.849 339.128 278.053 339.665 278.052C339.925 278.058 340.184 278.013 340.426 277.918C340.668 277.824 340.888 277.683 341.072 277.504C341.257 277.325 341.403 277.112 341.501 276.876C341.599 276.641 341.647 276.389 341.642 276.135C341.625 275.61 341.4 275.113 341.015 274.748C340.629 274.382 340.113 274.176 339.576 274.174C339.315 274.169 339.055 274.216 338.814 274.311C338.572 274.407 338.352 274.549 338.167 274.729C337.983 274.909 337.837 275.123 337.739 275.359C337.642 275.595 337.593 275.848 337.598 276.102Z" fill="#263238"/>
<path d="M338.065 268.908C338.309 269.125 339.565 267.998 341.498 267.825C343.431 267.651 344.954 268.583 345.142 268.323C345.331 268.063 344.965 267.792 344.298 267.38C343.423 266.846 342.394 266.603 341.365 266.687C340.362 266.739 339.406 267.121 338.654 267.77C338.098 268.355 337.943 268.832 338.065 268.908Z" fill="#263238"/>
<path d="M332.576 284.152C331.399 283.915 330.2 283.795 328.999 283.794C328.443 283.794 327.887 283.697 327.799 283.415C327.71 283.134 327.799 282.635 328.076 282.126C328.532 281.043 328.999 279.959 329.498 278.8C330.681 275.965 331.712 273.072 332.587 270.132C332.343 270.067 330.554 273.859 328.599 278.583C328.121 279.753 327.676 280.869 327.254 281.931C327.1 282.183 327.004 282.465 326.974 282.757C326.943 283.049 326.978 283.344 327.076 283.621C327.187 283.78 327.33 283.915 327.496 284.017C327.662 284.12 327.849 284.188 328.043 284.217C328.355 284.268 328.671 284.29 328.987 284.282C330.185 284.358 331.388 284.315 332.576 284.152Z" fill="#263238"/>
<path d="M334.81 305.149C342.246 304.908 349.457 302.604 355.598 298.508C355.598 298.508 350.953 310.025 335.076 309.342L334.81 305.149Z" fill="#FF9A6C"/>
<path d="M337.187 263.523C337.476 264.184 339.32 263.599 341.631 263.643C343.942 263.686 345.831 264.249 346.076 263.588C346.165 263.274 345.765 262.678 344.965 262.115C343.955 261.432 342.76 261.055 341.531 261.031C340.339 261.002 339.169 261.352 338.198 262.028C337.398 262.613 337.065 263.209 337.187 263.523Z" fill="#263238"/>
<path d="M317.154 263.632C317.543 264.228 319.132 263.632 321.032 263.632C322.932 263.632 324.532 264.119 324.91 263.513C325.076 263.22 324.832 262.624 324.132 262.061C323.242 261.372 322.136 261.001 321 261.011C319.864 261.021 318.765 261.411 317.888 262.115C317.21 262.743 316.977 263.339 317.154 263.632Z" fill="#263238"/>
<path d="M366.941 265.127C367.049 262.111 366.724 259.095 365.975 256.167C364.856 252.236 362.497 248.748 359.231 246.199C356.786 244.336 352.986 241.963 349.987 241.367C345.265 240.435 342.82 239.363 334.043 241.367C330.332 242.245 329.721 241.714 326.388 243.534L324.065 244.997C326.654 251.497 349.242 265.04 356.997 267.196C357.369 269.392 357.881 271.563 358.531 273.697C358.794 274.746 359.408 275.68 360.275 276.351C360.86 276.685 361.53 276.85 362.207 276.825C362.884 276.8 363.54 276.587 364.097 276.21C365.054 275.525 365.721 274.524 365.975 273.393C366.834 270.723 367.162 267.917 366.941 265.127Z" fill="#263238"/>
<path d="M363.297 271.086C363.297 271.086 372.497 267.012 372.675 276.676C372.852 286.341 363.119 284.423 363.097 284.152C363.075 283.881 363.297 271.086 363.297 271.086Z" fill="#FFBF9D"/>
<path d="M365.986 280.468C365.986 280.468 366.153 280.577 366.442 280.707C366.844 280.869 367.295 280.869 367.697 280.707C368.708 280.317 369.541 278.692 369.553 276.947C369.563 276.119 369.389 275.298 369.042 274.542C368.947 274.244 368.781 273.972 368.557 273.75C368.332 273.527 368.057 273.361 367.753 273.263C367.558 273.216 367.352 273.236 367.171 273.321C366.991 273.406 366.846 273.551 366.764 273.729C366.642 274 366.708 274.195 366.653 274.217C366.597 274.239 366.453 274.054 366.519 273.654C366.569 273.417 366.698 273.204 366.886 273.047C367.014 272.946 367.162 272.87 367.32 272.826C367.479 272.781 367.644 272.768 367.808 272.787C368.208 272.865 368.582 273.04 368.894 273.295C369.207 273.551 369.449 273.879 369.597 274.249C370.025 275.083 370.242 276.004 370.23 276.936C370.23 278.887 369.241 280.718 367.853 281.129C367.594 281.208 367.32 281.227 367.052 281.186C366.784 281.144 366.53 281.044 366.308 280.891C366.008 280.75 365.953 280.479 365.986 280.468Z" fill="#FF9A6C"/>
<path d="M334.043 288.746C334.043 288.822 334.498 289.017 335.31 288.984C336.376 288.921 337.39 288.508 338.187 287.814C338.978 287.112 339.5 286.168 339.665 285.138C339.787 284.358 339.665 283.881 339.554 283.881C339.443 283.881 339.398 284.347 339.176 285.019C338.897 285.888 338.392 286.672 337.709 287.294C337.006 287.894 336.157 288.308 335.243 288.497C334.487 288.648 334.065 288.637 334.043 288.746Z" fill="#263238"/>
<path d="M352.486 263.079C358.803 276.19 360.37 291.003 356.931 305.095C358.537 304.593 360.202 304.29 361.886 304.196C362.728 304.142 363.549 303.915 364.295 303.528C365.04 303.142 365.692 302.605 366.208 301.953C366.85 300.65 367.056 299.183 366.797 297.76C365.885 286.334 364.054 274.995 361.319 263.848" fill="#263238"/>
<path d="M361.886 304.196C361.859 303.925 361.859 303.653 361.886 303.383C361.942 302.798 361.997 302.04 362.075 301.075C362.275 299.017 362.542 296.146 362.875 292.614C362.981 288.425 362.721 284.235 362.097 280.089C361.497 275.387 360.675 270.23 359.697 264.845L359.375 263.133L359.586 263.35C354.649 262.077 349.915 260.145 345.52 257.608C341.96 255.561 338.562 253.258 335.354 250.717C332.621 248.55 330.499 246.741 329.054 245.452C328.321 244.812 327.777 244.303 327.41 243.956C327.043 243.61 326.843 243.426 326.865 243.404C327.082 243.546 327.287 243.705 327.477 243.881L329.199 245.3C330.688 246.524 332.843 248.312 335.61 250.414C338.834 252.896 342.235 255.152 345.787 257.164C350.151 259.649 354.842 261.545 359.731 262.797H359.909V262.971L360.231 264.693C361.22 270.111 362.02 275.257 362.597 279.97C363.193 284.151 363.412 288.374 363.253 292.592C362.842 296.124 362.508 298.995 362.264 301.054C362.142 302.007 362.042 302.765 361.975 303.351C361.974 303.634 361.944 303.917 361.886 304.196Z" fill="#455A64"/>
<path d="M364.486 262.137C364.324 261.913 364.112 261.729 363.865 261.6C363.618 261.47 363.344 261.398 363.064 261.389C362.504 261.371 361.945 261.441 361.408 261.595C358.842 262.047 356.367 262.896 354.075 264.108C353.865 264.195 353.679 264.328 353.531 264.496C353.383 264.665 353.277 264.865 353.222 265.081C353.167 265.296 353.164 265.521 353.214 265.738C353.264 265.955 353.365 266.157 353.508 266.329C353.641 266.496 353.808 266.633 354 266.731C354.192 266.828 354.403 266.883 354.619 266.893C355.068 266.893 355.514 266.827 355.942 266.698L361.641 265.268C362.447 265.118 363.207 264.792 363.864 264.314C364.209 264.077 364.459 263.73 364.572 263.333C364.686 262.937 364.655 262.514 364.486 262.137Z" fill="#92E3A9"/>
<g opacity="0.3">
<path d="M345.72 279.526C345.182 279.066 344.501 278.796 343.787 278.757C343.241 278.777 342.699 278.864 342.176 279.017C341.645 279.165 341.187 279.496 340.887 279.948C340.742 280.176 340.67 280.441 340.68 280.71C340.69 280.978 340.781 281.237 340.943 281.454C341.241 281.754 341.631 281.951 342.054 282.018C342.763 282.16 343.493 282.178 344.209 282.072C344.54 282.053 344.862 281.963 345.152 281.807C345.443 281.652 345.694 281.435 345.887 281.173C346.055 280.921 346.131 280.62 346.1 280.321C346.07 280.021 345.936 279.741 345.72 279.526Z" fill="#FF9A6C"/>
</g>
<path d="M385.319 382.723C385.319 383.807 357.031 387.252 342.431 382.084C328.254 377.057 317.377 373.481 317.377 373.481L304.811 384.847L321.477 385.28L326.688 387.447C316.477 386.862 305.522 386.288 301.355 386.277C287.089 386.277 280.378 397.61 280.378 406.862C280.378 416.115 284.823 463.602 284.823 463.602H311.71C313.533 456.251 314.609 448.742 314.921 441.185C315.366 428.715 315.221 423.926 315.221 423.926L346.687 424.501H351.62C357.175 424.262 366.208 423.818 369.397 423.309C377.574 422.019 383.341 415.454 386.263 407.22C389.185 398.986 385.319 382.723 385.319 382.723Z" fill="#263238"/>
<path d="M266.712 463.656C266.712 463.656 262.646 415.649 262.646 406.364C262.646 397.079 269.312 385.713 283.622 385.778C292.255 385.778 329.976 388.227 329.976 388.227L333.898 424.295L293.6 423.645C293.6 423.645 294.044 429.062 293.6 441.554C293.155 453.699 293.6 463.688 293.6 463.688L266.712 463.656Z" fill="#263238"/>
<path d="M288.156 390.6C287.255 391.055 286.409 391.608 285.634 392.247C283.604 394.085 282.183 396.473 281.556 399.105C280.645 402.409 280.756 406.526 280.956 411.023C281.156 415.519 281.401 420.535 281.767 425.768C282.523 436.223 283.467 445.671 283.989 452.529C284.278 455.953 284.489 458.726 284.612 460.644C284.663 461.554 284.708 462.276 284.745 462.811C284.774 463.067 284.774 463.325 284.745 463.58C284.688 463.33 284.648 463.077 284.623 462.822C284.623 462.258 284.489 461.532 284.389 460.655C284.189 458.672 283.923 455.92 283.578 452.551C282.912 445.714 281.901 436.299 281.145 425.79C280.778 420.557 280.523 415.573 280.378 411.023C280.234 406.472 280.134 402.355 281.112 398.964C281.79 396.276 283.304 393.858 285.445 392.041C286.034 391.563 286.679 391.155 287.367 390.827C287.618 390.715 287.883 390.639 288.156 390.6Z" fill="#455A64"/>
<path d="M311.211 415.378C312.528 416.681 313.543 418.243 314.188 419.961C315.018 421.601 315.473 423.398 315.522 425.226C315.355 425.226 314.855 422.897 313.655 420.178C312.455 417.458 311.077 415.476 311.211 415.378Z" fill="#455A64"/>
<path d="M321.299 314.597C321.299 314.597 315.877 315.539 313.766 323.665C312.732 327.652 308.91 354.25 308.91 354.25L271.156 361.78L277.4 373.395C277.4 373.395 318.232 367.739 329.032 364.348C339.831 360.957 321.299 314.597 321.299 314.597Z" fill="#92E3A9"/>
<path d="M385.374 319.071C381.785 314.553 365.375 308.41 365.375 308.41C348.031 316.471 340.143 315.442 334.787 310.371C334.787 310.371 323.788 312.386 319.232 315.788L321.932 370.87C321.743 371 309.91 377.685 309.91 377.685L301.833 384.381L387.196 395.93C389.929 394.099 389.607 390.86 387.407 387.479C387.407 387.479 384.452 370.437 384.363 361.358C384.285 347.511 391.152 326.254 385.374 319.071Z" fill="#92E3A9"/>
<g opacity="0.3">
<path d="M340.043 384.955C352.986 387.716 366.483 386.582 378.752 381.705C381.485 380.621 383.852 379.625 385.896 377.534L385.052 370.567C385.052 370.567 343.376 372.842 343.487 373.427C343.598 374.012 336.52 376.873 336.52 376.873L332.987 381.932L340.043 384.955Z" fill="black"/>
</g>
<path d="M245.635 327.88L240.824 330.48L253.09 348.4L252.057 351.997L257.201 356.211L260.546 351.574L339.065 388.552L340.353 384.598L292.9 335.962L258.112 345.648L245.635 327.88Z" fill="white"/>
<path d="M245.602 327.869C245.681 327.959 245.755 328.053 245.824 328.15L246.458 329.028L248.913 332.452L258.213 345.55L258.035 345.496L292.8 335.745H292.934L293.034 335.854L340.532 384.457L340.643 384.576L340.587 384.738C340.198 385.952 339.765 387.274 339.343 388.595V388.693L339.243 389.007L338.943 388.866L260.457 351.813L260.724 351.748L257.391 356.385L257.257 356.558L257.091 356.417L251.969 352.192L251.869 352.116V352.008C252.257 350.675 252.58 349.527 252.902 348.411V348.552L240.68 330.577V330.512H240.747L244.491 328.421L245.38 327.966L245.658 327.825L245.369 328.01L244.491 328.497L240.858 330.588V330.48L253.202 348.346V348.411V348.487C252.88 349.57 252.557 350.762 252.191 352.094L252.124 351.899L257.279 356.103H256.98L260.313 351.455L260.413 351.303L260.579 351.379L339.121 388.303L338.721 388.465V388.379L339.976 384.511L340.043 384.793L292.622 336.125L292.867 336.19L258.157 345.756H258.046L257.979 345.67L248.869 332.538L246.469 329.039L245.847 328.129L245.602 327.869Z" fill="#263238"/>
<path d="M291.156 341.293L257.613 349.873C257.613 349.873 256.246 352.929 254.802 352.831C254.605 352.891 254.398 352.91 254.194 352.887C253.989 352.864 253.792 352.8 253.615 352.698C253.438 352.595 253.285 352.458 253.166 352.294C253.047 352.131 252.964 351.944 252.924 351.748C252.874 351.227 252.932 350.701 253.094 350.203C253.257 349.704 253.52 349.242 253.868 348.844L239.969 328.313L238.669 329.028L252.268 349.147C251.813 349.913 251.622 350.8 251.722 351.68C251.822 352.559 252.208 353.384 252.824 354.034C254.979 356.591 288.934 389.007 288.934 389.007C291.378 389.961 293.622 390.091 295.6 389.007L341.254 388.736L291.156 341.293Z" fill="#455A64"/>
<path d="M367.819 337.295L365.075 359.754L329.61 366.916L339.676 381.629C351.387 381.629 369.319 380.686 378.619 378.032C385.985 375.93 387.307 369.603 388.474 362.203C390.296 350.599 390.496 340.415 390.696 339.017C391.33 333.513 389.296 324.283 387.519 321.791C383.452 316.081 381.474 315.409 376.008 312.82" fill="#92E3A9"/>
<path d="M375.919 312.82C375.919 312.82 376.086 312.874 376.386 313.004L377.719 313.6C379.453 314.34 381.102 315.255 382.641 316.33C383.723 317.152 384.703 318.094 385.563 319.136C386.052 319.7 386.53 320.306 387.007 320.946C387.533 321.611 387.97 322.339 388.307 323.112C389.702 326.741 390.552 330.547 390.83 334.413C390.921 335.515 390.951 336.622 390.918 337.728C390.841 338.866 390.741 339.982 390.696 341.152C390.585 343.492 390.437 345.919 390.252 348.432C389.863 353.46 389.285 358.823 388.319 364.413C387.942 367.322 387.079 370.151 385.763 372.788C385.017 374.144 383.997 375.338 382.763 376.298C381.484 377.243 380.033 377.942 378.486 378.357C372.132 379.874 365.65 380.824 359.12 381.196C352.453 381.694 345.92 381.921 339.621 381.932H339.465L339.387 381.813L329.332 367.089L329.11 366.764L329.499 366.688L364.986 359.592L364.842 359.754C365.731 352.712 366.442 347.1 366.942 343.232C367.186 341.325 367.386 339.852 367.519 338.833C367.597 338.346 367.653 337.977 367.686 337.696C367.699 337.567 367.725 337.44 367.764 337.316C367.776 337.446 367.776 337.577 367.764 337.706C367.764 337.977 367.697 338.356 367.653 338.79C367.531 339.873 367.375 341.293 367.164 343.199C366.708 347.078 366.053 352.69 365.231 359.743V359.873H365.097L329.643 367.122L329.81 366.721L339.854 381.51L339.621 381.391C345.898 381.391 352.42 381.141 359.075 380.643C365.567 380.271 372.011 379.332 378.33 377.837C379.809 377.443 381.197 376.778 382.419 375.876C383.597 374.968 384.569 373.832 385.274 372.539C386.56 369.954 387.412 367.185 387.796 364.337C388.763 358.768 389.363 353.416 389.774 348.411C389.974 345.897 390.13 343.481 390.252 341.141C390.252 339.982 390.418 338.811 390.485 337.717C390.541 336.634 390.541 335.55 390.485 334.467C390.228 330.636 389.412 326.86 388.063 323.253C387.739 322.508 387.321 321.806 386.819 321.162C386.341 320.523 385.874 319.916 385.408 319.353C384.568 318.318 383.614 317.377 382.563 316.547C381.05 315.457 379.427 314.521 377.719 313.752L376.408 313.101L375.919 312.82Z" fill="#263238"/>
<path d="M313.255 376.288C312.91 376.29 312.571 376.198 312.278 376.02C311.984 375.842 311.749 375.587 311.599 375.284C311.449 374.981 311.39 374.642 311.429 374.308C311.469 373.973 311.605 373.657 311.822 373.395C312.491 372.606 313.235 371.88 314.044 371.228C317.299 368.465 329.599 367.068 329.599 367.068L337.565 379.343C337.565 379.343 336.632 382.344 330.654 385.215C327.954 386.504 320.988 390.231 320.499 390.101C319.974 389.818 319.501 389.452 319.099 389.018C318.756 389.29 318.332 389.447 317.89 389.467C317.448 389.486 317.011 389.367 316.644 389.126C315.466 388.227 314.788 387.144 315.766 386.504C316.744 385.865 326.699 376.114 326.499 376.125C326.299 376.136 314.133 386.19 313.555 385.876C312.977 385.562 309.333 384.944 311.333 382.311C313.333 379.679 322.266 372.084 322.266 372.084C322.266 372.084 314.733 376.179 313.377 376.277L313.255 376.288Z" fill="#FFBF9D"/>
<path d="M320.921 327.836C321.076 327.836 321.287 336.504 321.398 347.154C321.509 357.804 321.454 366.482 321.298 366.493C321.143 366.504 320.921 357.826 320.821 347.165C320.721 336.504 320.754 327.836 320.921 327.836Z" fill="#263238"/>
<path d="M381.563 318.074C381.563 318.172 380.519 318.313 378.919 318.887C376.851 319.654 374.961 320.818 373.364 322.311C371.769 323.816 370.506 325.622 369.653 327.62C368.997 329.158 368.819 330.187 368.708 330.166C368.662 329.922 368.662 329.672 368.708 329.429C368.813 328.764 368.984 328.111 369.219 327.479C369.999 325.37 371.265 323.465 372.92 321.909C374.575 320.354 376.574 319.19 378.763 318.508C379.42 318.297 380.098 318.155 380.785 318.085C381.297 318.042 381.563 318.031 381.563 318.074Z" fill="#263238"/>
<path d="M318.932 361.314C318.488 361.206 317.899 361.152 317.677 361.542C317.455 361.932 317.755 362.365 318.043 362.69L323.932 369.462L329.576 367.046C326.644 364.208 322.958 362.223 318.932 361.314Z" fill="#FFBF9D"/>
<path d="M373.108 365.193C371.952 363.846 370.636 362.638 369.186 361.596C367.638 360.695 365.991 359.968 364.275 359.429C366.142 359.506 367.953 360.08 369.509 361.088C371.066 362.097 372.311 363.501 373.108 365.15V365.193Z" fill="#263238"/>
<path d="M293.122 336.005C293.028 337.015 292.746 337.999 292.289 338.909C292.006 339.887 291.539 340.806 290.911 341.618C291.006 340.605 291.288 339.617 291.744 338.703C292.025 337.727 292.493 336.812 293.122 336.005Z" fill="#263238"/>
<path d="M295.6 388.769C295.44 388.669 295.294 388.549 295.167 388.411L294.055 387.328L289.922 383.222C286.445 379.733 281.678 374.901 276.434 369.527C271.19 364.153 266.434 359.267 263.101 355.713L259.09 351.488L257.979 350.318C257.849 350.185 257.734 350.04 257.635 349.884C257.635 349.884 257.801 349.993 258.068 350.242L259.179 351.325L263.312 355.431C266.79 358.909 271.556 363.752 276.812 369.126C282.067 374.5 286.811 379.386 290.145 382.94L294.144 387.165L295.255 388.335C295.39 388.464 295.506 388.61 295.6 388.769Z" fill="#263238"/>
<path d="M347.82 522.942C347.653 523.332 342.487 537.362 342.487 537.362L363.875 544.394L369.119 527.611L347.82 522.942Z" fill="#EBEBEB"/>
<path d="M367.964 533.538L368.23 531.793C368.23 531.793 394.018 527.655 395.24 521.403L348.409 510.829L345.076 528.641C352.909 526.582 360.697 528.045 367.964 533.538Z" fill="#92E3A9"/>
<path d="M348.409 510.829L347.609 515.108L393.374 523.895C393.374 523.895 395.096 522.671 395.251 521.403L348.409 510.829Z" fill="#E0E0E0"/>
<path d="M369.053 525.325C368.997 525.325 368.808 525.672 368.686 526.322C368.547 527.164 368.596 528.025 368.83 528.846C369.023 529.627 369.404 530.351 369.942 530.959C370.364 531.393 370.708 531.544 370.741 531.49C370.135 530.602 369.642 529.645 369.275 528.641C369.07 527.547 368.996 526.435 369.053 525.325Z" fill="white"/>
<path d="M366.431 525.369C366.023 526.501 366.023 527.735 366.431 528.868C366.964 530.775 368.153 531.783 368.23 531.653C367.737 530.685 367.303 529.69 366.931 528.673C366.419 526.94 366.586 525.379 366.431 525.369Z" fill="white"/>
<path d="M372.985 524.892C372.361 525.706 372.071 526.719 372.175 527.731C372.08 528.715 372.387 529.696 373.03 530.461C373.174 530.385 372.697 529.236 372.697 527.698C372.697 526.16 373.13 524.957 372.985 524.892Z" fill="white"/>
<path d="M371.008 531.024C371.008 530.97 370.374 531.468 369.83 532.617C369.532 533.288 369.298 533.984 369.13 534.697C369.03 535.098 368.93 535.52 368.841 535.954C368.788 536.193 368.751 536.436 368.73 536.68C368.723 536.832 368.749 536.984 368.807 537.126C368.864 537.268 368.952 537.397 369.063 537.503C369.192 537.603 369.354 537.652 369.518 537.642C369.683 537.632 369.837 537.563 369.952 537.449C370.144 537.27 370.299 537.056 370.408 536.821C370.604 536.423 370.763 536.01 370.886 535.585C371.083 534.88 371.177 534.15 371.163 533.419C371.209 532.749 371.059 532.08 370.73 531.49C370.652 531.49 370.841 532.248 370.797 533.44C370.759 534.131 370.636 534.815 370.43 535.477C370.303 535.849 370.147 536.212 369.963 536.561C369.797 536.918 369.497 537.178 369.386 537.037C369.275 536.896 369.241 536.496 369.386 536.051C369.53 535.607 369.552 535.217 369.641 534.805C369.779 534.117 369.969 533.44 370.208 532.779C370.586 531.642 371.063 531.024 371.008 531.024Z" fill="white"/>
<path d="M371.297 531.241C371.297 531.241 371.241 531.132 371.086 530.992L370.963 530.883V531.089C370.98 531.826 371.111 532.557 371.352 533.256C371.534 533.804 371.776 534.331 372.074 534.827C372.237 535.1 372.415 535.364 372.608 535.618C372.718 535.769 372.853 535.901 373.008 536.008C373.111 536.065 373.228 536.095 373.347 536.095C373.465 536.095 373.582 536.065 373.685 536.008C373.832 535.923 373.948 535.797 374.02 535.646C374.091 535.495 374.114 535.327 374.085 535.163C374.058 534.932 373.999 534.706 373.908 534.491C373.777 534.117 373.613 533.755 373.419 533.408C373.102 532.841 372.697 532.326 372.219 531.88C371.419 531.143 370.786 530.937 370.763 531.002C370.741 531.068 371.274 531.425 371.963 532.194C372.375 532.652 372.726 533.158 373.008 533.7C373.172 534.026 373.313 534.363 373.43 534.708C373.585 535.076 373.619 535.466 373.497 535.466C373.23 535.64 372.774 534.881 372.486 534.459C372.196 534 371.947 533.518 371.741 533.018C371.497 532.367 371.301 531.701 371.152 531.024L371.03 531.122C371.152 531.241 371.274 531.263 371.297 531.241Z" fill="white"/>
<path d="M148.595 550.591C148.462 547.85 150.595 537.536 152.128 533.462C153.661 529.388 167.572 527.07 170.172 530.309C172.772 533.549 171.683 535.315 171.683 535.315L170.416 536.051C170.416 536.051 171.35 539.898 168.572 539.486C168.572 539.486 166.628 543.31 164.961 542.953L161.505 548.207L162.105 568.966C162.105 568.966 145.173 571.772 145.073 571.436C144.973 571.101 148.595 550.591 148.595 550.591Z" fill="#AE7461"/>
<path d="M191.326 538.24C186.46 540.378 182.304 543.801 179.327 548.121C174.627 554.914 164.283 570.093 164.283 570.093L161.461 553.614L148.028 557.948L144.339 559.129C144.339 559.129 146.639 586.084 147.161 589.378C147.684 592.672 153.428 596.886 159.383 597.764C165.338 598.642 174.416 589.53 174.416 589.53L193.526 567.059L191.326 538.24Z" fill="#92E3A9"/>
<path d="M352.798 592.78C353.253 591.621 368.608 536.701 368.608 536.701L350.498 534.274L342.265 582.563L352.798 592.78Z" fill="#263238"/>
<path d="M210.848 468.412C209.163 469.89 208.002 471.85 207.529 474.011C207.057 476.172 207.298 478.424 208.218 480.443C209.138 482.462 210.69 484.146 212.651 485.252C214.613 486.359 216.883 486.832 219.137 486.603C222.87 486.213 226.603 483.06 226.003 479.453C226.408 481.107 227.25 482.629 228.444 483.869C229.639 485.108 231.145 486.021 232.814 486.517C234.494 486.945 236.271 486.827 237.876 486.179C239.48 485.532 240.824 484.391 241.702 482.93C243.302 479.929 242.014 475.671 238.836 474.263C240.771 474.257 242.678 473.819 244.412 472.981C246.146 472.143 247.659 470.929 248.835 469.431C249.981 467.899 250.675 466.091 250.844 464.203C251.012 462.314 250.648 460.417 249.791 458.716C248.873 457.046 247.437 455.702 245.69 454.875C243.942 454.049 241.971 453.781 240.058 454.111C240.655 451.708 240.3 449.173 239.064 447.014C237.828 444.855 235.801 443.23 233.39 442.465C230.978 441.7 228.359 441.85 226.057 442.887C223.754 443.923 221.937 445.769 220.97 448.055C219.513 446.315 217.485 445.12 215.229 444.67C212.973 444.22 210.627 444.543 208.586 445.585C206.546 446.627 204.937 448.323 204.032 450.388C203.126 452.453 202.979 454.759 203.615 456.917C202.001 457.89 200.792 459.388 200.203 461.147C199.614 462.906 199.682 464.811 200.395 466.525C201.108 468.24 202.421 469.653 204.101 470.514C205.78 471.375 207.718 471.628 209.57 471.229" fill="#263238"/>
<path d="M223.825 479.507C224.77 473.981 223.636 472.8 220.492 470.048C219.144 468.845 217.458 468.063 215.65 467.802C213.842 467.541 211.995 467.814 210.348 468.586C209.448 464.404 209.237 461.392 205.104 459.593C200.782 457.686 198.949 458.315 194.36 459.441C190.656 457.515 186.362 456.96 182.271 457.881C178.279 458.754 174.778 461.079 172.483 464.382C169.928 464.495 167.46 465.322 165.374 466.765C163.288 468.207 161.671 470.205 160.717 472.519C159.939 474.62 159.806 476.95 158.428 478.781C157.382 480.028 156.624 481.48 156.206 483.039C155.595 485.964 156.006 487.297 157.395 490.265C158.35 492.324 160.261 495.238 159.139 497.21C154.795 504.87 162.639 512.53 165.117 512.963L208.77 524.502C210.277 525.635 212.067 526.353 213.956 526.58C215.844 526.807 217.76 526.534 219.503 525.791C221.166 525.077 222.564 523.883 223.51 522.37C224.456 520.857 224.903 519.098 224.792 517.329C227.433 515.592 229.335 512.977 230.142 509.972C230.95 506.968 230.608 503.779 229.181 501.002C233.98 496.17 232.903 486.061 223.825 479.507Z" fill="#263238"/>
<path d="M164.828 490.547C164.895 480.222 175.383 469.42 185.694 470.016L206.259 472.93C209.94 473.499 213.299 475.311 215.749 478.05C218.198 480.789 219.582 484.281 219.659 487.914L217.003 499.832L219.603 548.5L221.326 549.02C221.326 549.02 219.737 571.285 201.026 570.906C184.216 570.559 187.06 550.483 187.06 550.472L186.549 537.676C186.549 537.676 169.883 537.557 166.194 520.526C164.361 512.042 164.761 502.021 164.828 490.547Z" fill="#AE7461"/>
<path d="M170.439 507.189C170.439 507.763 170.673 508.314 171.09 508.721C171.506 509.127 172.072 509.355 172.661 509.355C172.945 509.361 173.227 509.311 173.49 509.208C173.754 509.106 173.993 508.952 174.194 508.757C174.396 508.561 174.554 508.329 174.661 508.072C174.768 507.816 174.821 507.541 174.816 507.264C174.816 506.69 174.582 506.139 174.166 505.732C173.749 505.326 173.184 505.098 172.594 505.098C172.31 505.092 172.028 505.142 171.765 505.245C171.501 505.347 171.262 505.501 171.061 505.696C170.859 505.891 170.701 506.124 170.594 506.381C170.487 506.637 170.434 506.912 170.439 507.189Z" fill="#263238"/>
<path d="M168.361 499.94C168.628 500.179 169.994 498.954 172.094 498.857C174.194 498.759 175.838 499.68 176.038 499.399C176.238 499.117 175.85 498.824 175.127 498.369C174.172 497.797 173.057 497.531 171.939 497.611C170.846 497.693 169.812 498.124 168.994 498.835C168.394 499.344 168.228 499.832 168.361 499.94Z" fill="#263238"/>
<path d="M189.46 506.105C189.46 506.68 189.694 507.231 190.111 507.637C190.528 508.044 191.093 508.272 191.682 508.272C191.965 508.278 192.247 508.228 192.51 508.125C192.773 508.022 193.012 507.868 193.212 507.673C193.412 507.477 193.57 507.244 193.676 506.988C193.781 506.732 193.832 506.457 193.826 506.181C193.826 505.606 193.592 505.055 193.176 504.649C192.759 504.242 192.194 504.014 191.604 504.014C191.321 504.008 191.039 504.058 190.777 504.161C190.514 504.264 190.275 504.418 190.075 504.613C189.874 504.809 189.716 505.042 189.611 505.298C189.505 505.554 189.454 505.829 189.46 506.105Z" fill="#263238"/>
<path d="M189.96 498.326C190.227 498.575 191.604 497.351 193.704 497.243C195.804 497.134 197.449 498.066 197.649 497.784C197.749 497.665 197.46 497.21 196.738 496.755C195.781 496.187 194.666 495.926 193.549 496.007C192.453 496.078 191.415 496.509 190.604 497.232C190.049 497.73 189.827 498.218 189.96 498.326Z" fill="#263238"/>
<path d="M184.005 514.892C182.729 514.631 181.43 514.5 180.127 514.502C179.516 514.502 178.938 514.404 178.816 514.09C178.694 513.776 178.816 513.245 179.116 512.692C179.605 511.544 180.116 510.341 180.66 509.085C181.936 506 183.048 502.854 183.993 499.659C183.727 499.594 181.771 503.711 179.66 508.846L178.194 512.476C178.026 512.751 177.924 513.059 177.893 513.377C177.862 513.696 177.904 514.017 178.016 514.318C178.133 514.488 178.286 514.633 178.464 514.743C178.642 514.853 178.841 514.926 179.049 514.957C179.39 515.016 179.736 515.042 180.082 515.033C181.391 515.111 182.705 515.064 184.005 514.892Z" fill="#263238"/>
<path d="M186.427 537.698C194.511 537.442 202.352 534.938 209.026 530.482C209.026 530.482 203.97 542.996 186.727 542.194L186.427 537.698Z" fill="#6F4439"/>
<path d="M189.016 492.486C189.327 493.201 191.338 492.562 193.804 492.616C196.271 492.67 198.371 493.277 198.593 492.562C198.682 492.215 198.238 491.565 197.349 490.948C196.25 490.22 194.955 489.824 193.627 489.81C192.346 489.79 191.093 490.17 190.049 490.894C189.238 491.49 188.938 492.14 189.016 492.486Z" fill="#263238"/>
<path d="M167.25 492.595C167.672 493.245 169.405 492.595 171.461 492.649C173.516 492.703 175.261 493.18 175.672 492.53C175.849 492.205 175.594 491.555 174.838 490.937C173.87 490.191 172.669 489.79 171.434 489.8C170.2 489.81 169.006 490.23 168.05 490.991C167.316 491.63 167.061 492.28 167.25 492.595Z" fill="#263238"/>
<path d="M216.503 500.688C216.503 500.688 227.37 496.268 227.559 506.766C227.747 517.265 217.181 515.184 217.159 514.881C217.137 514.578 216.503 500.688 216.503 500.688Z" fill="#AE7461"/>
<path d="M220.292 510.883C220.292 510.883 220.47 511.013 220.781 511.154C221.218 511.33 221.71 511.33 222.147 511.154C223.258 510.742 224.147 508.987 224.169 507.08C224.178 506.181 223.988 505.291 223.614 504.469C223.509 504.146 223.328 503.851 223.085 503.608C222.841 503.365 222.543 503.181 222.214 503.072C221.997 503.009 221.764 503.026 221.559 503.12C221.354 503.214 221.192 503.378 221.103 503.581C220.97 503.884 221.036 504.09 220.981 504.112C220.925 504.133 220.747 503.938 220.825 503.505C220.871 503.244 221.014 503.009 221.225 502.844C221.365 502.732 221.526 502.648 221.7 502.6C221.874 502.551 222.057 502.539 222.236 502.562C222.672 502.65 223.078 502.844 223.416 503.127C223.754 503.409 224.013 503.77 224.169 504.177C224.635 505.08 224.871 506.08 224.858 507.091C224.858 509.258 223.747 511.197 222.269 511.652C221.989 511.736 221.693 511.755 221.404 511.708C221.114 511.661 220.84 511.549 220.603 511.381C220.314 511.143 220.258 510.905 220.292 510.883Z" fill="#6F4439"/>
<path d="M185.604 519.876C185.604 519.962 186.093 520.179 186.971 520.136C188.129 520.068 189.229 519.622 190.093 518.868C190.957 518.106 191.526 517.076 191.704 515.954C191.838 515.108 191.704 514.588 191.582 514.599C191.46 514.61 191.415 515.108 191.171 515.834C190.869 516.78 190.317 517.632 189.571 518.305C188.815 518.96 187.895 519.408 186.904 519.605C186.127 519.767 185.604 519.767 185.604 519.876Z" fill="#263238"/>
<g opacity="0.4">
<path d="M199.115 509.442C198.534 508.938 197.792 508.643 197.015 508.608C196.42 508.631 195.831 508.726 195.26 508.89C194.679 509.046 194.179 509.41 193.86 509.908C193.706 510.155 193.63 510.441 193.642 510.73C193.654 511.019 193.753 511.299 193.926 511.533C194.258 511.869 194.697 512.087 195.171 512.151C195.943 512.304 196.737 512.322 197.515 512.205C197.873 512.181 198.222 512.081 198.536 511.913C198.851 511.744 199.124 511.511 199.337 511.23C199.512 510.951 199.585 510.623 199.545 510.298C199.504 509.974 199.353 509.672 199.115 509.442Z" fill="#6F4439"/>
</g>
<g opacity="0.4">
<path d="M173.239 511.522C172.659 511.023 171.923 510.729 171.15 510.688C170.555 510.715 169.966 510.809 169.394 510.97C168.818 511.135 168.321 511.496 167.994 511.988C167.838 512.237 167.761 512.525 167.773 512.816C167.785 513.107 167.885 513.388 168.061 513.624C168.396 513.949 168.827 514.162 169.294 514.231C170.07 514.385 170.867 514.403 171.65 514.285C172.006 514.261 172.354 514.162 172.668 513.996C172.982 513.829 173.257 513.599 173.472 513.321C173.648 513.04 173.721 512.708 173.678 512.382C173.636 512.055 173.481 511.752 173.239 511.522Z" fill="#6F4439"/>
</g>
<path d="M222.67 486.603C222.353 483.77 221.11 481.111 219.125 479.019C217.203 476.852 215.881 472.443 213.392 470.991C208.037 467.881 201.026 468.38 194.838 467.665C188.649 466.95 178.883 464.414 173.494 467.448L160.806 484.079C161.661 486.668 165.939 487.697 167.472 486.419C168.25 485.764 168.819 484.907 169.115 483.947C169.41 482.988 169.418 481.966 169.139 481.002C172.472 482.204 178.472 479.864 179.316 476.516C182.883 480.428 187.727 481.316 192.027 478.185C192.112 479.591 192.568 480.951 193.352 482.134C194.135 483.318 195.219 484.283 196.498 484.937C197.777 485.591 199.208 485.912 200.652 485.868C202.095 485.824 203.503 485.416 204.737 484.686C203.418 486.842 203.019 489.417 203.626 491.858C204.359 494.241 206.882 496.192 209.381 495.693C208.107 497.205 207.264 499.017 206.937 500.948C206.78 501.916 206.849 502.906 207.14 503.844C207.43 504.782 207.935 505.644 208.615 506.365C209.32 507.059 210.234 507.514 211.224 507.664C212.214 507.814 213.227 507.651 214.115 507.199C215.409 506.247 216.375 504.931 216.881 503.429L220.048 496.354C221.481 493.266 222.936 489.973 222.67 486.603Z" fill="#263238"/>
<path d="M228.603 484.588C228.603 484.588 228.358 483.949 227.692 482.92C226.748 481.469 225.372 480.335 223.748 479.669L223.603 479.604V479.442C223.854 478.163 223.839 476.849 223.56 475.576C223.282 474.304 222.745 473.098 221.981 472.031C220.707 470.308 218.878 469.051 216.785 468.461C214.692 467.872 212.457 467.984 210.437 468.781L210.026 468.943V468.51C210.062 467.114 209.793 465.727 209.237 464.44C208.682 463.153 207.852 461.996 206.804 461.045C205.092 459.506 202.865 458.628 200.537 458.575C198.982 458.521 197.433 458.806 196.004 459.409C195.004 459.842 194.515 460.189 194.482 460.146C194.449 460.102 194.582 460.037 194.827 459.864C195.173 459.613 195.545 459.399 195.938 459.225C197.373 458.512 198.96 458.141 200.571 458.141C203.01 458.139 205.363 459.024 207.17 460.622C208.29 461.613 209.179 462.828 209.775 464.183C210.371 465.538 210.661 467.003 210.626 468.477L210.226 468.206C212.361 467.348 214.732 467.221 216.951 467.844C219.171 468.468 221.108 469.806 222.448 471.641C223.241 472.766 223.79 474.037 224.061 475.377C224.333 476.717 224.32 478.096 224.025 479.431L223.914 479.203C225.585 479.923 226.975 481.146 227.881 482.692C228.128 483.103 228.329 483.539 228.481 483.992C228.551 484.184 228.592 484.385 228.603 484.588Z" fill="#455A64"/>
<path d="M328.265 518.987C328.265 519.421 329.087 534.296 329.087 534.296L351.598 532.682L349.742 515.217L328.265 518.987Z" fill="#EBEBEB"/>
<path d="M350.998 521.132L350.553 519.431C350.553 519.431 372.652 505.834 371.297 499.615L323.932 507.622L327.954 525.304C334.354 520.439 342.12 518.825 350.998 521.132Z" fill="#92E3A9"/>
<path d="M323.932 507.622L324.899 511.88L370.552 502.627C371.128 501.728 371.39 500.671 371.297 499.615L323.932 507.622Z" fill="#E0E0E0"/>
<path d="M348.731 513.158C348.664 513.158 348.631 513.57 348.787 514.242C348.985 515.069 349.364 515.845 349.898 516.517C350.412 517.16 351.074 517.676 351.831 518.023C352.386 518.261 352.764 518.272 352.775 518.207C351.858 517.628 351.022 516.936 350.287 516.149C349.653 515.213 349.131 514.21 348.731 513.158Z" fill="white"/>
<path d="M346.331 514.188C346.4 515.394 346.89 516.541 347.72 517.438C348.975 518.987 350.475 519.453 350.498 519.312C349.658 518.606 348.86 517.854 348.109 517.059C346.942 515.639 346.487 514.144 346.331 514.188Z" fill="white"/>
<path d="M352.187 511.273C351.932 512.256 352.067 513.297 352.565 514.188C353.253 515.759 354.387 516.517 354.442 516.354C354.498 516.192 353.642 515.347 353.031 513.928C352.42 512.508 352.342 511.273 352.187 511.273Z" fill="white"/>
<path d="M352.798 517.655C352.453 518.235 352.298 518.904 352.353 519.572C352.343 520.298 352.402 521.024 352.531 521.739C352.598 522.151 352.675 522.573 352.764 523.007C352.812 523.245 352.875 523.48 352.953 523.711C353.005 523.857 353.088 523.991 353.198 524.103C353.307 524.215 353.439 524.303 353.586 524.361C353.747 524.401 353.917 524.382 354.064 524.309C354.212 524.235 354.326 524.111 354.386 523.96C354.493 523.725 354.55 523.47 354.553 523.213C354.61 522.024 354.378 520.84 353.875 519.756C353.331 518.608 352.764 518.088 352.709 518.142C352.653 518.196 353.12 518.792 353.542 519.908C353.789 520.561 353.949 521.242 354.02 521.934C354.059 522.334 354.059 522.737 354.02 523.137C354.02 523.538 353.831 523.884 353.675 523.798C353.52 523.711 353.331 523.353 353.242 522.909L352.975 521.674C352.835 520.984 352.742 520.285 352.698 519.583C352.664 518.402 352.875 517.687 352.798 517.655Z" fill="white"/>
<path d="M353.153 517.752C353.153 517.752 353.064 517.676 352.864 517.611L352.709 517.557L352.786 517.741C353.099 518.432 353.519 519.071 354.031 519.637C354.416 520.067 354.844 520.459 355.309 520.807C355.569 520.996 355.839 521.169 356.12 521.327C356.277 521.43 356.455 521.5 356.642 521.533C356.759 521.556 356.881 521.548 356.994 521.51C357.107 521.472 357.208 521.405 357.286 521.317C357.381 521.177 357.431 521.013 357.431 520.845C357.431 520.678 357.381 520.514 357.286 520.374C357.168 520.175 357.022 519.993 356.853 519.832C356.586 519.54 356.292 519.271 355.975 519.031C355.46 518.627 354.883 518.305 354.264 518.077C353.231 517.709 352.564 517.752 352.575 517.817C352.586 517.882 353.209 518.012 354.153 518.456C354.709 518.729 355.231 519.063 355.709 519.453C355.992 519.693 356.259 519.95 356.509 520.222C356.797 520.504 356.975 520.862 356.864 520.905C356.686 521.154 355.975 520.634 355.531 520.352C355.08 520.028 354.66 519.666 354.275 519.269C353.773 518.752 353.309 518.202 352.886 517.622L352.809 517.752C353.053 517.795 353.153 517.785 353.153 517.752Z" fill="white"/>
<path d="M254.702 560.277C254.702 560.277 267.823 555.196 278.934 555.196C290.045 555.196 305.688 561.696 305.688 561.696L327.287 566.702L328.01 528.716L353.453 528.045C353.453 528.045 355.964 573.625 354.742 584.665C352.775 602.423 341.976 602.423 326.899 602.423C311.821 602.423 251.068 602.217 251.068 602.217L254.702 560.277Z" fill="#263238"/>
<path d="M353.142 589.53C353.118 589.325 353.118 589.117 353.142 588.912C353.142 588.457 353.142 587.883 353.198 587.179C353.264 585.586 353.342 583.419 353.453 580.776C353.653 575.358 353.886 567.915 353.953 559.67C354.02 551.425 353.886 543.96 353.764 538.565C353.698 535.921 353.642 533.754 353.609 532.162V530.417C353.58 530.216 353.58 530.012 353.609 529.811C353.669 530.008 353.699 530.212 353.698 530.417C353.698 530.872 353.775 531.447 353.831 532.151C353.942 533.657 354.053 535.845 354.175 538.543C354.409 543.96 354.586 551.425 354.531 559.681C354.475 567.937 354.175 575.402 353.853 580.797C353.698 583.495 353.553 585.684 353.42 587.19C353.353 587.894 353.309 588.468 353.264 588.923C353.252 589.13 353.211 589.334 353.142 589.53Z" fill="#455A64"/>
<path d="M330.121 574.817C329.954 574.817 329.498 573.051 328.621 570.938C327.743 568.825 326.821 567.222 326.965 567.135C328.809 569.315 329.911 571.999 330.121 574.817Z" fill="#455A64"/>
<path d="M150.206 588.197C150.206 588.197 136.651 582.78 133.64 581.415C130.629 580.05 124.607 583.224 124.396 584.806C124.345 585.278 124.421 585.755 124.615 586.19C124.81 586.625 125.117 587.003 125.507 587.287C125.507 587.287 124.651 590.678 126.262 591.924C126.262 591.924 124.974 595.77 127.129 597.125C126.772 598.007 126.694 598.974 126.904 599.9C127.113 600.827 127.602 601.671 128.307 602.325C130.784 604.817 143.473 604.59 146.373 604.362C149.494 604.212 152.623 604.256 155.739 604.492C155.739 604.59 158.528 588.869 158.528 588.869L150.206 588.197Z" fill="#AE7461"/>
<path d="M182.927 577.504C197.582 594.698 212.104 603.755 230.147 606.865C240.325 608.631 269.257 609.227 269.257 609.227C275.423 589.725 275.545 571.967 268.323 556.387H238.825C238.825 556.387 221.903 537.85 215.703 536.712C215.703 536.712 185.205 545.456 184.482 549.096C182.138 560.949 182.927 577.504 182.927 577.504Z" fill="#92E3A9"/>
<path d="M214.148 547.655C206.181 537.796 189.86 541.869 187.849 554.264L187.782 554.697C185.604 569.389 184.493 587.46 184.493 587.46L151.161 587.363L147.828 607.038C147.828 607.038 193.248 612.726 201.804 607.526C210.359 602.325 209.859 589.161 212.281 577.33C214.403 566.918 216.248 559.876 216.548 553.148C216.432 551.099 215.583 549.155 214.148 547.655Z" fill="#92E3A9"/>
<path d="M214.148 547.655C214.685 548.246 215.155 548.893 215.548 549.583C216.051 550.417 216.387 551.336 216.537 552.292C216.603 552.901 216.603 553.514 216.537 554.123C216.537 554.788 216.481 555.481 216.37 556.203C216.081 559.139 215.459 562.704 214.614 566.799C213.77 570.895 212.681 575.554 211.815 580.743C211.392 583.333 211.037 586.074 210.615 588.923C210.216 591.898 209.6 594.842 208.77 597.731C207.961 600.895 206.304 603.793 203.97 606.128C203.345 606.716 202.664 607.246 201.937 607.71C201.175 608.156 200.352 608.495 199.493 608.718C197.773 609.175 196.014 609.479 194.238 609.628C186.757 610.145 179.248 610.116 171.772 609.541C163.994 609.053 155.95 608.317 147.739 607.374H147.439V607.082C147.517 606.648 147.595 606.171 147.684 605.695C148.795 599.465 149.773 593.354 150.784 587.417V587.179H151.162L184.571 587.287L184.316 587.525C184.982 577.623 185.849 568.533 186.849 560.44C187.108 558.424 187.375 556.474 187.649 554.589C187.829 553.66 188.059 552.742 188.338 551.837L188.871 550.559C188.96 550.353 189.038 550.136 189.138 549.93L189.493 549.356C191.179 546.488 193.828 544.276 196.993 543.094C199.541 542.148 202.297 541.861 204.993 542.259C206.971 542.624 208.857 543.36 210.548 544.426C211.589 545.092 212.534 545.89 213.359 546.799L213.981 547.503C214.058 547.581 214.128 547.665 214.192 547.752L213.948 547.525L213.292 546.864C212.452 545.984 211.5 545.212 210.459 544.567C208.49 543.356 206.254 542.62 203.935 542.421C201.616 542.221 199.282 542.563 197.126 543.419C194.04 544.592 191.465 546.77 189.838 549.583C187.927 552.595 187.871 556.539 187.293 560.537C186.327 568.598 185.493 577.688 184.849 587.623V587.861H184.493L151.162 587.666L151.439 587.428C150.428 593.365 149.395 599.487 148.339 605.716C148.262 606.182 148.173 606.659 148.106 607.103L147.851 606.778C156.05 607.753 164.083 608.501 171.85 608.945C179.295 609.53 186.775 609.57 194.226 609.064C197.726 608.696 201.359 608.219 203.67 605.727C205.94 603.451 207.556 600.634 208.359 597.558C209.189 594.69 209.81 591.768 210.215 588.815C210.648 585.976 211.015 583.235 211.459 580.635C212.359 575.423 213.492 570.797 214.337 566.702C215.181 562.606 215.87 559.064 216.192 556.138C216.281 555.412 216.337 554.719 216.381 554.069C216.447 553.467 216.447 552.861 216.381 552.26C216.242 551.323 215.925 550.419 215.448 549.594C215.168 549.076 214.852 548.576 214.503 548.099L214.148 547.655Z" fill="#263238"/>
<path d="M243.38 582.563C243.159 581.436 243.015 580.296 242.947 579.15C242.725 577.038 242.391 574.134 241.902 570.938C241.414 567.742 240.88 564.86 240.469 562.78C240.194 561.667 239.994 560.538 239.869 559.399C240.312 560.467 240.647 561.573 240.869 562.704C241.38 564.762 241.98 567.644 242.48 570.851C242.98 574.058 243.236 576.994 243.358 579.118C243.476 580.263 243.484 581.417 243.38 582.563Z" fill="#263238"/>
<path d="M61.0431 520.352C61.0431 520.352 105.286 507.763 105.286 508.435C105.286 508.51 106.208 508.89 106.241 509.626C106.575 515.954 107.252 543.895 107.252 543.895L61.1653 536.441L58.7432 522.108L61.0431 520.352Z" fill="#455A64"/>
<path d="M112.052 602L118.974 595.846L115.507 524.654L60.3874 521.414L57.5542 525.184L66.1094 590.711L112.052 602Z" fill="#EBEBEB"/>
<path d="M60.3877 527.449L106.464 531.219L110.974 603.734L66.1097 593.127L60.3877 527.449Z" fill="#455A64"/>
<path d="M60.3877 521.414L109.597 512.584L111.83 514.946L112.052 524.329L74.7093 522.671L60.3877 521.414Z" fill="#E0E0E0"/>
<path d="M61.1653 590.938L54.6655 525.423C54.6655 525.423 55.0322 521.165 61.043 520.352C60.0846 521.265 59.492 522.481 59.3718 523.783C59.2516 525.084 59.6118 526.384 60.3875 527.449L66.1095 593.127C64.3224 592.743 62.638 591.997 61.1653 590.938Z" fill="#263238"/>
<path d="M59.4429 522.671C59.6309 522.646 59.8215 522.646 60.0095 522.671H61.6539H67.6648C72.7423 522.736 79.7531 522.888 87.4973 523.137C95.2414 523.386 102.252 523.722 107.319 524.025C109.852 524.177 111.907 524.318 113.318 524.437L114.952 524.589C115.144 524.589 115.335 524.618 115.518 524.675C115.326 524.698 115.132 524.698 114.941 524.675H113.307L107.296 524.448L87.475 523.722L67.6536 523.093L61.6428 522.877L60.054 522.747C59.8476 522.749 59.642 522.724 59.4429 522.671Z" fill="#263238"/>
<path d="M65.0205 522.671C65.0205 522.519 75.409 520.677 88.3529 518.565C101.297 516.452 111.685 514.848 111.685 515.011C111.685 515.173 101.286 517.005 88.3529 519.117C75.4201 521.23 65.0427 522.823 65.0205 522.671Z" fill="#263238"/>
<path d="M115.385 524.675C115.496 524.827 113.352 526.311 110.719 528.077C108.085 529.843 106.363 531.739 106.274 531.653C106.504 531.13 106.845 530.661 107.274 530.277C108.221 529.283 109.275 528.393 110.419 527.622C111.969 526.481 113.633 525.494 115.385 524.675Z" fill="#263238"/>
</svg>
