<svg width="736" height="956" viewBox="0 0 736 956" fill="none" xmlns="http://www.w3.org/2000/svg">
<path fill-rule="evenodd" clip-rule="evenodd" d="M406.038 246.011C476.022 245.049 528.64 309.774 562.336 372.104C589.4 422.167 572.675 478.846 562.253 534.974C550.974 595.71 555.096 670.906 501.44 700.03C446.78 729.698 385.96 686.032 328.812 661.68C265.108 634.535 179.501 623.236 161.931 555.357C144.158 486.694 211.24 431.718 254.95 376.326C298.427 321.23 336.541 246.965 406.038 246.011Z" fill="#CAE6FF"/>
<path d="M313.004 466.713C313.004 466.713 295.613 467.691 288.918 470.424C282.223 473.157 250.051 489.112 250.051 489.112C250.051 489.112 206.457 508.422 197.751 513.556C186.628 520.066 161.922 527.377 166.542 567.575H209.815L227.783 539.132L248.511 540.265L288.982 566.442H452.193H569.5C569.5 566.442 574.419 525.022 554.205 507.4C533.991 489.779 454.781 471.002 454.781 471.002C454.781 471.002 426.974 464.847 420.171 464.847L313.004 466.713Z" fill="#92E3A9"/>
<g opacity="0.3">
<path d="M283.014 525.133C288.466 524.022 294.118 524.769 299.128 527.264C304.139 529.758 308.24 533.866 310.822 538.977C312.961 543.421 313.966 548.621 317.624 551.732C321.282 554.843 325.881 554.931 330.352 555.043L366.224 555.909C369.277 556.275 372.369 555.768 375.165 554.443C379.572 551.865 380.812 546.043 382.887 541.243C386.84 532.758 393.847 526.229 402.396 523.066C410.919 519.98 420.076 519.282 428.941 521.044C434.76 522.066 441.369 523.689 446.054 520.022C449.134 517.622 450.482 513.578 452.471 510.178C454.461 506.778 458.247 503.667 461.904 504.934C466.824 506.623 467.787 514.956 472.921 515.667C475.188 515.978 477.327 514.578 479.552 514.045C481.776 513.511 499.424 509.178 499.231 511.556C499.231 511.556 483.766 520.266 482.889 521.066C465.434 536.999 447.829 551.909 430.375 567.842L264.447 565.909L283.014 525.133Z" fill="black"/>
</g>
<path d="M460.493 490.89C460.049 490.794 459.598 490.742 459.145 490.734C458.545 490.798 457.968 491.004 457.456 491.335C456.944 491.666 456.512 492.114 456.193 492.645C453.911 496.297 452.113 500.251 450.845 504.4C449.219 510.351 448.37 516.503 448.321 522.688C447.852 520.902 447.671 519.048 447.787 517.2C447.802 512.734 448.48 508.297 449.797 504.045C451.078 499.764 453.029 495.733 455.573 492.112C455.987 491.535 456.526 491.066 457.146 490.746C457.767 490.425 458.452 490.262 459.145 490.268C460.129 490.357 460.535 490.845 460.493 490.89Z" fill="#263238"/>
<path d="M282.501 535.088C282.117 534.392 281.829 533.644 281.645 532.866C281.09 530.751 280.683 528.597 280.426 526.422C279.722 519.237 279.622 512.003 280.127 504.8C280.618 496.379 281.453 488.801 282.266 483.313C282.629 480.579 282.971 478.379 283.228 476.868C283.307 476.062 283.486 475.27 283.763 474.513C283.808 475.315 283.772 476.119 283.656 476.913C283.485 478.713 283.292 480.868 283.057 483.424C282.501 488.912 281.795 496.49 281.303 504.867C280.818 512.013 280.818 519.186 281.303 526.333C281.624 531.666 282.672 534.91 282.501 535.088Z" fill="#263238"/>
<path d="M226.179 535.088C223.217 530.581 219.526 526.642 215.27 523.444C210.818 520.57 205.928 518.504 200.81 517.333C202.379 517.176 203.962 517.335 205.473 517.8C209.191 518.691 212.721 520.28 215.89 522.488C219.067 524.692 221.817 527.496 223.997 530.755C224.979 532.045 225.719 533.514 226.179 535.088Z" fill="#263238"/>
<path d="M534.505 503.845C534.505 504.045 531.253 504.134 525.948 504.667C519.191 505.317 512.534 506.809 506.119 509.111C499.754 511.605 493.613 514.676 487.766 518.289C485.37 519.867 482.892 521.306 480.344 522.6C480.9 522.047 481.509 521.556 482.162 521.133C483.36 520.244 485.135 519.044 487.36 517.578C493.145 513.732 499.304 510.529 505.734 508.023C512.23 505.644 519.011 504.209 525.884 503.756C528.515 503.6 530.633 503.534 532.109 503.6C532.914 503.579 533.719 503.661 534.505 503.845Z" fill="#263238"/>
<path d="M493.969 503.334C492.606 503.954 491.214 504.503 489.798 504.978C483.173 507.764 477.623 512.749 474.012 519.155C472.621 521.6 472.001 523.266 471.873 523.2C472.084 521.633 472.585 520.124 473.349 518.755C476.705 511.868 482.538 506.63 489.584 504.178C490.978 503.598 492.468 503.311 493.969 503.334Z" fill="#263238"/>
<path d="M218.414 527.022C218.414 527.222 215.462 527.999 210.842 529.755C204.769 531.888 199.235 535.412 194.649 540.065C190.2 544.834 187.695 551.202 187.654 557.842C187.809 560.59 188.372 563.296 189.323 565.864C188.87 565.271 188.503 564.612 188.232 563.909C187.44 562.001 186.983 559.962 186.884 557.887C186.77 554.449 187.326 551.023 188.521 547.815C189.716 544.607 191.524 541.683 193.836 539.221C198.535 534.433 204.283 530.903 210.585 528.933C212.96 528.133 214.863 527.622 216.275 527.31C216.974 527.121 217.692 527.024 218.414 527.022Z" fill="#263238"/>
<path d="M495.766 566.198C496.617 563.98 497.331 561.709 497.905 559.398C499.026 553.773 499.069 547.974 498.033 542.332C497.525 539.215 496.512 536.21 495.039 533.444C493.78 531.247 492.141 529.31 490.204 527.733C486.846 525.044 484.472 523.777 484.579 523.6C485.192 523.75 485.778 524.006 486.311 524.355C487.805 525.147 489.236 526.061 490.589 527.088C492.693 528.638 494.475 530.61 495.83 532.888C497.41 535.714 498.503 538.805 499.06 542.021C500.116 547.81 499.955 553.768 498.59 559.487C498.168 561.22 497.558 562.897 496.771 564.487C496.237 565.775 495.83 566.331 495.766 566.198Z" fill="#263238"/>
<path d="M339.143 491.49V490.868C314.822 487.579 303.613 463.202 302.009 434.048C301.153 418.493 300.49 417.316 301.538 383.784C302.134 364.009 304.875 344.367 309.71 325.231C309.71 325.231 329.411 299.543 366.63 302.454C403.85 305.365 423.209 357.318 423.209 357.318C423.209 357.318 422.952 436.27 420.749 452.225C419.548 459.373 418.926 466.613 418.888 473.869L418.011 493.379C417.543 503.914 413.185 513.856 405.843 521.14C398.501 528.423 388.74 532.488 378.588 532.488C373.406 532.488 368.275 531.427 363.488 529.367C358.701 527.306 354.352 524.286 350.689 520.479C347.026 516.671 344.121 512.151 342.14 507.177C340.159 502.203 339.14 496.873 339.143 491.49Z" fill="#FFBE9D"/>
<path d="M421.348 406.805C421.99 406.516 447.487 398.561 446.846 425.649C446.204 452.736 420.171 446.47 420.15 445.648C420.129 444.826 421.348 406.805 421.348 406.805Z" fill="#FFBE9D"/>
<path d="M428.342 435.648C428.471 435.648 428.792 435.981 429.562 436.359C430.087 436.615 430.657 436.761 431.237 436.787C431.817 436.814 432.396 436.721 432.941 436.515C435.722 435.537 438.161 431.048 438.396 426.182C438.52 423.857 438.14 421.534 437.284 419.382C437.06 418.531 436.639 417.75 436.057 417.107C435.475 416.463 434.751 415.978 433.947 415.694C433.431 415.531 432.876 415.565 432.383 415.789C431.889 416.013 431.488 416.413 431.252 416.916C430.867 417.649 431.016 418.205 430.888 418.249C430.76 418.293 430.332 417.782 430.567 416.671C430.736 416.002 431.112 415.408 431.637 414.982C432.367 414.439 433.273 414.216 434.161 414.36C435.229 414.609 436.219 415.138 437.035 415.896C437.851 416.655 438.467 417.618 438.824 418.693C439.871 421.065 440.348 423.665 440.214 426.271C439.915 431.737 437.113 436.759 433.305 437.804C432.602 437.998 431.865 438.025 431.15 437.883C430.436 437.741 429.761 437.432 429.177 436.981C428.385 436.293 428.257 435.693 428.342 435.648Z" fill="#EB996E"/>
<path d="M316.32 399.739C317.026 400.516 321.304 397.161 327.421 397.139C333.539 397.117 338.117 400.25 338.673 399.472C338.994 399.117 338.266 397.739 336.32 396.272C333.662 394.392 330.508 393.414 327.293 393.472C324.114 393.48 321.02 394.538 318.459 396.494C316.598 398.005 315.977 399.405 316.32 399.739Z" fill="#263238"/>
<path d="M376.192 398.672C376.919 399.428 381.198 396.094 387.294 396.05C393.39 396.006 397.989 399.161 398.567 398.383C398.888 398.028 398.16 396.65 396.192 395.183C393.531 393.31 390.38 392.332 387.166 392.384C383.994 392.396 380.908 393.454 378.353 395.406C376.492 396.917 375.85 398.317 376.192 398.672Z" fill="#263238"/>
<path d="M382.524 378.384C382.845 379.718 386.545 379.873 390.588 381.229C394.631 382.584 397.797 384.473 398.802 383.562C399.251 383.095 398.995 381.873 397.839 380.406C396.251 378.591 394.22 377.254 391.961 376.539C389.702 375.823 387.299 375.754 385.005 376.34C383.272 376.873 382.395 377.74 382.524 378.384Z" fill="#263238"/>
<path d="M320.127 375.873C321.197 377.118 325.133 377.295 328.919 376.318C332.705 375.34 334.93 373.54 333.881 372.318C332.833 371.096 328.876 370.896 325.09 371.896C321.304 372.896 319.079 374.651 320.127 375.873Z" fill="#263238"/>
<path d="M361.625 447.137C361.625 447.514 362.352 448.181 363.978 448.425C366.141 448.661 368.31 448.031 370.042 446.665C371.774 445.298 372.941 443.298 373.304 441.07C373.54 439.381 373.133 438.381 372.748 438.381C371.978 438.381 371.358 441.959 368.32 444.314C365.283 446.67 361.796 446.359 361.625 447.137Z" fill="#263238"/>
<path d="M339.122 490.868C339.122 490.868 370.374 491.379 377.754 485.779C377.754 485.779 373.048 501.334 339.956 499.712L339.122 490.868Z" fill="#EB996E"/>
<path d="M286.137 352.097C285.752 345.741 283.891 339.519 283.87 333.142C283.947 328.381 284.976 323.689 286.891 319.362C288.805 315.036 291.564 311.17 294.993 308.01C301.97 301.725 310.851 298.186 320.084 298.01C326.951 297.833 333.86 299.344 340.641 298.299C346.416 297.433 351.764 294.744 357.432 293.277C363.301 291.801 369.403 291.632 375.339 292.781C381.274 293.93 386.909 296.371 391.871 299.944C391.871 299.944 403.829 307.165 418.567 324.965C418.567 324.965 445.262 325.787 444.065 364.674C442.867 403.561 440.236 408.427 440.236 408.427L431.423 405.65C432.171 410.094 432.899 414.738 430.567 418.827C429.975 419.943 429.104 420.872 428.046 421.517C426.989 422.163 425.783 422.5 424.556 422.493C419.401 422.227 417.69 416.049 417.112 411.049C415.544 397.835 414.588 384.569 414.246 371.251C414.139 367.518 413.369 362.807 409.968 361.941C407.829 361.452 405.904 362.607 403.871 363.163C401.827 363.689 399.682 363.614 397.677 362.947C395.671 362.28 393.883 361.047 392.513 359.385C392.085 364.474 385.454 366.763 381.005 364.607C376.556 362.452 373.925 357.696 371.572 353.23C371.926 356.044 371.715 358.904 370.951 361.63C370.537 362.985 369.733 364.177 368.646 365.043C367.56 365.909 366.244 366.409 364.876 366.474C361.71 366.318 359.55 363.163 358.074 360.252C354.519 353.215 352.023 345.653 350.673 337.831C348.406 349.968 341.628 360.69 331.806 367.674C330.694 364.266 329.589 360.867 328.491 357.474C327.271 359.551 325.698 361.38 323.849 362.874C322.922 363.625 321.818 364.105 320.652 364.265C319.487 364.425 318.301 364.26 317.218 363.785C316.505 363.362 315.924 362.735 315.545 361.978C315.165 361.222 315.004 360.368 315.079 359.518C314.032 361.15 312.437 362.318 310.606 362.794C308.775 363.271 306.839 363.022 305.175 362.096C303.946 361.302 302.942 360.182 302.266 358.852C303.528 378.673 304.768 400.161 301.239 419.027L292.469 398.472C287.228 386.273 285.022 372.901 286.052 359.585C286.251 357.094 286.28 354.592 286.137 352.097Z" fill="#263238"/>
<path d="M416.727 330.231C416.899 330.231 417.219 328.453 418.588 325.942C420.413 322.689 423.184 320.121 426.503 318.609C429.861 317.197 433.569 316.955 437.07 317.92C439.765 318.654 441.241 319.676 441.348 319.52C441.455 319.365 441.049 319.165 440.386 318.72C439.388 318.124 438.325 317.654 437.22 317.32C433.577 316.102 429.638 316.26 426.097 317.765C422.583 319.338 419.708 322.136 417.968 325.676C417.446 326.73 417.058 327.851 416.813 329.009C416.685 329.764 416.663 330.231 416.727 330.231Z" fill="#263238"/>
<path d="M413.412 329.431C413.412 329.431 413.861 329.187 414.546 328.587C415.502 327.734 416.363 326.773 417.112 325.72C419.671 322.228 421.161 318.019 421.39 313.637C421.619 309.255 420.576 304.902 418.396 301.143C417.744 300.015 416.985 298.958 416.128 297.988C415.53 297.321 415.144 297.01 415.102 297.055C415.059 297.099 416.342 298.632 417.818 301.499C419.758 305.202 420.67 309.393 420.451 313.603C420.231 317.813 418.891 321.878 416.578 325.342C414.824 327.987 413.305 329.298 413.412 329.431Z" fill="#263238"/>
<path d="M349.817 413.783C349.432 413.671 348.705 415.071 347.849 417.427C347.421 418.582 346.951 420.004 346.48 421.582C346.245 422.382 346.01 423.204 345.753 424.049C345.419 425.032 345.204 426.055 345.111 427.093C345.069 427.753 345.158 428.414 345.371 429.037C345.584 429.66 345.918 430.231 346.352 430.715C347.155 431.538 348.188 432.075 349.304 432.248C350.236 432.395 351.189 432.312 352.085 432.004C352.8 431.73 353.477 431.356 354.095 430.893C356.234 429.137 356.812 427.715 356.598 427.449C356.384 427.182 355.015 428.093 353.047 429.115C352.041 429.66 350.884 429.825 349.774 429.582C349.243 429.455 348.76 429.169 348.384 428.76C348.213 428.55 348.086 428.305 348.013 428.04C347.939 427.776 347.92 427.499 347.956 427.226C348.026 426.418 348.184 425.62 348.427 424.849C348.619 423.982 348.79 423.138 348.983 422.293C349.325 420.671 349.582 419.204 349.774 417.96C350.159 415.471 350.181 413.871 349.817 413.783Z" fill="#263238"/>
<path d="M430.802 371.251C430.987 370.631 431.094 369.989 431.123 369.34C431.273 368.118 431.466 366.318 431.637 364.096C432.174 358.282 431.871 352.418 430.738 346.697C429.551 340.904 426.702 335.62 422.567 331.542C421.286 330.329 419.846 329.312 418.289 328.52C417.74 328.202 417.149 327.97 416.535 327.831C418.506 329.043 420.355 330.458 422.054 332.053C425.919 336.155 428.589 341.308 429.754 346.919C430.819 352.536 431.171 358.273 430.802 363.985C430.663 366.405 430.663 368.831 430.802 371.251Z" fill="#455A64"/>
<path d="M408.107 361.185C409.327 360.065 410.36 358.744 411.166 357.274C413.301 353.87 414.864 350.113 415.786 346.164C416.706 342.195 416.974 338.092 416.578 334.031C416.505 332.347 416.166 330.688 415.572 329.12C415.423 329.12 415.765 331.031 415.915 334.075C416.112 338.055 415.759 342.044 414.866 345.919C413.947 349.812 412.507 353.552 410.588 357.03C409.134 359.541 407.979 361.074 408.107 361.185Z" fill="#455A64"/>
<path d="M351.806 337.319C351.842 337.009 351.842 336.696 351.806 336.386C351.806 335.675 351.806 334.786 351.806 333.72C351.855 330.463 352.098 327.212 352.534 323.987C353.13 319.229 354.858 314.7 357.561 310.81C359.208 308.591 361.313 306.784 363.721 305.521C366.337 304.2 369.165 303.393 372.063 303.143C377.712 302.674 383.38 303.739 388.513 306.232C390.768 307.309 392.917 308.612 394.93 310.121C396.657 311.46 398.274 312.947 399.764 314.565C401.922 316.906 403.758 319.545 405.219 322.409C406.289 324.431 406.716 325.631 406.802 325.609C406.887 325.587 406.802 325.276 406.545 324.698C406.263 323.857 405.935 323.033 405.561 322.231C404.175 319.26 402.381 316.513 400.235 314.076C398.755 312.394 397.137 310.847 395.401 309.454C393.393 307.887 391.244 306.525 388.984 305.388C383.724 302.778 377.894 301.659 372.085 302.143C369.069 302.394 366.127 303.246 363.422 304.654C360.895 305.981 358.699 307.898 357.004 310.254C354.237 314.272 352.513 318.964 351.999 323.876C351.603 327.132 351.46 330.417 351.571 333.697C351.571 334.853 351.571 335.764 351.571 336.364C351.599 336.694 351.679 337.016 351.806 337.319Z" fill="#455A64"/>
<path d="M321.881 343.186C322.02 342.892 322.114 342.577 322.159 342.253C322.309 341.541 322.502 340.63 322.737 339.564C323.25 337.208 323.956 333.809 325.111 329.698C326.372 324.863 328.227 320.218 330.63 315.876C333.565 310.566 337.96 306.287 343.25 303.588C348.615 301.041 354.467 299.795 360.363 299.943C365.19 300.046 369.993 300.671 374.695 301.81C378.716 302.743 381.946 303.677 384.192 304.277L386.759 304.988C387.057 305.086 387.366 305.146 387.679 305.165C387.41 305.003 387.122 304.876 386.823 304.788L384.278 303.921C382.139 303.188 378.866 302.143 374.844 301.143C370.111 299.848 365.254 299.103 360.363 298.921C354.327 298.724 348.33 299.987 342.844 302.61C337.392 305.38 332.879 309.804 329.903 315.298C327.493 319.718 325.672 324.458 324.491 329.386C323.4 333.564 322.801 337.008 322.352 339.364C322.159 340.564 322.031 341.475 321.945 342.119C321.883 342.471 321.861 342.829 321.881 343.186Z" fill="#455A64"/>
<path d="M307.207 348.297C307.357 348.297 306.993 345.297 306.63 340.497C305.938 334.283 306.604 327.986 308.576 322.076C309.735 318.891 311.621 316.046 314.074 313.787C316.003 312.004 318.327 310.744 320.839 310.12C323.351 309.496 325.972 309.526 328.469 310.21C328.469 310.21 328.32 310.099 327.999 309.943C327.536 309.737 327.056 309.573 326.566 309.454C324.726 309.039 322.822 309.039 320.983 309.454C318.231 310.011 315.661 311.288 313.517 313.165C310.912 315.486 308.911 318.451 307.699 321.787C305.651 327.82 305.056 334.282 305.966 340.608C306.223 343.03 306.523 345.052 306.758 346.297C306.827 346.98 306.978 347.652 307.207 348.297Z" fill="#455A64"/>
<path d="M391.059 429.293C391.315 429.293 391.401 428.604 391.272 427.871C391.144 427.137 390.802 426.582 390.545 426.649C390.288 426.715 390.203 427.337 390.353 428.071C390.502 428.804 390.802 429.337 391.059 429.293Z" fill="#EB996E"/>
<path d="M380.149 426.915C380.406 426.915 380.727 426.715 380.855 426.271C380.984 425.826 380.855 425.426 380.663 425.338C380.47 425.249 380.107 425.538 379.978 425.96C379.85 426.382 379.914 426.826 380.149 426.915Z" fill="#EB996E"/>
<path d="M385.689 433.759C385.946 433.759 386.203 433.226 386.288 432.493C386.374 431.759 386.288 431.159 385.925 431.115C385.561 431.071 385.411 431.671 385.347 432.404C385.283 433.137 385.433 433.737 385.689 433.759Z" fill="#EB996E"/>
<path d="M399.444 432.448C399.679 432.448 399.722 431.715 399.444 430.982C399.166 430.248 398.866 429.737 398.609 429.804C398.353 429.871 398.331 430.537 398.609 431.271C398.888 432.004 399.187 432.515 399.444 432.448Z" fill="#EB996E"/>
<path d="M326.886 426.649C327.143 426.649 327.4 426.182 327.464 425.515C327.528 424.849 327.464 424.315 327.122 424.271C326.779 424.226 326.608 424.76 326.544 425.404C326.48 426.049 326.608 426.626 326.886 426.649Z" fill="#EB996E"/>
<path d="M316.683 426.382C316.94 426.382 317.154 425.782 317.154 425.071C317.154 424.36 316.94 423.738 316.683 423.738C316.426 423.738 316.213 424.338 316.213 425.071C316.213 425.804 316.426 426.382 316.683 426.382Z" fill="#EB996E"/>
<path d="M308.234 425.849C308.49 425.849 308.811 425.338 308.961 424.627C309.111 423.915 308.961 423.249 308.747 423.204C308.533 423.16 308.17 423.693 308.041 424.427C307.913 425.16 307.977 425.782 308.234 425.849Z" fill="#EB996E"/>
<path d="M321.496 435.337C321.753 435.337 321.795 434.626 321.496 433.893C321.196 433.159 320.897 432.626 320.662 432.715C320.426 432.804 320.384 433.448 320.662 434.159C320.94 434.87 321.261 435.426 321.496 435.337Z" fill="#EB996E"/>
<path d="M311.913 434.026C312.17 434.026 312.426 433.626 312.491 433.048C312.555 432.471 312.491 431.959 312.148 431.937C311.806 431.915 311.635 432.337 311.571 432.915C311.507 433.493 311.656 434.004 311.913 434.026Z" fill="#EB996E"/>
<path d="M379.08 407.938C378.947 409.458 379.392 410.971 380.32 412.155C381.247 413.338 382.583 414.098 384.042 414.271C384.75 414.391 385.474 414.362 386.17 414.186C386.867 414.011 387.523 413.692 388.099 413.249C388.675 412.805 389.16 412.247 389.525 411.606C389.89 410.965 390.128 410.254 390.224 409.516C390.357 408 389.915 406.49 388.992 405.307C388.069 404.124 386.738 403.362 385.283 403.183C384.574 403.06 383.848 403.087 383.149 403.261C382.45 403.435 381.791 403.753 381.212 404.197C380.634 404.64 380.147 405.2 379.781 405.843C379.414 406.486 379.176 407.198 379.08 407.938Z" fill="#263238"/>
<path d="M322.972 409.161C322.834 410.678 323.274 412.191 324.197 413.375C325.121 414.56 326.455 415.32 327.913 415.494C328.621 415.613 329.344 415.584 330.041 415.409C330.738 415.233 331.394 414.914 331.97 414.471C332.546 414.028 333.031 413.469 333.396 412.828C333.761 412.187 333.999 411.476 334.095 410.738C334.233 409.221 333.793 407.708 332.869 406.523C331.946 405.339 330.612 404.579 329.154 404.405C328.446 404.283 327.721 404.309 327.023 404.484C326.325 404.658 325.668 404.977 325.092 405.42C324.515 405.864 324.03 406.424 323.666 407.066C323.301 407.709 323.065 408.421 322.972 409.161Z" fill="#263238"/>
<path d="M274.33 574.264L203.74 646.216H366.994C366.994 646.216 375.55 631.861 391.358 633.061C407.166 634.261 478.204 654.704 499.595 651.06L480.878 571.286C480.878 571.286 424.364 554.265 392.192 560.709C383.309 562.534 375.131 567.014 368.663 573.597L274.33 574.264Z" fill="#FAFAFA"/>
<path d="M274.33 574.264H275.335H278.265L289.774 574.108L333.197 573.641L363.957 573.353H368.235H368.769C368.256 573.575 368.662 573.353 368.555 573.353L368.769 572.864L369.561 572.086C370.117 571.597 370.63 571.086 371.208 570.597C373.496 568.619 375.96 566.87 378.566 565.375C384.052 562.195 390.111 560.228 396.363 559.598C402.942 558.781 409.579 558.58 416.193 558.998C422.973 559.287 429.925 560.087 437.006 561.22C451.809 563.473 466.461 566.687 480.878 570.842H481.156V571.153C486.996 595.929 493.327 622.861 499.916 650.904L500.065 651.549H499.466C497.217 651.838 494.952 651.971 492.686 651.949H489.285L485.883 651.682C483.595 651.527 481.327 651.26 479.06 650.949C476.792 650.638 474.482 650.371 472.193 649.993C463.038 648.549 453.797 646.727 444.514 644.749C430.396 641.772 416.578 638.438 402.952 635.616C396.171 634.372 389.283 632.461 382.802 634.505C376.44 636.533 370.943 640.769 367.229 646.505L367.058 646.771H366.78L203.526 646.616H202.585L203.27 645.927L255.399 593.329L269.495 579.13L273.153 575.486L274.415 574.264L273.196 575.597L269.581 579.352L255.613 593.729L204.018 646.505L203.74 645.816L366.994 645.66L366.523 645.927C370.362 639.928 376.085 635.498 382.716 633.394C386.093 632.432 389.623 632.197 393.091 632.705C396.556 633.105 399.957 633.816 403.38 634.483C417.027 637.305 430.845 640.638 444.963 643.616C454.225 645.594 463.445 647.416 472.578 648.838C474.846 649.238 477.135 649.549 479.402 649.816C481.669 650.082 483.915 650.393 486.183 650.527L489.541 650.816H492.9C495.108 650.854 497.316 650.735 499.509 650.46L499.06 651.149C492.493 623.106 486.226 596.174 480.386 571.375L480.728 571.753C466.368 567.593 451.773 564.365 437.027 562.086C429.968 561.02 423.059 560.22 416.3 559.864C409.737 559.443 403.151 559.629 396.62 560.42C390.47 561.019 384.505 562.933 379.101 566.042C376.539 567.512 374.112 569.223 371.85 571.153C371.294 571.619 370.78 572.13 370.224 572.619L369.454 573.375L369.069 573.753C368.941 573.753 369.304 573.753 368.748 573.908H364.063L333.368 574.064L289.966 574.219H275.442L274.33 574.264Z" fill="#263238"/>
<path d="M366.908 646.194C366.588 646.194 366.908 629.839 367.4 609.706C367.892 589.574 368.705 573.219 369.005 573.242C369.304 573.264 369.005 589.574 368.513 609.729C368.021 629.883 367.208 646.194 366.908 646.194Z" fill="#263238"/>
<path d="M344.406 632.461C343.548 630.465 342.197 628.74 340.491 627.461C338.454 625.956 336.1 624.98 333.625 624.617C330.301 624.192 326.933 624.342 323.657 625.061C303.698 629.584 283.214 631.081 262.843 629.505L261.559 629.394L262.543 628.528C271.378 620.681 281.442 614.465 292.298 610.151C299.878 607.133 307.777 605.059 315.828 603.973C317.774 603.729 319.699 603.507 321.624 603.373C323.593 603.026 325.615 603.226 327.486 603.951C327.995 604.187 328.437 604.557 328.767 605.025C329.098 605.492 329.305 606.041 329.368 606.618C329.398 607.175 329.31 607.732 329.11 608.251C328.911 608.769 328.605 609.235 328.213 609.618C326.783 610.9 325.126 611.881 323.336 612.506C316.948 615.175 310.046 616.248 303.186 615.639C300.093 615.38 297.038 614.769 294.073 613.817C292.659 613.387 291.279 612.845 289.945 612.195C288.654 611.549 287.47 610.694 286.437 609.662C285.368 608.696 284.62 607.406 284.298 605.973C284.177 605.283 284.192 604.575 284.343 603.891C284.494 603.207 284.777 602.562 285.175 601.996C286.782 600.192 288.765 598.794 290.972 597.907C294.298 596.251 297.72 594.811 301.218 593.596C304.106 592.596 306.394 591.996 307.934 591.618C308.726 591.418 309.303 591.285 309.71 591.218C309.915 591.184 310.125 591.184 310.33 591.218C310.14 591.313 309.939 591.38 309.731 591.418L307.999 591.929C306.458 592.374 304.212 593.063 301.367 594.152C297.915 595.429 294.537 596.912 291.25 598.596C289.156 599.46 287.277 600.805 285.752 602.529C285.417 603.016 285.18 603.568 285.055 604.152C284.93 604.736 284.92 605.34 285.025 605.929C285.324 607.199 285.997 608.341 286.95 609.195C287.933 610.152 289.051 610.946 290.266 611.551C291.565 612.148 292.901 612.652 294.266 613.062C297.183 613.981 300.188 614.563 303.228 614.795C309.935 615.352 316.675 614.272 322.908 611.64C324.553 611.052 326.077 610.147 327.4 608.973C327.699 608.697 327.934 608.353 328.086 607.968C328.238 607.582 328.303 607.166 328.277 606.751C328.23 606.361 328.085 605.992 327.855 605.679C327.626 605.367 327.321 605.123 326.972 604.973C325.266 604.34 323.43 604.179 321.646 604.507C319.763 604.64 317.838 604.862 315.913 605.129C307.976 606.203 300.191 608.262 292.726 611.262C281.979 615.521 272.011 621.653 263.249 629.394L262.95 628.417C283.231 630.025 303.63 628.671 323.55 624.395C326.902 623.691 330.345 623.585 333.732 624.083C336.267 624.504 338.668 625.556 340.726 627.15C342.006 628.149 343.064 629.422 343.828 630.883C344.096 631.376 344.291 631.908 344.406 632.461Z" fill="#263238"/>
<path d="M492.835 650.638C492.835 650.638 492.985 650.816 493.178 651.194C493.37 651.571 493.691 652.238 494.055 652.927C494.825 654.571 495.916 656.816 497.263 659.593L497.413 659.882L497.092 659.993C488.59 662.669 479.751 664.01 470.867 663.971C458.122 663.878 445.537 661.008 433.925 655.549C424.556 651.105 416.021 646.238 407.722 643.15C400.478 640.119 392.667 638.835 384.876 639.394C379.628 639.865 374.569 641.657 370.138 644.616C368.547 645.743 367.039 646.991 365.625 648.349C366.818 646.738 368.264 645.348 369.903 644.238C374.35 641.059 379.503 639.109 384.876 638.572C392.796 637.894 400.759 639.118 408.15 642.15C416.577 645.238 425.155 650.171 434.46 654.482C445.941 659.887 458.371 662.776 470.974 662.971C479.721 663.089 488.441 661.93 496.878 659.526L496.707 659.926C495.445 657.015 494.461 654.749 493.712 653.06C493.434 652.349 493.178 651.771 492.985 651.282C492.902 651.078 492.851 650.86 492.835 650.638Z" fill="#263238"/>
<path d="M400.15 609.107C399.123 601.229 398.837 593.266 399.294 585.33C400.32 593.208 400.607 601.171 400.15 609.107Z" fill="#263238"/>
<path d="M422.246 623.328C420.59 622.41 419.002 621.362 417.498 620.195C413.737 617.614 409.854 615.234 405.861 613.062C401.176 610.529 396.791 608.618 393.561 607.218C391.78 606.627 390.048 605.884 388.385 604.996C390.253 605.268 392.084 605.768 393.839 606.485C398.151 608.011 402.342 609.883 406.374 612.084C410.421 614.245 414.298 616.735 417.968 619.528C419.541 620.605 420.979 621.881 422.246 623.328Z" fill="#263238"/>
<path d="M457.584 606.373C451.868 609.681 445.976 612.648 439.936 615.262C434.049 618.231 428.008 620.857 421.84 623.128C427.558 619.826 433.45 616.859 439.487 614.24C445.369 611.259 451.411 608.633 457.584 606.373Z" fill="#263238"/>
<path d="M443.637 610.951C443.152 605.626 443.038 600.272 443.294 594.93C443.179 589.577 443.429 584.223 444.043 578.908C444.53 584.233 444.651 589.587 444.407 594.93C444.509 600.282 444.251 605.636 443.637 610.951Z" fill="#263238"/>
<path d="M435.08 621.928C434.76 621.928 434.417 621.062 434.289 619.928C434.161 618.795 434.289 617.84 434.631 617.706C434.974 617.573 435.273 618.573 435.401 619.706C435.53 620.839 435.423 621.884 435.08 621.928Z" fill="#263238"/>
<path d="M438.524 621.461C438.225 621.461 437.883 620.173 437.776 618.528C437.669 616.884 437.776 615.551 438.118 615.506C438.46 615.462 438.781 616.817 438.888 618.462C438.995 620.106 438.845 621.439 438.524 621.461Z" fill="#263238"/>
<path d="M437.391 627.417C437.519 627.417 437.776 628.595 438.803 630.328C439.099 630.824 439.495 631.248 439.964 631.57C440.433 631.893 440.964 632.106 441.519 632.194C441.831 632.235 442.147 632.193 442.439 632.073C442.73 631.952 442.988 631.757 443.188 631.506C443.419 631.265 443.57 630.955 443.62 630.62C443.67 630.284 443.616 629.941 443.466 629.639L444.257 629.15C444.847 630.103 445.621 630.917 446.531 631.541C447.441 632.164 448.466 632.584 449.541 632.772C450.753 633.015 452.005 632.923 453.172 632.506C454.34 632.088 455.381 631.361 456.193 630.395C457.303 629.183 457.998 627.626 458.172 625.964C458.346 624.301 457.989 622.626 457.156 621.195C456.402 619.979 455.233 619.106 453.883 618.751C452.672 618.462 451.415 618.462 450.204 618.751C448.417 619.254 446.729 620.081 445.22 621.195C444.668 621.637 444.073 622.017 443.444 622.328C443.444 622.328 443.915 621.706 444.963 620.839C446.437 619.527 448.156 618.544 450.011 617.951C451.345 617.58 452.743 617.534 454.097 617.817C455.699 618.196 457.1 619.198 458.011 620.617C459.013 622.157 459.466 624.012 459.295 625.861C459.11 627.844 458.306 629.709 457.006 631.172C456.069 632.279 454.868 633.11 453.524 633.582C452.18 634.054 450.74 634.15 449.348 633.861C448.135 633.631 446.984 633.136 445.969 632.408C444.955 631.68 444.102 630.736 443.466 629.639L444.257 629.128C444.494 629.605 444.579 630.147 444.503 630.677C444.426 631.208 444.19 631.7 443.829 632.083C443.53 632.398 443.161 632.633 442.755 632.768C442.349 632.904 441.918 632.936 441.498 632.861C440.846 632.746 440.228 632.475 439.694 632.071C439.159 631.666 438.722 631.138 438.418 630.528C438.04 629.79 437.752 629.006 437.562 628.195C437.369 627.728 437.348 627.439 437.391 627.417Z" fill="#263238"/>
<path d="M476.258 618.484C476.258 618.484 476.6 618.173 477.37 618.173C477.906 618.217 478.426 618.38 478.895 618.653C479.364 618.925 479.77 619.299 480.087 619.751C480.616 620.414 480.949 621.223 481.044 622.079C481.139 622.935 480.992 623.801 480.621 624.572C480.102 625.459 479.369 626.189 478.495 626.692C477.621 627.194 476.636 627.452 475.637 627.439C474.645 627.455 473.664 627.218 472.781 626.75C471.897 626.281 471.137 625.594 470.568 624.75C470.069 624.067 469.771 623.248 469.71 622.392C469.649 621.536 469.828 620.681 470.226 619.928C470.479 619.433 470.831 619 471.259 618.659C471.687 618.318 472.181 618.076 472.707 617.951C473.456 617.817 473.862 617.951 473.841 617.951C473.819 617.951 473.434 617.951 472.814 618.262C471.977 618.649 471.302 619.335 470.91 620.195C470.652 620.82 470.564 621.507 470.654 622.18C470.745 622.854 471.011 623.489 471.423 624.017C471.908 624.722 472.551 625.292 473.297 625.68C474.043 626.067 474.868 626.259 475.702 626.239C476.511 626.259 477.312 626.066 478.031 625.678C478.749 625.289 479.361 624.718 479.809 624.017C480.115 623.423 480.253 622.751 480.207 622.079C480.162 621.406 479.935 620.761 479.552 620.217C479.065 619.412 478.3 618.831 477.413 618.595C476.664 618.484 476.279 618.595 476.258 618.484Z" fill="#263238"/>
<path d="M474.675 614.151C474.375 614.151 474.033 612.64 473.905 610.751C473.776 608.862 473.905 607.307 474.226 607.284C474.546 607.262 474.889 608.773 475.017 610.684C475.145 612.595 474.996 614.129 474.675 614.151Z" fill="#263238"/>
<path d="M476.065 634.261C475.766 634.261 475.509 633.15 475.509 631.75C475.509 630.35 475.766 629.239 476.065 629.239C476.365 629.239 476.621 630.372 476.621 631.75C476.621 633.128 476.386 634.261 476.065 634.261Z" fill="#263238"/>
<path d="M469.028 626.039C469.242 626.261 468.258 627.75 466.782 629.395C465.306 631.039 463.958 632.194 463.744 631.972C463.53 631.75 464.514 630.261 465.883 628.617C467.252 626.972 468.792 625.817 469.028 626.039Z" fill="#263238"/>
<path d="M487.466 630.639C487.295 630.906 486.097 630.372 484.792 629.439C483.488 628.506 482.546 627.55 482.653 627.217C482.76 626.884 484.022 627.506 485.349 628.417C486.675 629.328 487.637 630.417 487.466 630.639Z" fill="#263238"/>
<path d="M487.53 619.173C487.53 619.484 486.696 620.039 485.391 620.417C484.087 620.795 483.124 620.861 483.038 620.55C482.953 620.239 483.851 619.684 485.178 619.306C486.504 618.928 487.424 618.862 487.53 619.173Z" fill="#263238"/>
<path d="M484.087 611.484C484.343 611.684 483.83 612.751 482.974 613.884C482.119 615.017 481.199 615.751 480.964 615.551C480.728 615.351 481.22 614.284 482.097 613.151C482.974 612.018 483.851 611.284 484.087 611.484Z" fill="#263238"/>
<path d="M469.07 615.906C468.899 616.173 467.787 615.773 466.589 615.017C465.391 614.262 464.45 613.417 464.664 613.129C464.878 612.84 465.947 613.262 467.167 614.017C468.386 614.773 469.306 615.617 469.07 615.906Z" fill="#263238"/>
<path d="M465.028 619.639C465.028 619.95 464.022 620.217 462.889 620.217C461.755 620.217 460.75 619.95 460.75 619.639C460.75 619.328 461.733 619.062 462.889 619.062C464.044 619.062 465.028 619.306 465.028 619.639Z" fill="#263238"/>
<path d="M425.883 580.752C426.046 582.37 426.046 584.001 425.883 585.619C425.754 588.641 425.519 592.841 425.177 597.596V598.152H424.642L422.011 598.04L414.952 597.663H414.439V597.152C414.439 593.552 414.439 590.485 414.588 588.263C414.542 587.115 414.636 585.965 414.866 584.841C415.13 585.96 415.245 587.112 415.209 588.263C415.316 590.485 415.401 593.485 415.465 597.152L414.973 596.618L422.054 596.907L424.685 597.04L424.107 597.552C424.471 592.796 424.856 588.663 425.177 585.597C425.23 583.959 425.467 582.333 425.883 580.752Z" fill="#263238"/>
<path d="M470.803 586.53C463.538 586.378 456.307 585.462 449.22 583.797C452.859 583.658 456.502 583.926 460.086 584.597C463.712 584.868 467.302 585.515 470.803 586.53Z" fill="#263238"/>
<path d="M396.364 587.93C390.211 588.634 384.001 588.581 377.861 587.774C380.917 587.222 384.027 587.051 387.123 587.263C390.218 587.093 393.321 587.316 396.364 587.93Z" fill="#263238"/>
<path d="M480.45 522.688L443.637 531.088C443.637 531.088 432.749 522.333 428.064 522.066C423.38 521.8 406.289 522.066 406.289 522.066C406.289 522.066 389.176 535.688 389.176 539.043C389.4 541.733 390.127 544.353 391.315 546.754C391.315 546.754 388.77 548.621 390.288 555.531C391.807 562.442 393.048 562.931 393.048 562.931C393.048 562.931 389.818 569.375 393.775 571.93C397.614 573.955 401.691 575.449 405.903 576.375L418.353 574.153C413.818 575.086 450.418 572.864 452.193 566.197H495.766C499.723 546.554 499.809 528.155 480.45 522.688Z" fill="#FFBE9D"/>
<path d="M415.102 536.243C410.867 537.139 406.715 538.418 402.695 540.065C398.83 542.071 395.074 544.297 391.444 546.732C392.209 545.638 393.159 544.697 394.246 543.954C396.711 541.967 399.397 540.296 402.246 538.976C406.233 536.929 410.661 535.987 415.102 536.243Z" fill="#EB996E"/>
<path d="M418.503 548.021C418.503 548.354 412.085 549.665 404.406 551.709C400.513 552.709 397.048 553.754 394.567 554.642C393.266 555.231 391.921 555.707 390.545 556.065C391.655 555.098 392.923 554.345 394.288 553.842C402.047 550.69 410.202 548.714 418.503 547.976V548.021Z" fill="#EB996E"/>
<path d="M415.423 562.998C411.707 563.159 407.986 563.092 404.278 562.798C398.16 562.575 393.241 563.242 393.176 562.931C396.768 561.751 400.546 561.314 404.3 561.642C408.05 561.544 411.796 562 415.423 562.998Z" fill="#EB996E"/>
<path d="M455.808 549.932C456.259 551.05 456.485 552.252 456.471 553.465C456.711 556.412 456.354 559.38 455.423 562.175C454.886 563.725 454.097 565.168 453.092 566.442C452.26 567.477 451.27 568.363 450.161 569.064C449.188 569.774 448.052 570.204 446.867 570.308C446.867 570.108 448.065 569.642 449.733 568.375C450.702 567.638 451.566 566.762 452.3 565.775C453.203 564.562 453.925 563.213 454.439 561.775C455.312 559.106 455.76 556.306 455.765 553.487C455.645 552.304 455.659 551.111 455.808 549.932Z" fill="#EB996E"/>
<path d="M295.678 566.886C295.678 566.886 293.282 576.819 306.715 576.197L308.191 549.22C308.191 549.22 307.614 539.31 293.881 540.865L291.186 552.331C292.875 554.018 294.113 556.131 294.779 558.464C295.219 561.254 295.519 564.065 295.678 566.886Z" fill="#FFBE9D"/>
<path d="M247.72 510.645L301.025 578.686L316.341 584.063L312.876 566.686L260.853 499.067C259.954 497.872 258.778 496.932 257.436 496.334C256.094 495.736 254.628 495.499 253.174 495.645H252.982C251.43 495.895 249.971 496.572 248.758 497.607C247.544 498.642 246.62 499.997 246.083 501.529C245.545 503.062 245.413 504.716 245.701 506.319C245.989 507.923 246.686 509.416 247.72 510.645Z" fill="#455A64"/>
<path d="M247.912 511.045C247.784 511.045 248.04 509.911 248.875 508.356C250.019 506.357 251.548 504.624 253.366 503.267C255.184 501.91 257.253 500.957 259.442 500.467C260.326 500.165 261.275 500.127 262.18 500.356C259.3 501.246 256.551 502.539 254.008 504.2C251.674 506.169 249.621 508.474 247.912 511.045Z" fill="#263238"/>
<path d="M301.025 578.73C301.025 578.73 299.956 577.997 299.785 575.886C299.786 575.59 299.836 575.297 299.934 575.019L300.212 574.286C300.798 572.347 302.026 570.686 303.678 569.597C304.715 568.775 305.809 568.032 306.95 567.375C307.915 566.813 308.976 566.451 310.073 566.309C311.977 566.086 313.068 566.731 313.004 566.842C312.94 566.953 311.87 566.709 310.202 567.131C309.23 567.355 308.304 567.754 307.464 568.309C306.501 568.953 305.325 569.686 304.362 570.531C303.367 571.261 302.498 572.163 301.795 573.197C301.517 573.686 301.282 574.197 301.047 574.686L300.726 575.397C300.644 575.571 300.593 575.76 300.576 575.953C300.512 577.597 301.218 578.664 301.025 578.73Z" fill="#263238"/>
<path d="M303.228 571.308C302.993 571.508 291.399 556.887 277.324 538.643C263.249 520.4 252.062 505.467 252.297 505.311C252.532 505.156 264.126 519.733 278.201 537.954C292.276 556.176 303.464 571.108 303.228 571.308Z" fill="#263238"/>
<path d="M308.876 565.686C308.64 565.886 297.218 551.665 283.378 533.91C269.538 516.155 258.522 501.578 258.757 501.378C258.992 501.178 270.415 515.4 284.255 533.177C298.095 550.954 309.025 565.486 308.876 565.686Z" fill="#263238"/>
<path d="M314.801 576.375C314.056 576.182 313.278 576.18 312.532 576.37C311.787 576.56 311.097 576.935 310.523 577.464C309.989 577.999 309.587 578.66 309.352 579.392C309.118 580.123 309.057 580.902 309.175 581.663L316.277 584.108L314.801 576.375Z" fill="#263238"/>
<path d="M221.174 527.688L248.682 536.91C248.682 536.91 260.768 526.355 265.474 526.088L281.388 525.266C281.388 525.266 301.068 538.888 301.068 542.221C300.844 544.911 300.117 547.53 298.929 549.932C298.929 549.932 304.341 552.154 303.207 556.887C302.863 558.438 302.108 559.857 301.026 560.985C299.945 562.112 298.581 562.902 297.089 563.264C297.089 563.264 300.405 572.553 296.448 575.108C292.609 577.135 288.532 578.629 284.319 579.552C284.319 579.552 277.153 585.463 272.447 584.952C267.741 584.441 244.233 582.886 241.516 578.286L212.938 571.086L191.227 565.442C191.227 565.442 182.906 554.198 195.719 540.599C202.454 533.284 211.48 528.706 221.174 527.688Z" fill="#FFBE9D"/>
<path d="M300.084 540.599C296.097 539.374 292.039 538.416 287.934 537.732C283.789 537.445 279.63 537.445 275.485 537.732C279.561 536.481 283.836 536.088 288.061 536.576C292.285 537.065 296.373 538.425 300.084 540.576V540.599Z" fill="#EB996E"/>
<path d="M298.758 549.932C298.758 550.198 294.308 549.265 288.854 548.465C286.53 548.111 284.186 547.918 281.838 547.887C280.041 547.887 279.035 548.287 278.95 548.154C278.864 548.021 279.912 547.265 281.795 547.065C284.199 546.846 286.62 546.936 289.004 547.332C294.544 548.132 298.993 549.576 298.758 549.932Z" fill="#EB996E"/>
<path d="M296.918 563.264C296.811 563.487 293.239 562.664 288.64 562.264C284.041 561.864 280.404 561.887 280.34 561.642C280.276 561.398 284.105 560.598 288.747 561.109C293.389 561.62 297.068 562.887 296.918 563.264Z" fill="#EB996E"/>
<path d="M191.227 565.442C191.544 565.47 191.858 565.522 192.168 565.598L194.863 566.22L205.088 568.664L241.452 577.708H241.623L241.752 577.908C242.871 579.068 244.278 579.883 245.816 580.263C247.47 580.81 249.157 581.248 250.864 581.575C254.329 582.308 257.987 582.797 261.752 583.241C265.517 583.686 269.474 584.063 273.281 584.286C275.2 584.028 277.052 583.386 278.736 582.397C280.509 581.403 282.204 580.266 283.806 578.997H283.913H284.041C286.541 578.407 289.005 577.665 291.421 576.775C292.786 576.309 294.11 575.721 295.378 575.019C295.968 574.738 296.476 574.3 296.851 573.75C297.227 573.2 297.456 572.557 297.517 571.886C297.779 569.034 297.398 566.159 296.405 563.486L296.191 562.864L296.811 562.709C298.19 562.372 299.45 561.642 300.452 560.602C301.453 559.562 302.155 558.252 302.48 556.82C302.656 556.158 302.682 555.462 302.556 554.787C302.43 554.112 302.155 553.477 301.752 552.931C300.908 551.842 299.811 550.994 298.565 550.465L298.03 550.22L298.287 549.687C298.978 548.262 299.544 546.774 299.977 545.243C300.191 544.519 300.335 543.775 300.405 543.021C300.445 542.689 300.445 542.353 300.405 542.021C300.305 541.714 300.153 541.428 299.956 541.176C298.086 538.944 295.992 536.925 293.71 535.155C289.303 531.555 285.004 528.488 281.025 525.577H281.26L266.287 526.266C264.279 526.359 262.33 527.003 260.64 528.133C259.17 528.991 257.742 529.926 256.361 530.933C253.795 532.732 251.869 534.243 250.565 535.266L249.089 536.421C248.746 536.688 248.575 536.821 248.554 536.799C248.532 536.777 248.682 536.621 249.003 536.332L250.415 535.066C251.677 533.977 253.559 532.399 256.083 530.621C257.367 529.688 258.8 528.666 260.362 527.688C262.117 526.488 264.146 525.79 266.244 525.666L281.217 524.799H281.346C285.389 527.599 289.71 530.71 294.18 534.332C296.531 536.149 298.683 538.228 300.597 540.532C300.86 540.895 301.063 541.3 301.196 541.732C301.235 541.975 301.235 542.223 301.196 542.465C301.207 542.673 301.207 542.88 301.196 543.087C301.103 543.907 300.946 544.717 300.726 545.51C300.286 547.091 299.699 548.624 298.972 550.087L298.694 549.332C300.138 549.93 301.406 550.911 302.373 552.176C302.866 552.851 303.205 553.634 303.364 554.466C303.524 555.297 303.499 556.156 303.293 556.976C302.904 558.604 302.088 560.089 300.936 561.266C299.785 562.442 298.342 563.265 296.768 563.642L297.196 562.887C298.266 565.756 298.676 568.845 298.394 571.908C298.253 572.704 297.954 573.461 297.517 574.13C297.043 574.816 296.41 575.366 295.677 575.73C294.354 576.471 292.973 577.095 291.549 577.597C289.087 578.477 286.58 579.219 284.041 579.819L284.255 579.686C282.614 581.019 280.86 582.194 279.014 583.197C277.195 584.271 275.188 584.958 273.11 585.219C268.982 584.997 265.217 584.552 261.388 584.13C257.559 583.708 253.944 583.152 250.415 582.419C248.678 582.067 246.964 581.607 245.281 581.041C243.518 580.597 241.923 579.614 240.703 578.219L241.003 578.441L204.639 568.997L194.5 566.264L191.847 565.509C191.639 565.498 191.432 565.476 191.227 565.442Z" fill="#EB996E"/>
</svg>
