<svg width="320" height="320" viewBox="0 0 320 320" fill="none" xmlns="http://www.w3.org/2000/svg">
<rect width="320" height="320" rx="160" fill="#CAE6FF"/>
<path d="M160 160C168.911 160 177.458 156.46 183.759 150.159C190.06 143.858 193.6 135.311 193.6 126.4C193.6 117.489 190.06 108.942 183.759 102.641C177.458 96.34 168.911 92.8 160 92.8C151.089 92.8 142.542 96.34 136.241 102.641C129.94 108.942 126.4 117.489 126.4 126.4C126.4 135.311 129.94 143.858 136.241 150.159C142.542 156.46 151.089 160 160 160ZM148.004 172.6C122.147 172.6 101.2 193.547 101.2 219.404C101.2 223.709 104.691 227.2 108.996 227.2H211.004C215.309 227.2 218.8 223.709 218.8 219.404C218.8 193.547 197.852 172.6 171.996 172.6H148.004Z" fill="#4BA8FF"/>
</svg>
