<svg width="48" height="48" viewBox="0 0 48 48" fill="none" xmlns="http://www.w3.org/2000/svg">
<rect width="48" height="48" rx="24" transform="matrix(-1 0 0 1 48 0)" fill="#CAE6FF"/>
<path d="M24 23.9999C22.6633 23.9999 21.3814 23.4689 20.4362 22.5237C19.491 21.5786 18.96 20.2966 18.96 18.9599C18.96 17.6232 19.491 16.3413 20.4362 15.3961C21.3814 14.4509 22.6633 13.9199 24 13.9199C25.3367 13.9199 26.6186 14.4509 27.5638 15.3961C28.509 16.3413 29.04 17.6232 29.04 18.9599C29.04 20.2966 28.509 21.5786 27.5638 22.5237C26.6186 23.4689 25.3367 23.9999 24 23.9999ZM25.7994 25.8899C29.6779 25.8899 32.82 29.032 32.82 32.9105C32.82 33.5562 32.2963 34.0799 31.6506 34.0799H16.3494C15.7037 34.0799 15.18 33.5562 15.18 32.9105C15.18 29.032 18.3221 25.8899 22.2006 25.8899H25.7994Z" fill="#4BA8FF"/>
</svg>
