<svg width="80" height="58" viewBox="0 0 80 58" fill="none" xmlns="http://www.w3.org/2000/svg">
<path d="M77.037 8.13149C77.037 6.44323 75.6765 5.07462 73.9982 5.07462C73.8254 5.07462 73.6559 5.08914 73.4909 5.11703C72.8377 4.52466 71.9728 4.16406 71.0241 4.16406C68.9887 4.16406 67.3387 5.82386 67.3387 7.87133C67.3387 9.9188 68.9887 11.5786 71.0241 11.5786C71.1913 11.5786 71.3559 11.5674 71.5173 11.5457C71.9441 14.0432 71.5894 15.9331 70.9082 17.3511C70.0465 19.145 68.6624 20.1838 67.6774 20.7424C68.0367 20.8913 68.3878 21.1053 68.7103 21.3835C69.2552 21.8536 69.6325 22.433 69.8229 23.024C70.9005 22.4038 71.775 21.5572 72.4734 20.5846C74.5791 17.6517 75.0826 13.5729 74.7205 11.1015C76.0501 10.7754 77.037 9.5694 77.037 8.13149Z" fill="#F0F8FF"/>
<path fill-rule="evenodd" clip-rule="evenodd" d="M19.241 10.1431C15.251 10.1431 12.0165 12.9641 12.0165 16.444C12.0165 16.6708 12.0302 16.8948 12.057 17.1154C10.9386 17.2721 9.89823 17.6739 8.99125 18.2651C8.36381 18.6742 7.8002 19.1738 7.31875 19.7457C6.19886 21.076 5.52354 22.797 5.52354 24.6767C5.52354 27.0955 6.64183 29.2516 8.38672 30.6504C6.18758 31.5439 4.60905 33.9887 4.60905 36.8647C4.60905 40.497 7.12706 43.4416 10.2332 43.4416C10.5928 43.4416 10.9445 43.4021 11.2854 43.3267C11.285 43.3496 11.2849 43.3726 11.2849 43.3956C11.2849 46.6215 14.8265 49.2366 19.1952 49.2366C20.669 49.2366 22.0487 48.939 23.23 48.4208C24.6134 51.0728 27.6711 52.916 31.2208 52.916C32.7718 52.916 34.2288 52.5641 35.4933 51.9467C37.2471 53.1117 39.7038 53.8359 42.4234 53.8359C46.0116 53.8359 49.1423 52.5752 50.8045 50.7046C51.535 50.9459 52.3141 51.0763 53.123 51.0763C55.7063 51.0763 57.9864 49.7466 59.3463 47.719C60.1543 47.9297 60.9943 48.0408 61.8564 48.0408C66.5515 48.0408 70.5907 44.7455 72.3862 40.0184C75.246 38.1024 77.037 35.3587 77.037 32.3114C77.037 30.1895 76.1687 28.2149 74.6758 26.5644C74.7253 26.247 74.7508 25.924 74.7508 25.5965C74.7508 23.7039 73.8996 21.963 72.4734 20.5846C71.775 21.5572 70.9005 22.4038 69.8229 23.024C69.6325 22.433 69.2552 21.8536 68.7103 21.3835C68.3878 21.1053 68.0367 20.8913 67.6774 20.7424C68.6624 20.1838 70.0465 19.145 70.9082 17.3511C70.8135 13.234 66.8467 9.86774 61.7767 9.45068C60.2919 8.04839 58.3533 7.19956 56.2323 7.19956C54.9378 7.19956 53.7112 7.51575 52.6143 8.08097C49.9081 5.64282 46.3573 4.16406 42.4691 4.16406C38.4982 4.16406 34.8791 5.70644 32.1523 8.23797C31.1637 7.58162 29.9792 7.19956 28.706 7.19956C26.1177 7.19956 23.896 8.77853 22.9411 11.0311C21.8588 10.4671 20.5933 10.1431 19.241 10.1431ZM19.241 29C21.4127 29 23.1733 27.2291 23.1733 25.0446C23.1733 22.8601 21.4127 21.0893 19.241 21.0893C17.0692 21.0893 15.3086 22.8601 15.3086 25.0446C15.3086 27.2291 17.0692 29 19.241 29ZM36.0677 29C38.2394 29 40 27.2291 40 25.0446C40 22.8601 38.2394 21.0893 36.0677 21.0893C33.8959 21.0893 32.1353 22.8601 32.1353 25.0446C32.1353 27.2291 33.8959 29 36.0677 29ZM32.553 40.3897C28.9495 41.3184 26.595 37.7083 25.551 36.3128C25.4904 36.2318 25.2766 35.9448 25.3681 35.8068C25.4595 35.6689 25.7796 35.8068 25.9168 35.8528C32.0015 37.8929 34.7639 34.7031 35.7019 33.414C35.862 33.1938 35.8765 33.1393 35.9762 33.1393C36.0677 33.1393 36.0677 33.2313 36.067 33.4402C36.1006 35.5514 35.7019 39.5782 32.553 40.3897Z" fill="#F0F8FF"/>
<path d="M5.11202 7.5675C3.92513 7.5675 2.96296 8.5353 2.96296 9.72914C2.96296 10.7459 3.66092 11.5988 4.60123 11.8294C4.28987 13.9543 4.88351 17.7597 7.31875 19.7457C7.8002 19.1738 8.36381 18.6742 8.99125 18.2651C7.76821 17.3698 6.2824 15.5611 6.86657 12.1435C6.98067 12.1588 7.09709 12.1667 7.21536 12.1667C8.65479 12.1667 9.82167 10.993 9.82167 9.54517C9.82167 8.09732 8.65479 6.92361 7.21536 6.92361C6.54444 6.92361 5.93273 7.1786 5.47079 7.59749C5.35412 7.57777 5.23426 7.5675 5.11202 7.5675Z" fill="#F0F8FF"/>
</svg>
