<svg width="224" height="140" viewBox="0 0 224 140" fill="none" xmlns="http://www.w3.org/2000/svg">
<path d="M0 12C0 5.37258 5.37258 0 12 0H212C218.627 0 224 5.37258 224 12V128C224 134.627 218.627 140 212 140H12C5.37258 140 0 134.627 0 128V12Z" fill="#CAE6FF"/>
<path d="M86.4 54C86.4 50.47 89.27 47.6 92.8 47.6H131.2C134.73 47.6 137.6 50.47 137.6 54V86C137.6 89.53 134.73 92.4 131.2 92.4H92.8C89.27 92.4 86.4 89.53 86.4 86V54ZM118.78 64.65C118.33 63.99 117.59 63.6 116.8 63.6C116.01 63.6 115.26 63.99 114.82 64.65L106.12 77.41L103.47 74.1C103.01 73.53 102.32 73.2 101.6 73.2C100.88 73.2 100.18 73.53 99.73 74.1L93.33 82.1C92.75 82.82 92.64 83.81 93.04 84.64C93.44 85.47 94.28 86 95.2 86H104.8H108H128.8C129.69 86 130.51 85.51 130.92 84.72C131.33 83.93 131.28 82.98 130.78 82.25L118.78 64.65ZM97.6 63.6C98.873 63.6 100.094 63.0943 100.994 62.1941C101.894 61.2939 102.4 60.073 102.4 58.8C102.4 57.527 101.894 56.3061 100.994 55.4059C100.094 54.5057 98.873 54 97.6 54C96.327 54 95.1061 54.5057 94.2059 55.4059C93.3057 56.3061 92.8 57.527 92.8 58.8C92.8 60.073 93.3057 61.2939 94.2059 62.1941C95.1061 63.0943 96.327 63.6 97.6 63.6Z" fill="#051C32"/>
</svg>
