<svg width="696" height="844" viewBox="0 0 696 844" fill="none" xmlns="http://www.w3.org/2000/svg">
<path fill-rule="evenodd" clip-rule="evenodd" d="M336.666 158.721C410.449 151.889 482.741 194.405 528.876 252.323C571.036 305.253 574.354 377.444 564.149 444.31C555.505 500.949 518.011 544.429 478.026 585.507C437.204 627.447 394.333 667.83 336.666 678.018C266.848 690.353 186.773 694.094 134.553 646.19C81.2493 597.29 73.4582 516.106 81.9068 444.31C89.4233 380.436 134.233 332.916 177.068 284.897C223.989 232.298 266.436 165.224 336.666 158.721Z" fill="#CAE6FF"/>
<path d="M182.606 666.898C182.606 665.062 195.922 606.068 210.972 588.76C226.022 571.451 396.313 602.837 396.313 602.837L413.931 666.898" fill="#263238"/>
<path d="M373.809 381.696C375.196 382.151 416.532 406.695 423.97 451.385C431.408 496.074 442.345 542.265 442.345 542.265L405.138 565.717L373.809 472V381.696Z" fill="#FFBF9D"/>
<path d="M224.572 302.996C227.566 281.167 227.361 281.88 229.977 260.992C235.083 220.444 247.911 174.404 308 177.226C308 177.226 353.259 179.182 367.348 210.295C374.912 226.982 377.371 285.051 380.365 337.279C380.421 338.132 380.596 338.974 380.885 339.782L383.785 347.655C387.567 357.971 389.837 368.744 390.529 379.663L395.099 452.204C395.176 453.385 395.01 454.57 394.61 455.69C394.21 456.81 393.584 457.842 392.769 458.729C391.953 459.615 390.964 460.338 389.858 460.856C388.751 461.373 387.55 461.676 386.322 461.745C366.071 462.868 319.835 460.79 310.899 457.771C292.6 451.48 275.919 441.478 261.985 428.442C248.051 415.406 237.189 399.64 230.135 382.211C229.173 379.86 216.062 378.783 213.604 377.888C209.49 376.417 224.004 307.153 224.572 302.996Z" fill="#263238"/>
<path d="M319.724 195.808L315.895 192.441L275.71 209.127C272.882 209.34 270.239 210.566 268.305 212.563C266.37 214.56 265.284 217.182 265.261 219.913L268.634 347.109C268.791 355.741 266.317 365.753 271.896 372.518L278.467 381.271C291.847 397.487 322.277 391.313 332.127 372.913C332.716 371.862 333.171 370.746 333.482 369.59C333.714 368.645 333.893 367.688 334.018 366.723C334.979 356.469 334.837 347.595 334.837 347.595C335.294 336.339 335.42 331.727 335.42 331.833C335.42 331.94 360.209 328.542 366.198 297.687C369.16 282.35 368.041 261.371 366.607 240.725C364.637 212.161 343.599 195.262 319.724 195.808Z" fill="#FFBF9D"/>
<path d="M313.989 261.856C313.968 262.892 313.528 263.879 312.763 264.607C311.998 265.335 310.967 265.747 309.891 265.755C309.369 265.777 308.847 265.699 308.356 265.525C307.865 265.351 307.415 265.085 307.032 264.742C306.649 264.399 306.341 263.986 306.126 263.527C305.911 263.068 305.792 262.572 305.778 262.069C305.795 261.033 306.23 260.044 306.993 259.313C307.755 258.582 308.784 258.167 309.86 258.155C310.385 258.131 310.91 258.208 311.404 258.381C311.898 258.555 312.35 258.823 312.735 259.168C313.12 259.513 313.429 259.928 313.644 260.39C313.86 260.852 313.977 261.35 313.989 261.856Z" fill="#263238"/>
<path d="M355.45 261.856C355.426 262.891 354.985 263.876 354.22 264.603C353.456 265.33 352.428 265.743 351.353 265.755C350.827 265.781 350.301 265.706 349.805 265.535C349.31 265.363 348.855 265.097 348.467 264.754C348.08 264.411 347.767 263.996 347.548 263.535C347.329 263.074 347.208 262.575 347.192 262.069C347.213 261.032 347.652 260.043 348.417 259.312C349.182 258.582 350.212 258.167 351.29 258.155C351.816 258.131 352.343 258.207 352.839 258.381C353.334 258.554 353.789 258.821 354.176 259.166C354.563 259.51 354.876 259.926 355.094 260.388C355.313 260.85 355.434 261.349 355.45 261.856Z" fill="#263238"/>
<path d="M362.51 248.932C361.99 249.433 358.933 247.127 354.489 247.021C350.045 246.914 346.736 248.962 346.263 248.431C346.026 248.189 346.578 247.263 348.028 246.308C349.985 245.074 352.293 244.459 354.631 244.548C356.915 244.609 359.122 245.362 360.934 246.702C362.384 247.749 362.825 248.704 362.51 248.932Z" fill="#263238"/>
<path d="M317.565 250.358C316.982 250.813 314.177 248.204 309.686 247.658C305.195 247.112 301.806 248.841 301.365 248.249C301.16 247.991 301.791 247.127 303.351 246.323C305.425 245.289 307.782 244.902 310.096 245.215C312.39 245.498 314.531 246.476 316.21 248.007C317.502 249.175 317.833 250.161 317.565 250.358Z" fill="#263238"/>
<path d="M333.798 281.107C333.798 280.864 336.555 280.469 341.047 280.045C342.181 279.954 343.253 279.772 343.474 279.028C343.595 277.902 343.365 276.766 342.812 275.767L339.66 267.378C335.326 255.409 332.237 245.595 332.742 245.428C333.246 245.261 337.154 254.833 341.472 266.787C342.512 269.729 343.505 272.536 344.451 275.236C345.124 276.57 345.291 278.089 344.923 279.529C344.743 279.905 344.476 280.237 344.143 280.5C343.81 280.762 343.419 280.949 343.001 281.046C342.371 281.19 341.725 281.261 341.078 281.258C336.603 281.395 333.798 281.349 333.798 281.107Z" fill="#263238"/>
<path d="M335.421 331.773C320.273 331.611 305.468 327.41 292.651 319.637C292.651 319.637 302.878 341.36 335.2 339.357L335.421 331.773Z" fill="#FF9A6C"/>
<path d="M331.623 291.361C330.808 290.315 329.729 289.487 328.487 288.956C327.246 288.425 325.884 288.208 324.531 288.327C323.548 288.382 322.586 288.629 321.705 289.055C320.825 289.48 320.043 290.074 319.41 290.8C318.796 291.496 318.42 292.357 318.332 293.267C318.245 294.176 318.45 295.089 318.921 295.882C319.616 296.659 320.536 297.219 321.564 297.49C322.592 297.76 323.68 297.728 324.689 297.399C326.812 296.742 328.778 295.684 330.472 294.289C330.982 293.964 331.42 293.546 331.765 293.06C331.903 292.83 331.976 292.568 331.976 292.302C331.976 292.035 331.903 291.774 331.765 291.543" fill="#FF9A6C"/>
<path d="M320.639 283.716C321.364 283.716 321.238 288.267 325.272 291.74C329.306 295.214 334.459 294.774 334.475 295.411C334.475 295.7 333.293 296.276 331.134 296.276C328.307 296.245 325.582 295.251 323.444 293.47C321.394 291.766 320.111 289.362 319.867 286.765C319.741 284.808 320.308 283.685 320.639 283.716Z" fill="#263238"/>
<path d="M321.411 229.56C320.828 230.668 316.494 229.56 311.247 229.56C305.999 229.56 301.634 230.349 301.082 229.227C300.846 228.696 301.728 227.71 303.556 226.8C305.988 225.703 308.658 225.183 311.341 225.283C314.027 225.309 316.668 225.949 319.047 227.149C320.844 228.013 321.679 229.045 321.411 229.56Z" fill="#263238"/>
<path d="M361.486 230.592C360.682 231.548 357.656 230.455 353.969 230.319C350.281 230.182 347.161 230.789 346.467 229.758C346.168 229.257 346.688 228.241 348.043 227.406C349.895 226.329 352.047 225.831 354.205 225.98C356.366 226.066 358.445 226.803 360.146 228.089C361.454 229.121 361.848 230.137 361.486 230.592Z" fill="#263238"/>
<path d="M267.357 274.129C267.357 274.129 290.239 280.439 301.822 226.178C305.778 207.61 323.207 192.289 323.207 192.289L315.942 190.362C315.942 190.362 271.423 203.499 270.683 204.015C269.942 204.531 259.919 226.572 259.919 226.572L267.357 274.129Z" fill="#263238"/>
<path d="M272.921 271.99C272.921 269.684 270.368 264.177 268.004 263.753C261.7 262.645 250.307 262.827 249.755 278.285C249.015 299.401 271.203 295.76 271.25 295.154C271.298 294.547 272.684 279.954 272.921 271.99Z" fill="#FFBF9D"/>
<path d="M264.805 286.932C264.71 286.932 264.411 287.174 263.765 287.447C262.845 287.805 261.817 287.805 260.897 287.447C258.612 286.552 256.784 282.896 256.815 279.15C256.815 277.337 257.241 275.548 258.06 273.916C258.288 273.262 258.678 272.671 259.197 272.195C259.716 271.719 260.348 271.372 261.039 271.186C261.481 271.086 261.947 271.139 262.353 271.336C262.759 271.533 263.08 271.861 263.261 272.263C263.528 272.869 263.371 273.279 263.497 273.324C263.623 273.37 263.97 272.976 263.828 272.111C263.724 271.579 263.435 271.098 263.008 270.746C262.417 270.292 261.665 270.079 260.912 270.154C260.007 270.295 259.154 270.658 258.437 271.208C257.719 271.758 257.161 272.476 256.815 273.294C255.796 275.085 255.254 277.092 255.239 279.134C255.239 283.397 257.351 287.447 260.487 288.433C261.07 288.617 261.688 288.672 262.296 288.596C262.904 288.52 263.487 288.314 264.001 287.993C264.805 287.447 264.915 286.977 264.805 286.932Z" fill="#FF9A6C"/>
<path d="M282.534 263.464C282.534 263.464 283.731 263.358 285.796 262.751C288.695 261.828 291.333 260.27 293.502 258.201C294.998 256.785 296.325 255.213 297.457 253.513C298.72 251.54 299.775 249.452 300.609 247.279C302.385 242.235 303.843 237.094 304.974 231.881C306.377 226.36 307.937 221.126 309.702 216.469C311.2 212.332 313.012 208.306 315.123 204.425C316.55 201.791 318.166 199.256 319.961 196.84C320.592 195.99 321.143 195.323 321.537 194.944C321.703 194.713 321.893 194.5 322.104 194.307C321.974 194.555 321.816 194.789 321.632 195.004C321.316 195.459 320.796 196.097 320.198 196.961C318.47 199.399 316.892 201.932 315.47 204.546C313.413 208.429 311.649 212.449 310.191 216.575C308.504 221.217 307.039 226.436 305.573 231.957C304.443 237.204 302.969 242.377 301.161 247.445C300.29 249.647 299.198 251.76 297.899 253.756C296.733 255.476 295.363 257.059 293.817 258.474C291.595 260.537 288.894 262.06 285.938 262.918C284.835 263.252 283.689 263.436 282.534 263.464Z" fill="#263238"/>
<path d="M235.162 256.987C235.241 256.675 235.363 256.374 235.525 256.092L236.738 253.589C237.794 251.405 239.48 248.325 241.686 244.609C243.893 240.892 246.713 236.523 250.054 231.836C253.395 227.149 257.382 222.203 261.795 217.213C266.207 212.222 270.777 207.762 275.048 203.833C279.319 199.904 283.369 196.597 286.883 193.943C290.397 191.288 293.281 189.194 295.346 187.875L297.741 186.358C298.005 186.158 298.296 185.994 298.608 185.872C298.386 186.116 298.132 186.33 297.851 186.509L295.582 188.193C293.581 189.619 290.744 191.773 287.324 194.489C283.905 197.204 279.933 200.556 275.678 204.5C271.423 208.445 266.995 212.935 262.551 217.88C258.107 222.825 254.23 227.786 250.811 232.382C247.391 236.978 244.507 241.287 242.301 244.973C240.095 248.659 238.251 251.663 237.085 253.786C236.533 254.757 236.076 255.561 235.698 256.198C235.562 256.486 235.381 256.752 235.162 256.987Z" fill="#455A64"/>
<path d="M438.547 479.676C438.862 478.052 431.976 436.488 419.29 407.863C414.657 397.381 411.284 390.069 406.541 385.549C401.922 381.253 396.597 377.722 390.782 375.097L337.974 358.41C337.974 358.41 325.492 372.579 302.658 369.484C275.064 365.752 269.8 352.555 269.8 352.555C269.8 352.555 203.833 363.856 189.918 376.31C174.727 389.963 158.526 447.895 158.526 447.895L219.608 465.022L223.233 552.186L197.483 609.36C198.46 609.648 265.246 626.729 298.545 626.896C362.952 627.214 401.293 609.148 401.293 609.148L375.354 556.509L390.608 484.666L438.547 479.676Z" fill="#92E3A9"/>
<g opacity="0.2">
<path d="M205.204 592.203C205.204 592.203 272.211 599.879 287.151 603.505C302.09 607.13 317.093 614.442 339.612 608.055C362.132 601.669 385.786 577.716 385.786 577.716L376.898 559.695L295.519 580.629L215.589 569.146L205.204 592.203Z" fill="black"/>
</g>
<path d="M217.875 421.303C218.095 421.303 218.899 436.109 219.671 454.373C220.443 472.637 220.869 487.473 220.633 487.473C220.396 487.473 219.608 472.683 218.852 454.403C218.095 436.124 217.654 421.319 217.875 421.303Z" fill="#263238"/>
<path d="M383.753 412.566C383.934 412.802 384.087 413.056 384.21 413.324C384.462 413.84 384.888 414.583 385.329 415.569C386.619 418.37 387.75 421.237 388.717 424.155C391.963 433.787 393.778 443.812 394.107 453.933C394.159 464.042 393.267 474.135 391.444 484.09C390.896 487.102 390.186 490.084 389.316 493.025C389.001 494.072 388.717 494.876 388.513 495.406C388.432 495.687 388.316 495.957 388.166 496.21C388.166 496.21 388.481 495.058 389.001 492.949C389.521 490.84 390.23 487.807 390.876 483.999C392.518 474.061 393.324 464.011 393.287 453.948C392.944 443.899 391.222 433.937 388.166 424.322C387 420.636 385.881 417.693 385.014 415.691C384.147 413.688 383.69 412.596 383.753 412.566Z" fill="#263238"/>
<path d="M269.737 517.888C269.737 517.888 270.919 517.721 273.031 517.463C276.005 517.102 278.953 516.56 281.856 515.84C291.476 513.507 300.436 509.139 308.082 503.053C315.729 496.968 321.87 489.319 326.06 480.662C327.335 478.048 328.445 475.364 329.385 472.622C329.677 471.594 330.024 470.581 330.425 469.588C330.411 469.865 330.363 470.14 330.283 470.407C330.141 470.938 329.999 471.727 329.684 472.713C328.854 475.517 327.8 478.256 326.532 480.904C322.445 489.727 316.294 497.522 308.561 503.679C300.827 509.837 291.72 514.191 281.95 516.401C279.012 517.077 276.025 517.538 273.015 517.781C271.943 517.888 271.108 517.888 270.557 517.918C270.283 517.94 270.008 517.93 269.737 517.888Z" fill="#263238"/>
<g opacity="0.3">
<path d="M274.354 518.1C287.954 519.132 302.311 516.993 313.437 509.378C324.563 501.763 331.654 487.943 328.392 475.186C319.441 497.272 303.178 512.412 274.354 518.1Z" fill="black"/>
</g>
<path d="M195.859 366.526C197.116 364.805 198.725 363.35 200.587 362.248C208.605 356.52 215.157 349.103 219.74 340.563C224.324 332.023 226.817 322.588 227.03 312.978L268.003 325.356C268.003 333.942 269.705 359.048 266.664 366.101C263.622 373.155 258.548 385.579 247.753 387.035C218.741 390.934 220.207 366.541 205.33 369.408C202.998 369.848 192.723 373.959 192.723 373.959C193.618 371.425 194.665 368.943 195.859 366.526Z" fill="#263238"/>
<path d="M412.813 525.457C412.374 525.923 411.882 526.34 411.347 526.701C410.213 527.536 408.81 528.598 407.155 529.841C403.594 532.481 398.646 536.076 393.146 540.02C387.646 543.964 382.634 547.484 378.963 550.002L374.629 552.945C374.14 553.328 373.612 553.663 373.053 553.946C373.487 553.475 373.979 553.058 374.519 552.702L378.71 549.547C382.272 546.907 387.22 543.312 392.72 539.383C398.22 535.454 403.216 531.92 406.903 529.401L411.253 526.459C411.731 526.068 412.254 525.732 412.813 525.457Z" fill="white"/>
<path d="M333.513 572.013L483.145 462.049L495.5 476.278L343.063 586.924L333.513 572.013Z" fill="#92E3A9"/>
<path d="M324.452 562.805L438.153 476.08L448.538 486.911L332.994 573.181L324.452 562.805Z" fill="#455A64"/>
<g opacity="0.3">
<path d="M333.513 572.013L483.145 462.049L495.5 476.278L343.063 586.924L333.513 572.013Z" fill="black"/>
</g>
<path d="M411.694 545.238L418.423 536.319L421.811 529.568L418.659 522.423C417.67 516.913 417.179 511.33 417.194 505.737C417.399 501.717 416.768 500.094 419.699 498.683C422.631 497.272 424.301 500.898 424.301 500.898C424.301 500.898 422.221 490.825 426.082 489.142C426.864 488.762 427.723 488.551 428.599 488.523C429.475 488.495 430.346 488.651 431.153 488.98C431.96 489.31 432.683 489.804 433.271 490.429C433.859 491.054 434.299 491.795 434.56 492.6C435.301 494.724 430.715 482.573 436.514 481.178C442.314 479.782 446.899 485.607 446.899 485.607C447.168 484.366 447.795 483.223 448.709 482.311C449.623 481.398 450.787 480.753 452.066 480.45C453.344 480.147 454.686 480.199 455.936 480.599C457.186 480.998 458.292 481.73 459.128 482.71C459.653 483.364 460.112 484.065 460.499 484.803L464.675 492.858C464.675 492.858 466.976 485.622 471.799 481.587C476.621 477.552 481.254 477.355 482.247 481.784C483.24 486.214 477.44 489.642 476.605 495.892C475.77 502.142 471.326 509.317 467.607 515.021C463.112 521.628 459.039 528.492 455.409 535.575C455.409 535.575 452.147 552.262 447.325 561.364C440.753 573.712 434.056 578.05 423.261 577.868C419.303 577.935 415.423 576.797 412.175 574.619C408.927 572.44 406.475 569.33 405.17 565.732" fill="#FFBF9D"/>
<path d="M405.138 565.717C405.208 565.826 405.261 565.943 405.296 566.066C405.39 566.294 405.532 566.627 405.753 567.067C406.399 568.361 407.191 569.582 408.116 570.708C409.594 572.518 411.425 574.033 413.506 575.168C416.335 576.664 419.498 577.481 422.725 577.549C426.713 577.811 430.703 577.074 434.308 575.411C438.407 573.193 441.805 569.948 444.141 566.021C445.528 563.914 446.766 561.72 447.845 559.452C448.963 557.01 449.937 554.508 450.76 551.958C452.521 546.523 453.968 540.998 455.094 535.409C457.363 530.858 459.979 526.216 462.973 521.574C465.967 516.932 469.167 512.29 471.956 507.239C473.386 504.708 474.563 502.051 475.47 499.305C475.896 497.899 476.212 496.464 476.416 495.012C476.753 493.513 477.321 492.071 478.102 490.734C478.843 489.384 479.757 488.14 480.545 486.851C481.411 485.655 481.923 484.255 482.026 482.801C482.045 482.103 481.878 481.411 481.542 480.793C481.205 480.174 480.71 479.649 480.103 479.266C479.413 479.002 478.671 478.888 477.93 478.932C477.189 478.977 476.467 479.179 475.817 479.524C473.083 480.804 470.759 482.769 469.088 485.213C467.405 487.609 466.074 490.218 465.132 492.964L464.817 493.874L464.376 493.025C463.32 490.977 462.264 488.929 461.224 486.957C460.688 485.956 460.215 484.909 459.648 483.923C459.08 483.012 458.33 482.218 457.442 481.587C456.53 481.029 455.491 480.695 454.414 480.613C453.337 480.531 452.256 480.704 451.264 481.117C450.286 481.522 449.422 482.146 448.745 482.938C448.068 483.729 447.597 484.665 447.372 485.668L447.199 486.426L446.679 485.819C445.318 484.163 443.568 482.842 441.573 481.966C440.577 481.552 439.506 481.331 438.421 481.314H437.649L436.876 481.435C436.391 481.501 435.93 481.684 435.537 481.966C434.768 482.578 434.262 483.443 434.119 484.393C433.926 485.393 433.873 486.414 433.961 487.427C434.031 488.422 434.173 489.41 434.387 490.385C434.481 490.871 434.607 491.356 434.733 491.826L434.938 492.539V492.706C434.938 492.706 434.938 492.797 434.938 492.615C433.63 492.995 434.576 492.812 434.292 492.888V492.812C434.26 492.698 434.217 492.587 434.166 492.479C433.842 491.61 433.296 490.834 432.576 490.224C431.857 489.614 430.989 489.189 430.053 488.99C429.127 488.813 428.172 488.849 427.264 489.096C426.829 489.171 426.414 489.331 426.046 489.566C425.677 489.8 425.362 490.105 425.12 490.461C424.333 492.069 423.985 493.845 424.112 495.619C424.144 497.364 424.323 499.104 424.648 500.822L425.057 503.022L424.049 501.019C423.434 499.806 422.299 498.577 420.897 498.668C420.222 498.74 419.579 498.986 419.037 499.381C418.457 499.73 418.026 500.268 417.824 500.898C417.545 502.189 417.434 503.509 417.493 504.827C417.493 506.162 417.383 507.421 417.493 508.695C417.707 513.308 418.18 517.906 418.911 522.469C420.109 525.169 421.133 527.49 422.063 529.629V529.705V529.781L418.628 536.516C416.421 539.368 414.735 541.583 413.553 543.099C413.002 543.828 412.56 544.389 412.245 544.783C411.93 545.178 411.772 545.345 411.772 545.345C411.772 545.345 411.899 545.132 412.182 544.738L413.427 543.008C414.578 541.492 416.232 539.231 418.375 536.334C419.321 534.423 420.408 532.223 421.732 529.583V529.735C420.771 527.596 419.731 525.275 418.58 522.605C417.799 518.029 417.273 513.416 417.004 508.786C417.004 507.527 417.004 506.192 417.004 504.887C416.937 503.508 417.053 502.127 417.351 500.777C417.609 500.055 418.115 499.439 418.785 499.032C419.416 498.566 420.169 498.277 420.96 498.198C421.377 498.185 421.792 498.253 422.181 498.396C422.571 498.539 422.927 498.755 423.229 499.032C423.829 499.558 424.317 500.192 424.663 500.898L424.049 501.08C423.707 499.328 423.517 497.552 423.481 495.771C423.34 493.87 423.715 491.967 424.569 490.249C424.859 489.822 425.234 489.456 425.672 489.169C426.11 488.883 426.603 488.683 427.122 488.58C428.147 488.298 429.228 488.256 430.273 488.459C431.346 488.661 432.346 489.127 433.175 489.814C434.004 490.5 434.633 491.382 435.001 492.373L435.143 492.737V492.828C434.859 492.919 435.805 492.737 434.497 493.116V493.01V492.828L434.276 492.1C434.15 491.599 434.024 491.114 433.914 490.583C433.696 489.582 433.549 488.568 433.473 487.549C433.384 486.495 433.437 485.434 433.63 484.393C433.812 483.265 434.418 482.239 435.332 481.511C436.362 480.985 437.507 480.699 438.674 480.678C439.84 480.657 440.995 480.901 442.045 481.39C444.175 482.305 446.041 483.706 447.482 485.47L446.789 485.607C447.038 484.491 447.562 483.448 448.316 482.566C449.07 481.685 450.032 480.99 451.123 480.54C452.234 480.07 453.449 479.873 454.659 479.965C455.869 480.058 457.036 480.438 458.057 481.071C459.047 481.753 459.879 482.626 460.499 483.635C461.129 484.636 461.602 485.652 462.075 486.669C463.131 488.686 464.187 490.734 465.227 492.737H464.486C465.446 489.909 466.809 487.224 468.536 484.757C470.295 482.198 472.74 480.143 475.612 478.811C476.375 478.413 477.222 478.185 478.089 478.143C478.956 478.101 479.822 478.246 480.623 478.568C481.402 478.988 482.021 479.636 482.388 480.419C482.755 481.164 482.954 481.976 482.971 482.801C482.875 484.397 482.33 485.938 481.396 487.26C480.592 488.565 479.694 489.809 478.969 491.098C478.235 492.37 477.704 493.74 477.393 495.164C477.165 496.639 476.839 498.098 476.416 499.533C475.498 502.33 474.294 505.033 472.823 507.603C470.002 512.7 466.708 517.311 463.809 521.953C460.909 526.595 458.261 531.176 455.929 535.712V535.621C454.779 541.256 453.311 546.826 451.532 552.307C450.706 554.851 449.733 557.348 448.617 559.786C447.512 562.075 446.249 564.29 444.835 566.415C442.431 570.42 438.939 573.719 434.733 575.957C431.039 577.633 426.956 578.36 422.883 578.065C419.595 577.965 416.382 577.095 413.522 575.532C411.428 574.369 409.592 572.823 408.116 570.981C407.21 569.833 406.448 568.586 405.847 567.265C405.642 566.825 405.516 566.461 405.422 566.233C405.305 566.073 405.21 565.9 405.138 565.717Z" fill="#FF9A6C"/>
<path d="M453.156 516.674C453.198 516.95 453.165 517.233 453.061 517.493C452.855 518.255 452.496 518.972 452.005 519.602C451.238 520.587 450.185 521.331 448.98 521.741C447.441 522.25 445.764 522.213 444.252 521.635L444.756 521.392C444.445 522.557 443.876 523.644 443.088 524.578C442.301 525.513 441.313 526.273 440.193 526.807C439.073 527.341 437.847 527.637 436.597 527.673C435.348 527.71 434.105 527.487 432.953 527.02L433.441 526.807C432.906 528.249 431.841 529.453 430.447 530.19C429.377 530.764 428.152 531.012 426.933 530.903C426.153 530.843 425.393 530.637 424.695 530.296C424.222 530.038 424.002 529.856 424.033 529.826C424.969 530.172 425.95 530.392 426.949 530.478C428.22 530.512 429.468 530.151 430.51 529.449C431.551 528.747 432.33 527.741 432.732 526.58L432.858 526.216L433.236 526.352C434.329 526.766 435.5 526.948 436.672 526.888C437.844 526.828 438.988 526.526 440.029 526.003C440.992 525.498 441.841 524.815 442.528 523.992C443.215 523.169 443.726 522.224 444.031 521.21L444.142 520.8L444.551 520.967C445.769 521.468 447.121 521.579 448.41 521.284C449.698 520.989 450.853 520.304 451.706 519.329C452.321 518.517 452.809 517.622 453.156 516.674Z" fill="#FF9A6C"/>
<path d="M466.015 511.486C466.015 511.486 465.779 512.184 465.038 513.109C464.097 514.321 462.926 515.35 461.587 516.143C460.894 516.576 460.107 516.848 459.286 516.937C458.466 517.027 457.635 516.932 456.859 516.659C455.677 516.189 455.283 515.445 455.378 515.4C455.917 515.683 456.475 515.931 457.048 516.143C457.749 516.299 458.475 516.318 459.184 516.201C459.893 516.084 460.571 515.832 461.177 515.46C462.436 514.685 463.59 513.763 464.613 512.715C465.432 511.941 465.921 511.41 466.015 511.486Z" fill="#FF9A6C"/>
<path d="M449.689 503.203C448.337 500.467 447.484 497.526 447.167 494.511C446.578 491.534 446.514 488.483 446.978 485.485C447.23 485.485 447.23 489.505 447.987 494.39C448.743 499.275 449.909 503.128 449.689 503.203Z" fill="#FF9A6C"/>
<path d="M470.018 505.342C469.653 504.778 469.096 504.355 468.442 504.144C467.628 503.959 466.864 503.607 466.204 503.112C465.84 502.73 465.594 502.257 465.495 501.747C465.385 501.247 465.306 500.792 465.211 500.23C464.65 497.892 464.37 495.5 464.376 493.101C465.188 495.373 465.743 497.722 466.031 500.109C466.061 500.963 466.31 501.797 466.756 502.536C467.329 502.989 467.98 503.343 468.678 503.583C469.215 503.805 469.663 504.188 469.955 504.675C470.128 505.115 470.065 505.342 470.018 505.342Z" fill="#FF9A6C"/>
<path d="M437.633 511.501C437.339 510.604 437.148 509.678 437.066 508.741C436.782 507.026 436.325 504.69 435.805 502.081C434.998 498.969 434.57 495.777 434.529 492.57C434.734 492.57 435.522 496.741 436.625 501.945C437.728 507.148 437.885 511.501 437.633 511.501Z" fill="#FF9A6C"/>
<path d="M427.737 517.068C427.5 517.068 427.185 513.595 426.382 509.377C425.578 505.16 424.601 501.793 424.806 501.793C426.969 506.606 427.971 511.829 427.737 517.068Z" fill="#FF9A6C"/>
<path d="M452.116 534.225C451.336 534.823 450.457 535.289 449.516 535.606C447.317 536.51 445.016 537.167 442.661 537.563C440.3 537.966 437.9 538.108 435.506 537.987C434.514 538.014 433.526 537.865 432.591 537.547C435.912 537.465 439.226 537.212 442.519 536.789C445.763 536.1 448.967 535.244 452.116 534.225Z" fill="#FF9A6C"/>
<path d="M487.447 481.981C484.96 480.064 482.651 477.942 480.545 475.641C478.236 473.524 476.126 471.214 474.241 468.739C476.718 470.667 479.022 472.793 481.128 475.095C483.431 477.216 485.545 479.519 487.447 481.981Z" fill="white"/>
<path d="M491.387 479.145C488.91 477.216 486.606 475.09 484.5 472.789C482.192 470.677 480.083 468.372 478.197 465.902C480.676 467.822 482.98 469.944 485.083 472.243C487.384 474.368 489.492 476.676 491.387 479.145Z" fill="white"/>
<path d="M211.382 536.789L219.261 464.142L164.751 449.337C164.751 449.337 152.995 514.793 152.522 540.521C152.034 566.734 159.661 572.695 172.835 578.065C187.46 584.027 297.883 597.604 297.883 597.604L301.255 561.197L211.382 536.789Z" fill="#FFBF9D"/>
<path d="M290.649 559.725C290.649 559.725 311.892 550.623 318.007 548.985C324.121 547.347 332.19 553.824 332.19 553.824C332.19 553.824 337.375 554.082 348.359 555.69C358.775 557.207 371.004 556.479 371.635 561.151C371.853 562.44 371.737 563.762 371.297 564.998C370.857 566.233 370.107 567.346 369.113 568.235C369.113 568.235 373.274 571.118 371.713 574.546C370.153 577.974 368.688 578.566 366.371 579.173C364.055 579.779 359.642 580.598 359.642 580.598C360.649 581.13 361.406 582.013 361.758 583.065C362.11 584.118 362.029 585.26 361.533 586.257C359.847 590.11 358.161 590.11 356.27 590.717C354.379 591.323 347.429 592.37 347.429 592.37C345.44 594.364 343.335 596.248 341.125 598.013C337.753 600.653 333.545 602.867 329.968 602.867C326.391 602.867 320.922 604.293 310.175 602.867C303.518 601.926 297.141 599.652 291.453 596.193L290.649 559.725Z" fill="#FFBF9D"/>
<path d="M369.145 568.235C364.679 568.499 360.2 568.499 355.734 568.235C351.266 568.208 346.804 567.924 342.371 567.386C346.831 567.113 351.305 567.113 355.766 567.386C360.239 567.406 364.708 567.689 369.145 568.235Z" fill="#FF9A6C"/>
<path d="M359.863 580.629C357.38 581.027 354.859 581.159 352.346 581.023C349.838 581.159 347.322 581.027 344.844 580.629C347.323 580.239 349.838 580.107 352.346 580.234C354.859 580.108 357.379 580.24 359.863 580.629Z" fill="#FF9A6C"/>
<path d="M348.327 592.203C346.501 592.867 344.585 593.271 342.638 593.402C340.728 593.795 338.772 593.933 336.823 593.811C338.66 593.165 340.579 592.762 342.528 592.613C344.432 592.22 346.384 592.082 348.327 592.203Z" fill="#FF9A6C"/>
<path d="M333.75 553.855C332.341 554.118 330.914 554.28 329.48 554.34C326.848 554.598 323.176 555.053 319.283 555.857C315.391 556.661 311.798 557.571 309.277 558.315C307.931 558.789 306.551 559.169 305.148 559.452C306.385 558.742 307.708 558.182 309.087 557.784C315.623 555.496 322.473 554.147 329.416 553.779C330.859 553.637 332.314 553.662 333.75 553.855Z" fill="#FF9A6C"/>
<path d="M181.802 548.257C181.971 547.855 182.205 547.482 182.496 547.15C183.209 546.201 184 545.309 184.859 544.48C186.133 543.232 187.532 542.109 189.036 541.127C190.877 539.926 192.841 538.909 194.898 538.094C196.968 537.312 199.118 536.743 201.312 536.395C203.103 536.109 204.919 535.997 206.733 536.061C207.95 536.088 209.163 536.215 210.357 536.44C210.803 536.488 211.239 536.601 211.65 536.774C211.65 536.926 209.759 536.592 206.733 536.622C204.957 536.645 203.186 536.808 201.438 537.108C197.164 537.837 193.086 539.385 189.445 541.658C187.966 542.593 186.569 543.643 185.269 544.799C183.047 546.862 181.928 548.348 181.802 548.257Z" fill="#FF9A6C"/>
</svg>
