<svg width="532" height="596" viewBox="0 0 532 596" fill="none" xmlns="http://www.w3.org/2000/svg">
<path fill-rule="evenodd" clip-rule="evenodd" d="M259.188 43.1877C325.969 49.8737 391.14 64.2059 440.702 106.219C492.65 150.255 530.946 209.193 531.98 274.43C533.026 340.479 492.994 397.895 446.111 447.653C394.798 502.114 337.181 562.144 259.188 563.953C180.153 565.786 111.735 513.994 62.6664 456.548C19.0128 405.441 16.7053 339.457 11.8893 274.43C6.51431 201.854 -21.555 117.142 33.7031 65.4712C89.0163 13.7494 181.064 35.3662 259.188 43.1877Z" fill="#CAE6FF"/>
<path d="M311.805 74.9171C324.187 89.4622 329.603 108.965 331.947 128.181C334.291 147.398 333.92 166.832 336.515 185.98C337.84 195.99 340.038 206.014 339.27 216.078C338.502 226.143 334.145 236.602 325.564 241.519C320.518 244.419 313.434 244.774 309.527 240.388C306.773 237.283 306.309 232.748 305.991 228.553L293.808 70.273" fill="#263238"/>
<path d="M240.415 211.516L249.539 208.969L305.952 205.973L318.492 208.697C318.492 208.697 295.821 235.036 276.606 235.118C241.461 235.322 240.415 211.516 240.415 211.516Z" fill="#FFBE9D"/>
<path d="M216.26 150.584C212.155 137.81 205.997 115.706 208.315 102.455C210.632 89.2035 217.121 76.4969 227.53 68.4072C241.779 57.2124 261.258 55.7552 278.977 58.5743C291.12 60.4946 303.581 64.5803 311.884 73.8685C317.181 79.8336 320.439 87.4875 322.24 95.4001C323.834 103.33 324.769 111.385 325.034 119.479C325.325 124.354 324.094 134.623 321.419 139.403" fill="#92E3A9"/>
<path d="M320.293 136.121C320.293 136.121 325.431 90.688 296.761 73.1739C268.701 56.0548 239.408 62.5374 229.013 76.3063C208.937 102.918 213.93 121.481 213.93 121.481L314.241 145.613L320.293 136.121Z" fill="#263238"/>
<path d="M214.036 120.473C214.036 120.228 214.036 119.969 214.036 119.71C214.274 93.4526 235.038 71.8801 260.57 72.1116C261.801 72.1116 263.072 72.1116 264.357 72.2206C266.361 72.3163 268.359 72.5208 270.343 72.8334C292.51 76.4016 308.587 96.5033 308.905 119.574C309.156 138.355 309.315 163.359 308.468 170.795C307.064 183.161 307.435 187.574 307.435 187.574V216.364C307.451 224.504 304.421 232.338 298.972 238.241C293.523 244.144 286.073 247.663 278.169 248.069C274.069 248.281 269.969 247.649 266.111 246.208C262.252 244.767 258.713 242.548 255.7 239.681C252.687 236.813 250.262 233.355 248.567 229.51C246.872 225.665 245.942 221.51 245.831 217.29L245.433 202.459C226.378 200.444 217.148 181.826 215.32 159.314C214.42 147.316 213.863 146.417 214.036 120.473Z" fill="#FFBE9D"/>
<path d="M308.057 135.767C308.56 135.522 328.305 128.835 328.344 149.795C328.384 170.754 307.911 166.451 307.885 165.851C307.858 165.252 308.057 135.767 308.057 135.767Z" fill="#FFBE9D"/>
<path d="M314.096 157.898C314.175 157.83 314.44 158.157 315.049 158.443C315.899 158.794 316.848 158.794 317.698 158.443C319.856 157.625 321.67 154.098 321.75 150.271C321.801 148.477 321.457 146.693 320.743 145.055C320.555 144.402 320.215 143.806 319.754 143.318C319.293 142.829 318.724 142.463 318.095 142.25C317.687 142.141 317.254 142.183 316.873 142.367C316.491 142.551 316.183 142.865 316.003 143.257C315.738 143.843 315.87 144.265 315.764 144.292C315.658 144.32 315.314 143.952 315.486 143.08C315.587 142.544 315.868 142.062 316.281 141.718C316.84 141.281 317.545 141.09 318.241 141.187C319.079 141.355 319.861 141.741 320.512 142.309C321.164 142.876 321.663 143.606 321.962 144.429C322.826 146.245 323.248 148.25 323.193 150.271C323.074 154.493 320.982 158.443 318.029 159.328C317.482 159.492 316.906 159.526 316.344 159.43C315.783 159.333 315.249 159.107 314.784 158.769C314.122 158.415 314.016 157.993 314.096 157.898Z" fill="#EB996E"/>
<path d="M222.974 127.391C223.544 127.963 226.815 125.294 231.582 125.144C236.349 124.994 239.938 127.323 240.428 126.71C240.679 126.424 240.084 125.348 238.521 124.286C236.411 122.886 233.932 122.192 231.423 122.298C228.941 122.374 226.548 123.261 224.59 124.831C223.16 126.043 222.696 127.132 222.974 127.391Z" fill="#263238"/>
<path d="M267.535 128.031C268.104 128.603 271.389 125.934 276.156 125.784C280.923 125.634 284.499 127.963 285.002 127.337C285.24 127.064 284.657 125.975 283.082 124.926C280.972 123.526 278.492 122.832 275.984 122.938C273.503 123.018 271.111 123.905 269.151 125.471C267.734 126.669 267.323 127.759 267.535 128.031Z" fill="#263238"/>
<path d="M268.078 112.71C268.502 113.949 272.501 113.881 276.924 114.916C281.347 115.951 284.87 117.517 285.916 116.605C286.393 116.156 286.035 115.012 284.711 113.718C282.861 112.048 280.612 110.915 278.196 110.436C275.714 109.866 273.134 109.941 270.687 110.653C268.82 111.253 267.906 112.124 268.078 112.71Z" fill="#263238"/>
<path d="M240.07 110.327C238.746 109.074 234.124 108.965 229.635 109.986C225.146 111.007 222.524 112.941 223.795 114.194C225.067 115.447 229.741 115.556 234.23 114.521C238.72 113.486 241.342 111.525 240.07 110.327Z" fill="#263238"/>
<path d="M259.378 169.842C259.378 170.128 259.974 170.645 261.245 170.781C262.935 170.907 264.61 170.372 265.933 169.283C267.262 168.197 268.134 166.627 268.37 164.898C268.515 163.604 268.184 162.828 267.893 162.841C267.297 162.841 266.873 165.633 264.556 167.513C262.238 169.392 259.378 169.242 259.378 169.842Z" fill="#263238"/>
<path d="M245.5 202.459C245.5 202.459 269.919 202.214 275.573 197.72C275.573 197.72 271.6 209.977 245.685 209.391L245.5 202.459Z" fill="#EB996E"/>
<path d="M235.965 137.633C236.087 138.722 235.791 139.818 235.141 140.687C234.491 141.556 233.538 142.131 232.483 142.29C231.449 142.473 230.387 142.227 229.528 141.607C228.67 140.987 228.085 140.043 227.901 138.981C227.776 137.891 228.07 136.794 228.721 135.924C229.371 135.053 230.327 134.479 231.383 134.323C232.417 134.141 233.479 134.387 234.338 135.007C235.196 135.627 235.781 136.571 235.965 137.633Z" fill="#263238"/>
<path d="M277.679 138.15C277.803 139.239 277.509 140.334 276.858 141.202C276.207 142.07 275.252 142.642 274.196 142.794C273.684 142.896 273.157 142.891 272.647 142.779C272.137 142.667 271.654 142.451 271.227 142.144C270.799 141.837 270.436 141.444 270.159 140.99C269.882 140.535 269.697 140.028 269.614 139.498C269.489 138.41 269.782 137.315 270.43 136.445C271.077 135.575 272.03 135 273.084 134.841C274.12 134.655 275.185 134.898 276.046 135.519C276.908 136.139 277.495 137.085 277.679 138.15Z" fill="#263238"/>
<path d="M254.69 154.793C254.61 154.493 253.26 154.793 251.234 154.507C250.686 154.432 250.145 154.309 249.618 154.139C249.057 153.973 248.519 153.735 248.016 153.431C247.843 153.281 247.857 153.24 247.857 153.186C247.897 152.954 247.968 152.73 248.069 152.518L249.035 150.203C251.618 143.857 253.299 138.532 252.796 138.314C252.293 138.096 249.79 143.067 247.195 149.413C246.877 150.217 246.572 150.993 246.268 151.742C246.042 152.254 245.937 152.814 245.963 153.376C246.005 153.706 246.119 154.021 246.295 154.299C246.472 154.577 246.707 154.811 246.983 154.983C247.352 155.211 247.748 155.39 248.161 155.514C248.519 155.623 248.876 155.719 249.221 155.787C249.858 155.912 250.506 155.967 251.154 155.95C253.524 155.882 254.783 155.011 254.69 154.793Z" fill="#263238"/>
<path d="M344.699 86.1119C342.05 79.8336 338.329 73.6369 338.647 66.8274C338.806 63.7631 339.495 60.0179 337.032 58.2474C336.153 57.7233 335.171 57.4113 334.158 57.335C320.182 55.2945 305.975 55.6166 292.1 58.2883C292.118 57.6044 292.042 56.9213 291.875 56.2591C291.453 54.8485 290.652 53.5891 289.565 52.6255C288.478 51.6619 287.149 51.0331 285.73 50.8115C284.557 50.6632 283.367 50.7579 282.23 51.09C281.092 51.4222 280.031 51.985 279.109 52.7454C269.287 41.997 256.308 34.8589 242.163 32.4258C238.19 31.7448 233.793 31.4997 230.244 33.4472C224.683 36.4434 222.67 43.4436 221.2 49.79C220.617 52.2415 220.074 54.9925 221.319 57.1715C223.027 60.1405 227.04 60.4265 230.39 60.3584C245.584 60.0406 260.764 59.5185 275.931 58.7922L276.156 58.6015C276.183 59.0013 276.263 59.3954 276.394 59.7728L276.262 58.5062C276.516 59.9098 277.087 61.2325 277.929 62.3679C278.771 63.5033 279.86 64.4196 281.109 65.0433C282.411 65.655 283.848 65.8992 285.272 65.7508C286.696 65.6024 288.057 65.0668 289.213 64.1989C289.476 63.9904 289.723 63.7628 289.955 63.518C304.243 75.3802 319.657 85.9758 336.727 92.9078C339.574 94.0655 343.52 94.7736 345.096 92.0634C346.129 90.2249 345.454 87.9914 344.699 86.1119Z" fill="#92E3A9"/>
<path d="M227.45 73.7459C238.746 64.8118 258.623 60.5627 272.475 63.8449C286.326 67.127 299.556 81.7266 305.462 94.9916C311.725 109.114 310.971 125.471 308.11 140.724C307.647 143.257 306.786 146.172 304.363 146.934C303.481 147.119 302.567 147.042 301.725 146.714C300.884 146.387 300.15 145.821 299.609 145.082C298.557 143.583 297.793 141.891 297.357 140.098C295.133 132.934 292.925 125.766 290.736 118.593C289.637 115.039 288.419 111.307 285.704 108.842C284.07 107.537 282.292 106.435 280.407 105.56C274.615 102.345 269.665 97.7386 265.976 92.1332C262.287 86.5278 259.969 80.089 259.219 73.3646C258.551 77.702 256.879 81.8108 254.344 85.3446C251.809 88.8785 248.485 91.734 244.652 93.6705C240.11 95.9313 234.826 96.9118 231.132 100.48C226.394 105.145 222.768 110.874 220.538 117.218C218.538 123.537 215.241 132.798 213.996 141.351C213.453 135.699 211.586 122.856 211.043 117.218C211.056 117.136 207.732 89.3124 227.45 73.7459Z" fill="#263238"/>
<path d="M291.544 60.0451C291.546 60.4108 291.46 60.7713 291.292 61.0938C290.925 62.0176 290.375 62.8525 289.676 63.5452C288.64 64.5928 287.336 65.3155 285.916 65.6289C284.146 65.9998 282.305 65.6948 280.738 64.7709C279.155 63.8767 277.937 62.4265 277.308 60.6852C276.815 59.2746 276.723 57.7487 277.043 56.2863C277.248 55.3064 277.644 54.3796 278.208 53.5625C278.619 52.9905 278.924 52.759 278.95 52.7862C278.266 53.8762 277.782 55.0854 277.52 56.3544C277.289 57.726 277.417 59.1361 277.891 60.4401C278.52 62.0083 279.649 63.3093 281.094 64.1288C282.538 64.9482 284.211 65.2372 285.836 64.948C287.155 64.6806 288.38 64.0552 289.385 63.1366C290.281 62.2492 291.012 61.2016 291.544 60.0451Z" fill="#263238"/>
<path d="M288.922 63.0005C288.712 62.3487 288.562 61.6785 288.471 60.9985C288.092 59.423 287.427 57.9352 286.512 56.6131C285.585 55.3042 284.431 54.1823 283.108 53.3037C282.075 52.6364 281.36 52.3368 281.4 52.2278C282.092 52.266 282.762 52.4864 283.347 52.8679C284.828 53.6593 286.104 54.8033 287.068 56.2046C288.046 57.5965 288.69 59.2064 288.948 60.9031C289.11 61.5935 289.101 62.3146 288.922 63.0005Z" fill="#263238"/>
<path d="M291.252 54.9653C291.252 55.1695 290.087 55.0606 288.829 55.5373C287.571 56.0139 286.763 56.8175 286.604 56.6949C286.445 56.5723 287.121 55.4147 288.591 54.8699C290.061 54.3252 291.319 54.7882 291.252 54.9653Z" fill="#263238"/>
<path d="M316.559 62.8779C315.331 62.7193 314.114 62.4782 312.917 62.1561C309.996 61.5433 307.035 61.1518 304.058 60.9849C301.087 60.8254 298.108 60.8846 295.146 61.1619C293.917 61.3426 292.679 61.4472 291.438 61.4752C292.614 61.0469 293.837 60.7724 295.079 60.658C298.066 60.2303 301.087 60.1025 304.098 60.2767C307.109 60.4282 310.099 60.8843 313.023 61.6386C314.248 61.8939 315.437 62.3105 316.559 62.8779Z" fill="#263238"/>
<path d="M312.348 68.5434C311.301 68.1684 310.283 67.7131 309.302 67.1815C304.456 64.8963 299.341 63.271 294.086 62.3467C292.978 62.2246 291.88 62.0151 290.802 61.7203C291.92 61.6195 293.046 61.6653 294.153 61.8565C296.846 62.1785 299.506 62.7529 302.098 63.5725C304.678 64.3888 307.179 65.4511 309.567 66.7457C310.567 67.2167 311.502 67.8211 312.348 68.5434Z" fill="#263238"/>
<path d="M277.136 59.5276C276.889 59.5534 276.641 59.5534 276.394 59.5276H274.276L266.502 59.405C259.881 59.405 250.863 59.405 240.865 59.977L233.555 60.4129C231.278 60.6934 228.979 60.7299 226.695 60.5218C225.625 60.4416 224.582 60.1311 223.635 59.6103C222.689 59.0894 221.859 58.37 221.2 57.4984C220.659 56.6472 220.365 55.6552 220.352 54.6384C220.33 53.7234 220.415 52.809 220.604 51.9146C221.138 49.2959 221.81 46.709 222.617 44.1654C222.908 43.2665 223.16 42.5719 223.345 42.1225C223.424 41.8807 223.535 41.6515 223.676 41.4416C223.639 41.6897 223.573 41.9322 223.478 42.1634C223.332 42.64 223.12 43.3482 222.882 44.2471C222.392 46.0584 221.677 48.7141 221.081 52.0099C220.615 53.7354 220.829 55.58 221.677 57.1443C222.296 57.9368 223.07 58.5882 223.947 59.057C224.825 59.5259 225.788 59.8021 226.775 59.8681C229.021 60.0421 231.279 59.9874 233.515 59.7047C235.872 59.5412 238.322 59.3914 240.825 59.2552C250.85 58.7241 259.934 58.7105 266.502 58.9011C269.8 58.9829 272.448 59.1327 274.289 59.2416L276.394 59.405C276.646 59.4081 276.896 59.4494 277.136 59.5276Z" fill="#263238"/>
<path d="M324.464 87.2696C323.931 87.1096 323.416 86.8904 322.928 86.6159C321.948 86.1664 320.558 85.4719 318.863 84.573C315.473 82.7753 310.917 80.1196 305.978 76.851C301.039 73.5825 296.854 70.3275 293.888 67.8625C292.391 66.6368 291.239 65.6153 290.418 64.8799C289.987 64.5224 289.588 64.1258 289.226 63.6951C289.703 63.9633 290.147 64.2878 290.551 64.662L294.139 67.4675C297.185 69.8236 301.449 72.9969 306.309 76.2518C311.169 79.5068 315.724 82.2305 319.062 84.1372L323.034 86.3707C323.545 86.6084 324.026 86.9103 324.464 87.2696Z" fill="#263238"/>
<path d="M253.035 49.6402C254.273 49.3573 255.541 49.2383 256.809 49.2861C259.871 49.2832 262.922 49.6674 265.893 50.4301C268.864 51.2041 271.729 52.357 274.421 53.8621C275.566 54.422 276.627 55.1465 277.573 56.0139C277.573 56.1092 276.249 55.333 274.196 54.2979C271.481 52.9527 268.642 51.8897 265.721 51.1247C262.798 50.3624 259.808 49.9061 256.796 49.7628C255.541 49.7972 254.285 49.7563 253.035 49.6402Z" fill="#263238"/>
<g opacity="0.3">
<path d="M277.427 55.333C275.388 52.4866 272.236 50.7297 269.164 49.1363C266.775 47.8007 264.241 46.7585 261.616 46.0312C258.974 45.2958 256.177 45.4147 253.604 46.3716C253.362 46.4408 253.136 46.5598 252.941 46.7213C252.745 46.8829 252.583 47.0836 252.465 47.3114C252.365 47.6404 252.39 47.9963 252.535 48.3072C252.68 48.6181 252.934 48.8609 253.246 48.9865C253.867 49.2463 254.537 49.3581 255.206 49.3133C262.943 49.5017 270.5 51.7544 277.136 55.8505" fill="black"/>
</g>
<g opacity="0.3">
<path d="M291.279 61.7203C296.598 61.3548 301.94 61.7074 307.17 62.769C309.084 63.0739 310.931 63.724 312.626 64.6892C313.469 65.1843 314.198 65.8601 314.765 66.6708C315.332 67.4816 315.722 68.4082 315.91 69.3878C315.947 69.5305 315.95 69.68 315.92 69.8243C315.89 69.9687 315.828 70.1037 315.738 70.2186C315.42 70.5454 314.89 70.3139 314.506 70.096C307.441 65.8741 299.648 63.0992 291.557 61.9246" fill="black"/>
</g>
<path d="M198.873 494.546L239.925 508.097C239.925 508.097 240.322 555.6 247.685 558.869L276.09 477.877L213.029 454.071L198.873 494.546Z" fill="#455A64"/>
<path d="M245.341 481.799C245.842 481.105 246.575 480.627 247.399 480.456C248.223 480.285 249.08 480.433 249.803 480.873C250.497 481.363 250.981 482.108 251.156 482.954C251.331 483.801 251.183 484.684 250.744 485.422C250.207 486.154 249.426 486.656 248.551 486.832C247.676 487.008 246.768 486.845 246.003 486.375C244.678 485.285 244.294 482.684 245.539 481.527" fill="#E0E0E0"/>
<g opacity="0.6">
<path d="M276.129 477.877L269.667 475.738L244.811 554.184C244.811 554.184 245.063 558.351 247.685 558.869L276.129 477.877Z" fill="white"/>
</g>
<path d="M239.104 509.268C239.488 509.391 240.362 507.484 242.282 506C244.202 504.515 246.175 504.066 246.149 503.644C246.122 503.222 243.699 502.99 241.408 504.842C239.117 506.694 238.72 509.214 239.104 509.268Z" fill="#263238"/>
<path d="M239.514 519.02C239.845 519.251 241.103 517.78 243.209 517.045C245.314 516.31 247.181 516.555 247.274 516.16C247.367 515.765 245.314 514.703 242.719 515.67C240.123 516.636 239.17 518.897 239.514 519.02Z" fill="#263238"/>
<path d="M247.724 527.518C247.936 527.191 246.215 525.924 243.751 526.156C241.288 526.388 239.779 527.926 240.057 528.212C240.335 528.498 241.844 527.777 243.871 527.613C245.897 527.45 247.552 527.899 247.724 527.518Z" fill="#263238"/>
<path d="M230.072 505.101C230.483 505.101 230.589 503.058 231.516 500.879C232.443 498.7 233.74 497.216 233.489 496.889C233.237 496.562 231.277 497.72 230.205 500.307C229.132 502.895 229.701 505.183 230.072 505.101Z" fill="#263238"/>
<path d="M352.075 499.749L311.024 513.3C311.024 513.3 310.613 560.803 303.264 564.071L274.792 483.079L337.972 459.273L352.075 499.749Z" fill="#455A64"/>
<path d="M305.594 487.001C305.09 486.306 304.355 485.828 303.529 485.657C302.702 485.486 301.844 485.635 301.118 486.075C300.429 486.57 299.95 487.315 299.778 488.161C299.606 489.006 299.753 489.887 300.191 490.624C300.726 491.359 301.507 491.863 302.383 492.039C303.259 492.215 304.167 492.051 304.932 491.577C306.256 490.488 306.64 487.887 305.396 486.729" fill="#E0E0E0"/>
<g opacity="0.6">
<path d="M274.792 483.079L281.255 480.941L306.084 559.386C306.084 559.386 305.819 563.554 303.211 564.071L274.792 483.079Z" fill="white"/>
</g>
<path d="M311.831 514.471C311.434 514.593 310.573 512.687 308.653 511.202C306.733 509.718 304.76 509.268 304.773 508.846C304.786 508.424 307.236 508.193 309.527 510.045C311.818 511.897 312.215 514.416 311.831 514.471Z" fill="#263238"/>
<path d="M311.394 524.222C311.05 524.454 309.792 522.983 307.699 522.247C305.607 521.512 303.727 521.757 303.621 521.362C303.515 520.967 305.594 519.905 308.176 520.872C310.759 521.839 311.752 524.086 311.394 524.222Z" fill="#263238"/>
<path d="M303.197 532.72C302.999 532.394 304.72 531.127 307.17 531.359C309.62 531.59 311.143 533.129 310.851 533.415C310.56 533.701 309.064 532.979 307.051 532.816C305.038 532.652 303.383 533.102 303.197 532.72Z" fill="#263238"/>
<path d="M320.862 510.304C320.452 510.304 320.346 508.261 319.419 506.082C318.492 503.903 317.181 502.418 317.446 502.091C317.711 501.764 319.657 502.922 320.717 505.51C321.776 508.097 321.233 510.385 320.862 510.304Z" fill="#263238"/>
<path d="M216.724 401.61C215.201 401.61 127.139 382.544 118.306 382.108C109.473 381.672 87.0537 389.871 85.5308 409.822C84.0079 429.774 84.2992 443.87 98.376 453.294C112.453 462.719 223.08 518.189 223.08 518.189L237.501 471.884L260.013 480.56L281.042 405.927L216.724 401.61Z" fill="#263238"/>
<path d="M209.361 450.938C209.053 450.796 208.752 450.637 208.461 450.462L205.918 448.991C203.733 447.629 200.621 445.777 196.715 443.352C186.559 437.15 176.991 429.983 168.137 421.943C162.986 417.217 157.901 412.928 153.253 409.06C150.922 407.126 148.737 405.26 146.632 403.612C144.652 402.103 142.572 400.737 140.408 399.526C137.284 397.773 133.936 396.48 130.462 395.686C129.231 395.413 128.251 395.264 127.589 395.182C127.253 395.161 126.921 395.106 126.596 395.019C126.935 394.994 127.276 394.994 127.615 395.019C128.585 395.075 129.549 395.198 130.502 395.386C134.038 396.08 137.453 397.315 140.633 399.05C142.832 400.228 144.948 401.566 146.963 403.054C149.148 404.661 151.333 406.513 153.677 408.42C158.351 412.274 163.463 416.591 168.614 421.29C177.45 429.293 186.946 436.493 196.993 442.808L206.09 448.623L208.553 450.216C208.851 450.421 209.123 450.663 209.361 450.938Z" fill="#455A64"/>
<path d="M144.169 391.845C145.205 392.366 146.167 393.031 147.029 393.82C149.221 395.604 151.14 397.716 152.723 400.085C154.304 402.466 155.461 405.118 156.14 407.916C156.473 409.06 156.633 410.249 156.617 411.443C156.365 411.525 155.822 405.995 152.154 400.548C148.486 395.1 143.996 392.05 144.169 391.845Z" fill="#455A64"/>
<path d="M314.281 402.414C315.804 402.414 403.866 383.347 412.686 382.898C421.505 382.448 443.951 390.674 445.474 410.626C446.997 430.578 446.692 444.673 432.629 454.098C418.565 463.522 307.911 518.979 307.911 518.979L293.49 472.674L270.978 481.349L249.949 406.717L314.281 402.414Z" fill="#263238"/>
<path d="M321.617 451.742C321.874 451.512 322.154 451.312 322.452 451.142L324.928 449.549L334.026 443.72C344.079 437.414 353.575 430.214 362.404 422.202C367.569 417.449 372.68 413.173 377.342 409.332C379.686 407.425 381.884 405.56 384.056 403.953C386.08 402.477 388.199 401.144 390.399 399.962C393.574 398.228 396.985 396.993 400.516 396.299C401.474 396.111 402.443 395.988 403.416 395.931C403.755 395.898 404.097 395.898 404.436 395.931C404.106 396.019 403.769 396.074 403.429 396.094C402.767 396.176 401.801 396.326 400.569 396.598C397.097 397.39 393.749 398.679 390.624 400.425C388.462 401.641 386.383 403.006 384.4 404.511C382.255 406.118 380.083 407.997 377.779 409.959C373.144 413.84 368.045 418.13 362.907 422.842C354.057 430.89 344.489 438.062 334.33 444.265C330.477 446.689 327.312 448.596 325.06 449.889L322.531 451.374C322.235 451.518 321.93 451.641 321.617 451.742Z" fill="#455A64"/>
<path d="M386.823 392.649C387.009 392.853 382.466 395.836 378.878 401.283C375.289 406.731 374.667 412.328 374.415 412.179C374.389 410.989 374.545 409.804 374.878 408.665C375.566 405.87 376.722 403.22 378.295 400.834C379.882 398.468 381.801 396.357 383.989 394.569C384.841 393.794 385.795 393.148 386.823 392.649Z" fill="#455A64"/>
<path d="M195.271 231.25L149.029 304.547C149.029 304.547 123.524 317.976 120.412 335.871C117.3 353.767 116.677 366.582 125.391 372.343C126.972 373.321 128.679 374.064 130.463 374.549C137.706 376.627 145.407 376.258 152.431 373.494C159.455 370.731 165.43 365.72 169.475 359.201L202.515 306.822L213.294 221.526C213.294 221.526 203.905 221.539 195.271 231.25Z" fill="#92E3A9"/>
<path d="M151.836 340.692H144.036C144.036 340.692 126.927 347.338 128.145 362.673C128.145 362.673 130.634 373.106 146.843 371.267L167.727 365.125L170.309 342.286L151.836 340.692Z" fill="#FFBE9D"/>
<path d="M353.015 226.606L316.32 205.973C316.32 205.973 296.827 227.763 271.124 227.137C245.42 226.51 240.441 211.516 240.441 211.516L207.626 222.738L202.541 306.835C202.541 306.835 202.7 404.279 203.931 404.279C205.163 404.279 339.932 407.221 339.932 407.221L338.104 342.122L353.015 226.606Z" fill="#92E3A9"/>
<path d="M351.307 225.639C351.307 225.639 368.164 232.707 378.586 262.56C382.665 274.231 404.422 320.495 413.335 339.33C416.931 346.736 418.314 355.073 417.307 363.286C416.804 367.059 415.784 370.6 413.811 372.819C409.6 377.477 365.384 393.248 365.384 393.248L347.639 364.417L361.649 353.862L341.375 317.09C341.375 317.09 342.474 274.259 343.414 262.301C344.355 250.344 351.307 225.639 351.307 225.639Z" fill="#92E3A9"/>
<path d="M199.681 251.746C199.866 251.746 200.912 270.813 202.025 294.333C203.137 317.853 203.866 336.933 203.68 336.947C203.495 336.961 202.435 317.88 201.336 294.36C200.237 270.84 199.482 251.76 199.681 251.746Z" fill="#263238"/>
<path d="M351.307 248.614C351.492 248.614 348.658 269.138 345.109 294.374C341.56 319.61 338.422 340.052 338.223 340.025C338.025 339.998 340.872 319.515 344.421 294.265C347.97 269.015 351.108 248.587 351.307 248.614Z" fill="#263238"/>
<path d="M167.303 323.982C167.131 324.118 164.244 320.114 159.702 316.205C155.159 312.297 150.869 310.022 150.975 309.818C151.99 310.143 152.96 310.601 153.862 311.18C156.09 312.473 158.196 313.978 160.152 315.674C162.107 317.366 163.903 319.245 165.515 321.285C166.227 322.097 166.828 323.004 167.303 323.982Z" fill="#263238"/>
<path d="M392.862 344.288C392.862 344.41 390.968 344.111 387.936 344.097C383.979 344.071 380.038 344.616 376.229 345.718C372.43 346.849 368.803 348.518 365.45 350.675C362.881 352.337 361.477 353.603 361.358 353.508C361.239 353.412 361.663 353.126 362.311 352.541C363.216 351.71 364.176 350.945 365.185 350.253C371.88 345.575 379.862 343.24 387.949 343.593C389.161 343.629 390.37 343.756 391.564 343.975C392.01 344.009 392.448 344.114 392.862 344.288Z" fill="#263238"/>
<path d="M386.505 332.317C386.505 332.439 384.691 332.861 381.871 334.005C380.231 334.679 378.639 335.466 377.103 336.361C375.244 337.479 373.473 338.745 371.806 340.147C368.766 342.719 366.126 345.755 363.98 349.15C362.338 351.764 361.583 353.549 361.464 353.494C361.558 353.044 361.71 352.61 361.914 352.2C362.385 351.056 362.939 349.95 363.569 348.891C364.486 347.299 365.526 345.787 366.681 344.369C368.11 342.642 369.678 341.043 371.369 339.589C373.083 338.168 374.913 336.901 376.838 335.803C378.413 334.912 380.056 334.156 381.751 333.542C382.886 333.11 384.05 332.764 385.234 332.507C385.648 332.387 386.075 332.322 386.505 332.317Z" fill="#263238"/>
<g opacity="0.3">
<path d="M341.136 317.145C347.202 311.425 350.062 302.804 350.605 294.36C351.148 285.917 349.598 277.5 348.062 269.192" fill="black"/>
</g>
<g opacity="0.3">
<path d="M361.437 353.276C364.897 348.043 370.032 344.222 375.948 342.48C381.864 340.739 388.186 341.185 393.815 343.743C382.362 342.343 370.836 345.674 361.768 353.004" fill="black"/>
</g>
<g opacity="0.3">
<path d="M168.005 324.213C167.541 321.176 166.348 318.306 164.532 315.864C162.717 313.421 160.337 311.484 157.61 310.226C156.06 309.532 153.968 309.191 152.922 310.567C158.901 314.149 164.048 319.029 168.005 324.867" fill="black"/>
</g>
<path d="M126.212 349.041C126.241 348.638 126.344 348.246 126.516 347.883C126.911 346.868 127.456 345.922 128.132 345.078C130.442 342.316 133.584 340.427 137.057 339.712C140.481 339.062 143.988 339.02 147.426 339.589C148.75 339.78 149.796 339.97 150.525 340.12C150.908 340.172 151.282 340.277 151.637 340.433C150.21 340.411 148.785 340.293 147.373 340.079C143.986 339.673 140.559 339.783 137.203 340.406C133.866 341.097 130.824 342.844 128.503 345.404C127.615 346.529 126.847 347.748 126.212 349.041Z" fill="#263238"/>
<path d="M274.196 286.652C273.846 282.263 272.556 278.008 270.42 274.192C268.285 270.375 265.355 267.092 261.841 264.576C259.222 262.582 256.121 261.366 252.876 261.062C251.254 260.923 249.624 261.181 248.119 261.815C246.613 262.45 245.275 263.442 244.215 264.712C241.249 268.607 242.202 274.626 245.341 278.331C248.479 282.035 253.286 283.996 257.948 285.058C262.609 286.121 267.522 286.489 272.13 287.932C266.926 289.199 261.616 290.52 257.127 293.489C252.637 296.458 249.035 301.456 249.102 306.958C249.168 312.46 253.988 317.853 259.285 317.118C263.337 316.559 266.317 312.937 268.33 309.273C272.283 302.417 274.314 294.568 274.196 286.597" fill="#FAFAFA"/>
<path d="M274.196 286.652C274.371 288.887 274.291 291.136 273.958 293.353C273.098 299.433 271.048 305.27 267.933 310.512C266.904 312.275 265.608 313.857 264.092 315.197C262.416 316.7 260.264 317.523 258.04 317.513C255.654 317.368 253.421 316.256 251.83 314.421C250.085 312.544 249.023 310.105 248.824 307.516C248.703 304.808 249.372 302.123 250.744 299.808C252.14 297.404 254.018 295.333 256.253 293.734C260.821 290.452 266.463 288.994 272.051 287.633V288.327C271.296 288.096 270.475 287.85 269.628 287.66C263.92 286.298 258.014 286.025 252.717 283.874C250.091 282.873 247.703 281.309 245.712 279.284C243.822 277.276 242.606 274.699 242.242 271.93C242.032 270.613 242.089 269.266 242.408 267.972C242.727 266.679 243.301 265.467 244.096 264.412C245.693 262.496 247.916 261.247 250.347 260.898C252.58 260.584 254.854 260.841 256.968 261.647C258.905 262.377 260.729 263.391 262.384 264.657C265.237 266.783 267.687 269.428 269.614 272.461C271.062 274.75 272.207 277.228 273.018 279.829C273.525 281.471 273.884 283.158 274.09 284.868C274.157 285.453 274.183 285.903 274.196 286.23C274.217 286.379 274.217 286.53 274.196 286.679C274.151 286.534 274.124 286.382 274.117 286.23C274.117 285.903 274.011 285.467 273.945 284.868C273.674 283.186 273.275 281.528 272.753 279.911C271.903 277.357 270.737 274.926 269.283 272.679C267.351 269.705 264.91 267.116 262.079 265.039C260.456 263.823 258.672 262.851 256.782 262.151C254.747 261.382 252.558 261.148 250.413 261.47C248.126 261.809 246.037 262.99 244.533 264.793C243.8 265.787 243.271 266.923 242.98 268.134C242.688 269.345 242.64 270.604 242.838 271.834C243.197 274.459 244.362 276.897 246.162 278.794C248.088 280.747 250.401 282.252 252.942 283.206C258.107 285.317 263.96 285.59 269.76 286.952C270.621 287.156 271.455 287.387 272.236 287.633L273.481 288L272.157 288.313C266.569 289.675 261.02 291.119 256.584 294.292C254.438 295.835 252.633 297.826 251.287 300.135C249.978 302.335 249.338 304.886 249.446 307.462C249.777 312.419 253.737 316.75 258.054 316.927C260.145 316.94 262.169 316.171 263.748 314.762C265.233 313.47 266.504 311.939 267.509 310.226C270.63 305.055 272.731 299.303 273.693 293.298C273.928 291.664 274.074 290.018 274.13 288.368C274.13 287.837 274.13 287.415 274.13 287.088C274.141 286.941 274.163 286.795 274.196 286.652Z" fill="#263238"/>
<path d="M277.242 286.652C277.592 282.263 278.882 278.008 281.018 274.192C283.153 270.375 286.083 267.092 289.597 264.576C292.216 262.582 295.317 261.366 298.562 261.062C300.184 260.923 301.814 261.181 303.319 261.815C304.825 262.45 306.163 263.442 307.223 264.712C310.189 268.607 309.236 274.626 306.097 278.331C302.959 282.035 298.152 283.996 293.49 285.058C288.829 286.121 283.916 286.489 279.308 287.932C284.512 289.199 289.822 290.52 294.311 293.489C298.801 296.458 302.403 301.456 302.336 306.958C302.27 312.46 297.45 317.853 292.153 317.118C288.101 316.559 285.121 312.937 283.108 309.273C279.155 302.417 277.124 294.568 277.242 286.597" fill="#FAFAFA"/>
<path d="M277.242 286.652C277.254 286.802 277.254 286.952 277.242 287.101C277.242 287.428 277.242 287.85 277.242 288.382C277.297 290.033 277.447 291.679 277.692 293.312C278.643 299.318 280.74 305.072 283.863 310.24C284.868 311.952 286.139 313.484 287.624 314.775C289.203 316.184 291.227 316.954 293.318 316.941C297.635 316.764 301.608 312.433 301.926 307.475C302.034 304.899 301.394 302.348 300.085 300.148C298.738 297.84 296.934 295.849 294.788 294.306C290.352 291.133 284.803 289.675 279.215 288.327L277.891 288.014L279.136 287.646C279.917 287.401 280.751 287.17 281.612 286.965C287.412 285.603 293.265 285.331 298.43 283.22C300.973 282.269 303.286 280.764 305.21 278.807C307.01 276.911 308.175 274.473 308.534 271.848C308.732 270.618 308.684 269.359 308.392 268.148C308.101 266.937 307.572 265.8 306.839 264.807C305.335 263.003 303.246 261.823 300.959 261.484C298.814 261.162 296.624 261.396 294.589 262.165C292.7 262.864 290.916 263.836 289.293 265.052C286.461 267.13 284.021 269.718 282.089 272.692C280.635 274.94 279.469 277.371 278.619 279.924C278.097 281.542 277.698 283.2 277.427 284.882C277.361 285.44 277.295 285.876 277.255 286.243C277.248 286.396 277.221 286.547 277.176 286.693C277.155 286.544 277.155 286.392 277.176 286.243C277.176 285.944 277.176 285.494 277.282 284.882C277.488 283.172 277.847 281.485 278.354 279.842C279.165 277.242 280.31 274.764 281.758 272.475C283.686 269.438 286.141 266.793 289.001 264.671C290.65 263.403 292.471 262.389 294.404 261.661C296.518 260.855 298.792 260.597 301.025 260.912C303.456 261.26 305.678 262.51 307.276 264.426C308.07 265.481 308.645 266.693 308.964 267.986C309.283 269.279 309.34 270.627 309.13 271.943C308.765 274.713 307.55 277.29 305.66 279.298C303.669 281.322 301.281 282.887 298.655 283.887C293.358 286.039 287.452 286.312 281.744 287.673C280.897 287.864 280.076 288.109 279.321 288.341V287.646C284.909 289.008 290.551 290.465 295.119 293.747C297.355 295.35 299.236 297.42 300.641 299.822C302.003 302.141 302.667 304.823 302.548 307.53C302.349 310.119 301.287 312.558 299.542 314.435C297.951 316.27 295.718 317.382 293.331 317.526C291.108 317.535 288.957 316.712 287.28 315.211C285.765 313.874 284.472 312.291 283.453 310.526C280.328 305.287 278.273 299.448 277.414 293.366C277.102 291.143 277.044 288.889 277.242 286.652Z" fill="#263238"/>
<path d="M275.719 309.954C275.323 309.951 274.945 309.787 274.665 309.499C274.385 309.212 274.226 308.822 274.223 308.415V278.794C274.223 278.384 274.38 277.991 274.66 277.701C274.94 277.41 275.321 277.245 275.719 277.241C276.117 277.245 276.498 277.41 276.778 277.701C277.058 277.991 277.215 278.384 277.215 278.794V308.415C277.212 308.822 277.053 309.212 276.773 309.499C276.493 309.787 276.115 309.951 275.719 309.954Z" fill="#263238"/>
<path d="M275.719 309.981C275.314 309.981 274.925 309.817 274.637 309.524C274.35 309.23 274.186 308.832 274.183 308.415V278.794C274.183 278.375 274.345 277.973 274.633 277.677C274.921 277.38 275.312 277.214 275.719 277.214C276.126 277.214 276.517 277.38 276.805 277.677C277.093 277.973 277.255 278.375 277.255 278.794V308.415C277.252 308.832 277.088 309.23 276.801 309.524C276.513 309.817 276.124 309.981 275.719 309.981ZM275.719 277.296C275.329 277.296 274.955 277.455 274.68 277.739C274.404 278.022 274.249 278.407 274.249 278.807V308.429C274.249 308.83 274.404 309.214 274.68 309.498C274.955 309.781 275.329 309.941 275.719 309.941C276.109 309.941 276.483 309.781 276.758 309.498C277.034 309.214 277.189 308.83 277.189 308.429V278.794C277.189 278.393 277.034 278.008 276.758 277.725C276.483 277.441 276.109 277.282 275.719 277.282V277.296Z" fill="#263238"/>
<path d="M267.482 261.416C268.32 262.072 269.048 262.863 269.641 263.758C271.198 265.834 272.46 268.127 273.388 270.568C274.322 272.99 274.923 275.534 275.176 278.126C275.341 279.191 275.341 280.276 275.176 281.341C274.557 274.084 271.887 267.172 267.495 261.457L267.482 261.416Z" fill="#263238"/>
<path d="M283.863 261.566C281.984 264.289 280.327 267.168 278.91 270.173C277.714 273.265 276.771 276.453 276.09 279.706C275.996 278.713 276.059 277.71 276.275 276.737C277.052 271.978 278.973 267.493 281.863 263.69C282.413 262.875 283.088 262.157 283.863 261.566Z" fill="#263238"/>
<path d="M274.924 289.58C274.818 289.58 274.13 288.218 272.753 286.094C269.128 280.566 264.086 276.177 258.186 273.414C255.922 272.366 254.438 271.916 254.478 271.794C254.518 271.671 254.862 271.794 255.551 271.998C256.51 272.251 257.453 272.57 258.371 272.951C264.511 275.508 269.694 280.018 273.163 285.821C273.685 286.696 274.15 287.606 274.554 288.545C274.728 288.869 274.853 289.218 274.924 289.58Z" fill="#263238"/>
<path d="M275.031 286.693C274.547 287.951 273.925 289.148 273.177 290.261C271.525 293.032 269.698 295.689 267.708 298.214C265.723 300.75 263.578 303.148 261.285 305.392C260.379 306.369 259.376 307.245 258.292 308.007C259.099 306.948 259.984 305.955 260.941 305.038C262.609 303.24 264.847 300.72 267.165 297.779C269.482 294.837 271.416 292.045 272.766 289.989C273.444 288.836 274.201 287.735 275.031 286.693Z" fill="#263238"/>
<path d="M292.034 273.414C291.118 274.175 290.154 274.871 289.147 275.498C286.805 277.133 284.591 278.955 282.526 280.946C280.464 282.931 278.547 285.071 276.792 287.347C276.121 288.34 275.387 289.287 274.594 290.179C275.06 289.057 275.67 288.003 276.408 287.047C278.069 284.653 279.959 282.436 282.049 280.428C284.138 278.413 286.423 276.624 288.869 275.089C289.851 274.397 290.915 273.834 292.034 273.414Z" fill="#263238"/>
<path d="M291.861 307.394C290.753 306.845 289.721 306.149 288.789 305.324C284.124 301.533 280.399 296.661 277.917 291.105C277.344 289.986 276.925 288.789 276.672 287.551C277.297 288.627 277.859 289.742 278.354 290.887C281.056 296.235 284.723 301.005 289.16 304.942C290.106 305.704 291.009 306.523 291.861 307.394Z" fill="#263238"/>
<path d="M311.381 326.283C311.381 326.488 296.086 326.637 277.215 326.637C258.345 326.637 243.05 326.488 243.05 326.283C243.05 326.079 258.345 325.929 277.215 325.929C296.086 325.929 311.381 326.093 311.381 326.283Z" fill="#263238"/>
<path d="M214.777 152.287C207.11 166.437 220.657 185.326 213.586 199.803C211.573 203.889 207.905 207.525 207.931 212.142C207.957 216.759 211.559 220.613 210.964 225.04C210.5 228.444 207.706 230.937 205.931 233.851C202.422 239.571 202.992 247.32 206.315 253.163C208.424 256.919 211.516 259.99 215.239 262.027C218.962 264.064 223.167 264.984 227.374 264.683C231.581 264.382 235.621 262.872 239.034 260.325C242.447 257.778 245.096 254.296 246.678 250.276C249.592 242.989 247.46 234.886 247.129 227.014C246.798 218.925 245.685 209.391 245.5 202.5C245.5 202.5 224.034 200.171 218.062 174.853C216.72 169.295 215.786 163.641 215.267 157.939C214.817 153.553 214.777 152.287 214.777 152.287Z" fill="#263238"/>
<path d="M347.943 364.852L319.604 374.971L324.014 384.927L334.833 399.404L363.927 390.919L347.943 364.852Z" fill="#FFBE9D"/>
<path d="M285.293 385.676L251.234 341.578H156.63L239.885 450.107L328.093 441.813L285.293 385.676Z" fill="#455A64"/>
<path d="M157.225 342.354L151.293 350.43L236.548 460.104L317.737 452.041L323.71 442.222L239.885 450.107L157.225 342.354Z" fill="#E0E0E0"/>
<path d="M261.602 354.202C262.083 353.394 262.457 352.524 262.715 351.615C262.959 350.632 262.959 349.602 262.715 348.619C262.361 347.451 261.659 346.428 260.709 345.695C259.758 344.961 258.606 344.555 257.418 344.533C256.433 344.531 255.463 344.784 254.597 345.268C253.817 345.78 253.101 346.388 252.465 347.08C252.399 347.08 252.796 345.895 254.359 344.846C255.377 344.167 256.576 343.83 257.789 343.884C259.002 343.938 260.168 344.379 261.126 345.146C262.204 345.976 262.979 347.157 263.324 348.496C263.578 349.579 263.546 350.712 263.231 351.778C263 352.766 262.42 353.631 261.602 354.202Z" fill="#263238"/>
<path d="M266.277 359.024C266.757 358.209 267.135 357.335 267.403 356.422C267.647 355.444 267.647 354.418 267.403 353.44C267.064 352.262 266.368 351.227 265.416 350.484C264.462 349.74 263.303 349.325 262.106 349.3C261.124 349.308 260.16 349.565 259.298 350.049C258.515 350.556 257.798 351.164 257.166 351.86C257.497 350.895 258.168 350.093 259.047 349.613C259.945 349.041 260.971 348.712 262.026 348.659C262.968 348.639 263.901 348.848 264.748 349.27C265.596 349.692 266.334 350.315 266.903 351.087C267.471 351.859 267.854 352.758 268.019 353.712C268.184 354.665 268.127 355.646 267.853 356.572C267.641 357.562 267.08 358.436 266.277 359.024Z" fill="#263238"/>
<path d="M270.965 363.845C271.442 363.028 271.82 362.154 272.091 361.243C272.328 360.264 272.328 359.24 272.091 358.261C271.736 357.095 271.033 356.073 270.083 355.34C269.132 354.607 267.982 354.199 266.794 354.175C265.812 354.182 264.847 354.439 263.986 354.924C263.199 355.426 262.482 356.035 261.854 356.735C261.788 356.735 262.185 355.537 263.735 354.488C264.53 353.976 265.431 353.663 266.366 353.575C267.301 353.487 268.242 353.627 269.115 353.982C269.987 354.337 270.766 354.898 271.389 355.62C272.012 356.342 272.461 357.205 272.7 358.138C272.96 359.225 272.928 360.364 272.607 361.434C272.37 362.419 271.785 363.279 270.965 363.845Z" fill="#263238"/>
<path d="M275.653 368.652C276.135 367.843 276.514 366.973 276.779 366.064C277.022 365.081 277.022 364.051 276.779 363.068C276.425 361.901 275.723 360.878 274.773 360.145C273.822 359.411 272.67 359.005 271.482 358.983C270.496 358.981 269.527 359.234 268.661 359.718C267.881 360.23 267.165 360.838 266.529 361.529C266.463 361.529 266.86 360.345 268.423 359.296C269.219 358.787 270.12 358.476 271.054 358.39C271.987 358.303 272.928 358.443 273.799 358.798C274.671 359.153 275.45 359.713 276.073 360.433C276.696 361.154 277.146 362.014 277.388 362.946C277.642 364.029 277.61 365.162 277.295 366.228C277.061 367.218 276.475 368.083 275.653 368.652Z" fill="#263238"/>
<path d="M257.802 463.155C257.802 462.269 205.547 396.803 188.001 371.812L190.755 364.852L275.64 356.681L282.949 358.996L344.898 452.831L257.802 463.155Z" fill="#263238"/>
<path d="M150.591 346.521C150.591 346.521 150.671 346.153 150.79 345.541C151.518 342.013 154.047 330.137 155.57 328.925C157.358 327.495 163.728 325.453 163.728 325.453H166.906C166.906 325.453 177.645 317.472 179.83 317.472C182.015 317.472 187.008 318.67 187.405 321.326C187.656 322.562 187.71 323.831 187.564 325.085C187.564 325.085 194.556 323.805 195.946 327.291C195.946 327.291 201.336 328.721 202.568 333.42C203.799 338.118 203.958 350.607 203.958 350.607C203.958 350.607 201.31 353.263 199.376 351.833C199.278 352.185 199.112 352.514 198.887 352.799C198.663 353.085 198.384 353.32 198.069 353.492C197.753 353.664 197.408 353.768 197.052 353.799C196.696 353.83 196.338 353.786 195.999 353.671C194.491 353.234 193.131 352.371 192.075 351.179C191.02 349.988 190.31 348.515 190.027 346.93C189.828 344.056 189.034 339.153 189.034 339.153L187.445 340.175C187.445 340.175 187.842 344.465 184.068 344.669C180.294 344.873 180.175 342.34 180.175 342.34L157.212 342.218L154.008 346.303L150.591 346.521Z" fill="#FFBE9D"/>
<path d="M187.709 322.947C188.001 325.988 188.068 329.047 187.908 332.099C187.972 335.154 187.804 338.209 187.405 341.237C187.113 338.196 187.047 335.136 187.206 332.085C187.142 329.03 187.31 325.975 187.709 322.947Z" fill="#EB996E"/>
<path d="M195.271 326.283C195.271 326.283 195.549 326.542 195.92 327.1C196.439 327.89 196.882 328.729 197.244 329.606C198.381 332.507 199.125 335.554 199.456 338.663C199.827 341.757 199.916 344.881 199.721 347.992C199.695 349.287 199.508 350.573 199.164 351.819C199.112 350.534 199.134 349.247 199.231 347.965C199.286 344.889 199.131 341.812 198.767 338.758C198.442 335.7 197.78 332.689 196.794 329.783C195.986 327.577 195.179 326.365 195.271 326.283Z" fill="#EB996E"/>
<path d="M175.156 332.126C176.361 330.614 177.69 329.21 179.128 327.931L179.738 327.346L179.645 328.204C179.526 329.484 179.433 330.927 179.393 332.507C179.234 338.118 180.055 342.64 179.844 342.667C179.465 341.735 179.232 340.746 179.155 339.739C178.787 337.339 178.636 334.909 178.705 332.48C178.739 331.022 178.85 329.567 179.036 328.122L179.552 328.394C178.194 329.766 176.723 331.014 175.156 332.126Z" fill="#EB996E"/>
<path d="M161.384 334.223C161.384 334.223 161.384 334.087 161.503 333.855C161.613 333.699 161.753 333.569 161.915 333.473C162.077 333.376 162.257 333.317 162.443 333.297C162.739 333.257 163.041 333.287 163.323 333.386C163.606 333.486 163.862 333.651 164.072 333.869C164.564 334.484 164.84 335.252 164.854 336.048C164.92 336.893 164.854 337.791 164.854 338.772C164.845 339.739 165.117 340.688 165.635 341.496C165.939 341.899 166.355 342.197 166.829 342.351C167.302 342.504 167.809 342.505 168.283 342.354C168.804 342.24 169.277 341.962 169.638 341.56C169.998 341.157 170.228 340.649 170.296 340.107C170.614 335.258 171.779 330.396 169.74 327.781C169.395 327.272 168.936 326.856 168.401 326.569C167.866 326.282 167.271 326.132 166.668 326.133C166.217 326.161 165.772 326.248 165.344 326.392C165.344 326.392 165.423 326.27 165.635 326.161C165.951 325.988 166.298 325.886 166.655 325.861C167.32 325.807 167.987 325.925 168.596 326.206C169.205 326.487 169.735 326.921 170.137 327.468C171.256 329.12 171.755 331.133 171.541 333.134C171.409 335.354 171.236 337.669 170.972 340.229C170.884 340.918 170.587 341.562 170.124 342.068C169.672 342.533 169.106 342.864 168.485 343.025C167.865 343.185 167.214 343.17 166.602 342.98C166.018 342.781 165.509 342.4 165.145 341.891C164.569 340.966 164.278 339.883 164.311 338.786C164.311 337.791 164.39 336.893 164.311 336.062C164.324 335.365 164.12 334.683 163.728 334.114C163.562 333.925 163.357 333.778 163.127 333.683C162.898 333.589 162.65 333.55 162.404 333.57C162.196 333.588 161.995 333.657 161.818 333.771C161.64 333.884 161.492 334.039 161.384 334.223Z" fill="#EB996E"/>
<path d="M233.025 513.232C229.053 510.14 225.437 506.218 220.763 504.298C215.731 502.227 199.72 501.724 194.635 499.79C185.207 496.208 187.617 487.301 192.225 475.371C195.933 465.769 201.005 456.658 209.361 450.938L197.641 433.097C188.73 447.725 181.158 463.172 175.023 479.239C172.256 486.443 169.726 494.219 171.501 501.778C172.467 505.658 174.493 509.173 177.34 511.907C180.186 514.642 183.734 516.481 187.564 517.208C195.814 518.57 204.607 514.675 212.473 517.576C216.353 518.938 219.491 521.921 222.855 524.386C232.477 531.284 244.215 534.335 255.868 532.966C260.212 532.434 265.377 530.31 265.787 525.829C254.306 523.187 242.427 520.463 233.025 513.232Z" fill="#92E3A9"/>
<g opacity="0.3">
<path d="M209.057 502.146C207.388 502.064 204.329 501.519 200.992 501.124C194.371 500.362 189.524 498.4 188.465 493.144C186.77 484.591 196.41 466.164 196.41 466.164C196.41 466.164 205.984 452.055 209.653 451.183L199.694 439.907C192.573 450.626 186.952 462.321 182.995 474.649C181.525 478.76 180.633 483.066 180.347 487.437C180.08 491.838 181.25 496.205 183.671 499.844C187.935 505.782 195.907 506.191 202.952 507.512C208.898 508.628 211.295 508.111 218.393 511.23C225.173 514.212 230.973 519.592 237.462 523.078C237.462 523.078 251.909 531.822 263.351 530.078C263.351 530.078 265.906 527.818 265.748 525.802C265.748 525.802 248.241 521.716 244.493 519.755C240.746 517.794 235.224 515.234 230.88 511.584C226.537 507.934 223.464 502.799 209.057 502.146Z" fill="black"/>
</g>
<path d="M263.351 530.01C262.882 530.173 262.398 530.287 261.907 530.351C260.504 530.529 259.086 530.529 257.683 530.351C252.549 529.532 247.535 528.054 242.759 525.952C239.433 524.541 236.264 522.769 233.303 520.668C230.033 518.529 226.603 516.16 222.895 513.858C221.968 513.272 221.014 512.7 220.048 512.156C219.054 511.653 218.022 511.234 216.962 510.903C214.804 510.208 212.539 509.65 210.222 509.146C205.587 508.152 200.727 507.321 195.748 506.599L193.377 506.014C190.831 505.456 188.392 504.466 186.16 503.085C185.069 502.358 184.114 501.436 183.34 500.362C182.6 499.309 181.982 498.171 181.499 496.971C179.774 492.358 179.487 487.308 180.678 482.521C182.378 474.491 184.95 466.684 188.345 459.246C190.646 454.235 193.302 449.406 196.291 444.796C197.363 443.175 198.198 441.936 198.807 441.105L199.495 440.179C199.563 440.062 199.648 439.956 199.747 439.866L199.548 440.22L198.926 441.187C198.357 442.045 197.602 443.312 196.516 444.946C193.642 449.6 191.08 454.45 188.849 459.464C185.531 466.875 183.017 474.639 181.353 482.616C180.204 487.271 180.491 492.178 182.174 496.657C182.635 497.805 183.226 498.893 183.936 499.899C184.666 500.897 185.563 501.755 186.584 502.432C188.753 503.763 191.12 504.719 193.589 505.264L195.947 505.837C200.965 506.558 205.825 507.403 210.513 508.424C212.831 508.928 215.108 509.5 217.307 510.208C218.407 510.565 219.475 511.02 220.498 511.57C221.491 512.115 222.445 512.7 223.372 513.286C227.08 515.656 230.496 518.039 233.754 520.191C236.673 522.298 239.803 524.078 243.09 525.502C247.82 527.634 252.781 529.175 257.868 530.092C259.249 530.303 260.648 530.358 262.04 530.255C262.887 530.106 263.351 529.969 263.351 530.01Z" fill="#263238"/>
<path d="M290.762 373.923C290.762 373.923 274.686 363.368 262.357 367.236C248.823 371.485 235.303 382.121 233.317 406.172C231.754 425.239 238.15 443.775 238.15 443.775L196.555 408.978C196.555 408.978 194.265 429.338 199.932 440.193C201.257 442.794 209.599 451.401 220.975 461.343C244.811 482.167 279.652 510.467 279.652 510.467C279.652 510.467 342.064 548.845 354.962 550.997C367.86 553.149 435.86 523.759 435.86 523.759C435.86 523.759 448.069 497.216 447.023 489.33C445.977 481.445 354.935 412.042 345.771 406.744C336.608 401.447 290.762 373.923 290.762 373.923Z" fill="#92E3A9"/>
<path d="M360.709 518.189C360.802 518.189 359.782 519.755 358.445 522.275C356.706 525.645 355.431 529.248 354.657 532.979C354.255 535.031 354.007 537.112 353.916 539.203C353.866 540.912 353.923 542.623 354.088 544.324C354.379 547.238 354.829 549.009 354.71 549.036C354.509 548.658 354.37 548.249 354.3 547.824C353.986 546.695 353.756 545.543 353.611 544.378C353.365 542.656 353.254 540.916 353.28 539.176C353.338 537.044 353.573 534.921 353.982 532.829C354.761 529.036 356.124 525.394 358.021 522.043C358.582 521.027 359.206 520.049 359.888 519.115C360.378 518.502 360.669 518.148 360.709 518.189Z" fill="#263238"/>
<path d="M279.665 482.684C279.023 482.286 278.415 481.831 277.851 481.322C276.712 480.437 275.097 479.13 273.123 477.468C269.151 474.159 263.854 469.406 258.239 463.917C252.624 458.429 247.645 453.376 243.95 449.712L239.66 445.368C239.119 444.856 238.615 444.305 238.15 443.72C238.759 444.149 239.327 444.637 239.845 445.177C240.918 446.144 242.427 447.574 244.295 449.358L258.716 463.4C264.357 468.847 269.588 473.682 273.441 477.019L278.023 481.104C278.61 481.586 279.159 482.114 279.665 482.684Z" fill="#263238"/>
<path d="M295.98 463.999C295.579 464.468 295.135 464.896 294.656 465.279C294.206 465.66 293.689 466.151 293.08 466.736C292.471 467.322 291.756 467.962 291.027 468.711C287.125 472.599 283.599 476.869 280.5 481.458C277.379 486.027 274.805 490.966 272.832 496.167C271.362 500.185 270.859 502.799 270.713 502.772C270.761 502.147 270.863 501.527 271.018 500.92C271.146 500.197 271.318 499.483 271.534 498.782C271.772 497.86 272.055 496.951 272.382 496.058C274.228 490.736 276.767 485.697 279.93 481.077C283.047 476.45 286.653 472.193 290.683 468.384C291.451 467.635 292.179 467.022 292.815 466.464C293.451 465.906 294.02 465.443 294.497 465.102C294.955 464.685 295.451 464.315 295.98 463.999Z" fill="#263238"/>
<path d="M444.56 487.914C444.627 488.104 425.902 495.023 402.754 503.385C379.606 511.747 360.762 518.366 360.709 518.189C360.656 518.012 379.354 511.08 402.516 502.718C425.677 494.356 444.494 487.737 444.56 487.914Z" fill="#263238"/>
<path d="M353.015 418.484C352.832 418.41 352.659 418.314 352.499 418.198L351.055 417.327L345.454 413.895L325.113 401.147L318.386 396.912C316.042 395.441 313.592 393.915 311.129 392.213C306.203 388.863 301.105 384.995 295.463 381.413C289.698 377.457 283.179 374.81 276.341 373.65C272.732 373.122 269.06 373.256 265.496 374.045C261.847 374.934 258.422 376.604 255.445 378.948C249.631 383.746 245.544 390.404 243.831 397.865C242.298 404.82 242.6 412.07 244.705 418.865C246.58 425.021 249.45 430.809 253.193 435.985C254.928 438.422 256.795 440.629 258.623 442.794C260.45 444.959 262.225 446.88 263.92 448.8C270.74 456.399 276.593 462.215 280.764 466.069C282.857 468.003 284.512 469.474 285.637 470.454L286.962 471.585C287.115 471.702 287.257 471.834 287.385 471.98C287.219 471.884 287.064 471.769 286.922 471.639L285.598 470.563C284.446 469.624 282.764 468.18 280.645 466.287C276.407 462.474 270.488 456.754 263.615 449.141C261.907 447.247 260.119 445.259 258.318 443.162C256.375 440.989 254.541 438.716 252.823 436.352C249.018 431.138 246.099 425.299 244.189 419.083C242.037 412.177 241.717 404.805 243.262 397.729C245.005 390.107 249.177 383.305 255.114 378.403C258.176 376.002 261.695 374.29 265.443 373.378C269.086 372.573 272.839 372.444 276.527 372.997C283.46 374.166 290.067 376.855 295.9 380.882C301.555 384.505 306.64 388.386 311.54 391.777C313.99 393.493 316.413 395.005 318.757 396.489L325.458 400.766L345.679 413.704L351.161 417.258L352.578 418.198L353.015 418.484Z" fill="#263238"/>
<path d="M353.015 411.879C352.687 411.715 352.373 411.523 352.075 411.307L349.426 409.605C347.149 408.12 343.838 405.995 339.72 403.449C331.47 398.314 319.856 391.573 307.249 383.851C304.097 381.89 301.038 379.97 298.059 378.131C295.079 376.292 292.166 374.644 289.345 373.16C286.525 371.676 283.77 370.354 281.162 369.238C278.782 368.137 276.277 367.35 273.706 366.895C269.976 366.202 266.143 366.355 262.476 367.345C261.127 367.755 259.801 368.241 258.504 368.802C259.702 368.05 260.994 367.469 262.344 367.072C266.043 365.969 269.936 365.741 273.732 366.405C276.349 366.838 278.903 367.606 281.334 368.693C283.982 369.796 286.723 371.104 289.57 372.574C292.418 374.045 295.371 375.707 298.363 377.532L307.554 383.238C320.187 390.96 331.734 397.783 339.918 403.013C344.01 405.628 347.294 407.807 349.519 409.373C350.645 410.136 351.492 410.735 352.075 411.198C352.409 411.393 352.724 411.621 353.015 411.879Z" fill="#263238"/>
<path d="M306.283 369.66L285.704 377.831C285.704 377.831 284.817 379.833 287.823 381.849C290.829 383.865 295.927 382.571 295.927 382.571L291.954 398.26C291.954 398.26 292.02 402.455 295.927 402.455C297.024 402.495 298.114 402.27 299.11 401.797C300.106 401.323 300.98 400.616 301.661 399.731C301.448 401.104 301.659 402.512 302.265 403.756C302.87 404.999 303.84 406.016 305.038 406.663C305.515 407.006 306.068 407.223 306.646 407.295C307.224 407.366 307.811 407.291 308.354 407.074C308.897 406.857 309.38 406.506 309.76 406.052C310.14 405.598 310.406 405.055 310.533 404.47C310.533 404.47 313.182 407.643 314.97 407.33C316.757 407.017 325.564 393.888 325.564 393.888L328.57 395.713L334.78 399.363C336.303 395.955 336.976 392.211 336.74 388.468C336.197 382.748 331.059 377.082 325.021 377.995C325.021 377.995 320.598 373.8 317.393 373.255C314.188 372.711 312.785 374.168 312.785 374.168C312.256 372.84 311.356 371.702 310.198 370.9C309.041 370.098 307.678 369.666 306.283 369.66Z" fill="#FFBE9D"/>
<path d="M314.996 407.371H314.639C314.285 407.356 313.939 407.268 313.619 407.112C312.415 406.475 311.34 405.606 310.454 404.552H310.692C310.405 405.561 309.794 406.439 308.958 407.044C308.422 407.353 307.818 407.515 307.203 407.515C306.589 407.515 305.984 407.353 305.448 407.044C304.16 406.492 303.072 405.54 302.336 404.32C301.529 402.919 301.215 401.274 301.449 399.663L301.899 399.853C301.236 400.717 300.397 401.421 299.44 401.915C298.484 402.409 297.434 402.682 296.364 402.713C295.775 402.781 295.178 402.725 294.611 402.547C294.044 402.369 293.519 402.073 293.067 401.678C292.183 400.768 291.672 399.545 291.637 398.26V398.178C292.855 393.384 294.192 388.073 295.609 382.475L296.007 382.898C293.829 383.42 291.563 383.42 289.385 382.898C288.263 382.575 287.238 381.966 286.406 381.127C285.918 380.712 285.557 380.161 285.364 379.541C285.172 378.92 285.157 378.256 285.32 377.627V377.504H285.466L290.22 375.611L306.044 369.306H306.111H306.177C307.68 369.3 309.147 369.776 310.375 370.668C311.555 371.543 312.473 372.742 313.023 374.127L312.493 374.004C313.541 373.181 314.847 372.784 316.162 372.888C316.783 372.911 317.4 373.002 318.002 373.16C318.578 373.338 319.137 373.571 319.671 373.855C321.657 374.942 323.5 376.288 325.153 377.859L324.915 377.777C327.015 377.495 329.146 377.945 330.967 379.057C332.579 380.028 333.941 381.383 334.939 383.007C335.835 384.414 336.444 385.994 336.727 387.651C336.927 389.044 336.959 390.458 336.82 391.859C336.618 393.803 336.173 395.712 335.496 397.538C335.257 398.178 335.059 398.641 334.913 398.9C334.848 399.064 334.764 399.22 334.661 399.363C334.703 399.194 334.761 399.03 334.833 398.873C334.953 398.546 335.125 398.069 335.337 397.429C335.922 395.596 336.299 393.699 336.462 391.777C336.568 390.414 336.515 389.042 336.303 387.692C335.976 385.998 335.304 384.394 334.332 382.986C333.36 381.578 332.109 380.397 330.662 379.52C328.937 378.493 326.929 378.086 324.955 378.362H324.822L324.716 378.267C323.094 376.746 321.292 375.442 319.353 374.386C318.348 373.839 317.232 373.54 316.095 373.514C314.953 373.431 313.819 373.764 312.891 374.454L312.546 374.753L312.361 374.331C311.856 373.077 311.015 371.996 309.938 371.212C308.814 370.412 307.477 369.989 306.111 370H306.23L290.405 376.32L285.863 378.199L286.048 378.022C285.941 378.521 285.972 379.041 286.138 379.523C286.304 380.004 286.599 380.428 286.988 380.746C287.727 381.497 288.638 382.045 289.637 382.339C291.68 382.829 293.805 382.829 295.848 382.339L296.391 382.23L296.245 382.761C294.802 388.345 293.438 393.657 292.193 398.437V398.355C292.22 399.48 292.654 400.553 293.411 401.365C294.221 402.043 295.258 402.366 296.298 402.264C297.288 402.242 298.261 401.999 299.15 401.553C300.04 401.106 300.824 400.466 301.449 399.676L302.032 398.886L301.886 399.867C301.673 401.36 301.948 402.883 302.668 404.198C303.352 405.347 304.365 406.25 305.568 406.785C306.052 407.067 306.6 407.215 307.157 407.215C307.714 407.215 308.261 407.067 308.746 406.785C309.528 406.235 310.107 405.428 310.388 404.497L310.467 404.266L310.626 404.443C311.466 405.495 312.484 406.381 313.632 407.058C314.054 407.28 314.523 407.388 314.996 407.371Z" fill="#EB996E"/>
<path d="M311.023 375.966C308.263 377.238 305.412 378.289 302.495 379.112L299.131 380.174C298.237 380.363 297.399 380.764 296.682 381.345C296.327 381.859 296.066 382.436 295.914 383.047C295.768 383.497 295.662 383.742 295.609 383.728C295.556 383.715 295.609 383.456 295.609 382.993C295.676 382.29 295.903 381.614 296.271 381.018C297.01 380.295 297.925 379.792 298.92 379.561L302.283 378.431C305.13 377.379 308.052 376.554 311.023 375.966Z" fill="#EB996E"/>
<path d="M316.731 381.195C315.538 381.623 314.322 381.977 313.089 382.258C311.79 382.624 310.533 383.136 309.341 383.783C307.908 384.574 306.678 385.703 305.753 387.079C305.329 387.816 305.029 388.622 304.865 389.462L304.256 391.873C303.872 393.412 303.501 394.801 303.17 395.958C302.878 397.227 302.433 398.453 301.846 399.608C302.073 398.331 302.365 397.068 302.72 395.822C303.012 394.583 303.316 393.207 303.66 391.736C303.846 390.947 304.031 390.129 304.23 389.299C304.411 388.387 304.738 387.513 305.197 386.711C306.184 385.236 307.513 384.038 309.063 383.225C310.323 382.573 311.658 382.088 313.036 381.781C314.24 381.435 315.481 381.238 316.731 381.195Z" fill="#EB996E"/>
<path d="M322.941 386.52C322.941 386.629 321.617 386.874 319.618 387.514C318.445 387.879 317.343 388.451 316.36 389.203C315.187 390.165 314.274 391.423 313.711 392.853C312.493 395.904 312.281 399.009 311.659 401.133C311.455 402.322 311.003 403.451 310.335 404.443C310.229 404.443 310.811 403.163 311.235 401.025C311.46 399.949 311.646 398.655 311.897 397.211C312.142 395.626 312.555 394.073 313.129 392.581C313.72 391.043 314.704 389.697 315.976 388.686C317.03 387.907 318.222 387.347 319.485 387.038C320.604 386.68 321.77 386.505 322.941 386.52Z" fill="#EB996E"/>
<path d="M372.932 420.622C368.297 417.054 361.888 414.916 355.955 417.245C342.289 422.611 313.169 440.697 301.661 449.399C298.363 451.894 296.02 455.498 295.04 459.586L294.298 462.746C294.298 462.746 355.054 507.539 363.159 508.288C371.263 509.037 433.807 480.846 433.807 480.846C433.807 480.846 437.595 470.917 431.662 465.674C406.634 443.598 390.385 434.064 372.932 420.622Z" fill="#E0E0E0"/>
<path d="M361.888 494.383C361.793 495.116 361.611 495.834 361.345 496.521C360.83 498.179 360.545 499.902 360.497 501.642C360.505 503.369 360.962 505.062 361.822 506.545C362.242 507.137 362.618 507.76 362.947 508.411C362.947 508.411 362.219 507.947 361.411 506.817C360.375 505.302 359.82 503.494 359.822 501.642C359.853 499.827 360.217 498.034 360.895 496.358C361.097 495.639 361.434 494.968 361.888 494.383Z" fill="#263238"/>
<path d="M361.888 494.383C362.104 494.249 362.335 494.144 362.576 494.07L364.602 493.307L372.058 490.583C378.361 488.227 387.022 484.863 396.556 481.05L420.936 471.312L428.352 468.384L430.378 467.622C430.606 467.519 430.847 467.446 431.093 467.404C430.886 467.547 430.664 467.666 430.431 467.758L428.444 468.643L421.121 471.775C414.911 474.39 406.303 477.917 396.755 481.69C387.207 485.462 378.52 488.745 372.177 490.992C368.999 492.109 366.43 492.994 364.629 493.552L362.563 494.192C362.346 494.282 362.119 494.346 361.888 494.383Z" fill="#263238"/>
<path d="M360.842 494.383C360.586 494.354 360.336 494.285 360.1 494.179C359.637 494.002 358.922 493.797 358.048 493.416C355.563 492.389 353.135 491.221 350.777 489.916C344.765 486.674 336.913 481.431 328.265 475.616C319.618 469.801 311.514 465.034 305.925 461.071C303.131 459.082 300.973 457.339 299.529 456.086C298.788 455.473 298.205 454.969 297.874 454.629C297.543 454.288 297.304 454.098 297.331 454.084C297.357 454.071 297.556 454.207 297.953 454.52L299.688 455.882C301.198 457.067 303.383 458.742 306.203 460.662C311.818 464.503 320.015 469.16 328.636 475.03C337.257 480.9 345.057 486.143 350.989 489.48C353.942 491.169 356.392 492.394 358.127 493.171C359.862 493.947 360.855 494.383 360.842 494.383Z" fill="#263238"/>
<path d="M322.134 456.413C321.627 455.733 320.997 455.16 320.28 454.724L315.234 451.211L313.42 452.572C314.742 454.595 316.259 456.475 317.949 458.184C318.525 458.81 319.244 459.278 320.041 459.545C320.439 459.664 320.861 459.66 321.257 459.534C321.652 459.408 322.003 459.166 322.266 458.837C322.475 458.464 322.574 458.035 322.551 457.605C322.527 457.174 322.382 456.76 322.134 456.413Z" fill="#92E3A9"/>
<path d="M371.581 419.655C371.37 419.825 371.138 419.967 370.893 420.077L368.853 421.126L361.345 424.926C355.015 428.14 346.262 432.607 336.833 437.973C332.132 440.697 327.709 443.42 323.736 445.872C319.764 448.323 316.254 450.775 313.367 452.858C311.898 453.88 310.613 454.86 309.474 455.705C308.335 456.549 307.355 457.271 306.574 457.884L304.747 459.246C304.323 459.545 304.098 459.709 304.071 459.682C304.248 459.477 304.443 459.29 304.654 459.123L306.415 457.625C307.17 456.985 308.123 456.263 309.249 455.337C310.375 454.411 311.633 453.458 313.076 452.409C315.937 450.271 319.446 447.86 323.392 445.273C327.338 442.685 331.788 440.016 336.502 437.306C345.957 431.94 354.737 427.527 361.133 424.422C364.338 422.883 366.933 421.698 368.747 420.826L370.827 419.887C371.072 419.789 371.324 419.711 371.581 419.655Z" fill="#263238"/>
<path d="M357.372 518.57C357.1 518.609 356.823 518.609 356.551 518.57C355.774 518.509 355 518.404 354.234 518.257C351.401 517.725 348.649 516.809 346.05 515.533C342.201 513.629 338.557 511.314 335.178 508.628C331.311 505.687 327.232 502.173 322.796 498.877C318.512 495.877 314.054 493.148 309.448 490.706C305.666 488.669 302.079 486.271 298.734 483.542C296.488 481.681 294.509 479.503 292.855 477.073C292.404 476.414 291.992 475.727 291.623 475.017C291.482 474.778 291.37 474.522 291.292 474.254C291.292 474.254 291.862 475.248 293.067 476.91C294.79 479.243 296.797 481.339 299.039 483.147C302.399 485.802 305.984 488.141 309.752 490.134C314.406 492.553 318.9 495.282 323.207 498.305C327.722 501.628 331.735 505.115 335.549 508.111C338.885 510.79 342.469 513.125 346.248 515.084C348.803 516.389 351.502 517.372 354.287 518.012C356.286 518.42 357.372 518.502 357.372 518.57Z" fill="#263238"/>
<path d="M219.558 460.104C219.13 459.878 218.733 459.594 218.379 459.259L215.347 456.781C211.974 454.067 208.751 451.161 205.693 448.078C202.528 445.051 200 441.39 198.264 437.319C197.976 436.612 197.754 435.877 197.602 435.127C197.445 434.571 197.343 434.001 197.297 433.424C197.241 432.936 197.241 432.442 197.297 431.953C197.642 433.719 198.134 435.45 198.767 437.129C200.604 441.061 203.137 444.608 206.236 447.588C209.745 451.211 213.254 454.18 215.704 456.399C216.949 457.503 217.942 458.401 218.617 459.055C218.969 459.367 219.284 459.718 219.558 460.104Z" fill="#263238"/>
<path d="M370.932 445.94C370.551 445.596 370.1 445.342 369.613 445.199C369.125 445.055 368.612 445.025 368.112 445.109C367.012 445.109 366.072 446.853 365.993 447.983C365.835 449.842 366.198 451.709 367.039 453.362C365.757 452.46 364.345 451.771 362.854 451.32C361.597 450.877 360.246 450.797 358.948 451.088C358.298 451.246 357.701 451.583 357.223 452.063C356.745 452.543 356.403 453.147 356.233 453.812C356.149 454.491 356.237 455.181 356.487 455.816C356.738 456.45 357.143 457.008 357.663 457.434C358.719 458.272 359.912 458.909 361.186 459.314C367.224 461.629 373.356 463.686 379.487 465.742C378.56 458.265 376.017 451.333 370.932 445.94Z" fill="#92E3A9"/>
<path d="M256.888 523.732C256.888 523.732 282.38 527.409 288.193 523.732C293.609 520.314 294.007 519.129 294.007 519.129L299.847 522.588C296.473 526.721 291.778 529.482 286.604 530.378C273.362 532.543 255.167 529.561 255.167 529.561L256.888 523.732Z" fill="#263238"/>
<path d="M277.348 528.512C277.348 528.512 277.507 528.839 277.586 529.493C277.634 529.898 277.607 530.31 277.507 530.705C277.362 531.275 277.005 531.764 276.513 532.067C275.953 532.385 275.344 532.601 274.712 532.707C273.985 532.917 273.215 532.917 272.488 532.707C272.072 532.553 271.712 532.272 271.455 531.903C271.197 531.498 271.055 531.026 271.044 530.541C271.044 529.67 271.044 528.853 271.044 527.967C270.985 527.085 271.056 526.199 271.256 525.339C271.404 524.914 271.652 524.534 271.978 524.232C272.304 523.93 272.697 523.716 273.123 523.609C273.856 523.414 274.628 523.437 275.348 523.677C275.681 523.759 276.002 523.887 276.302 524.059C276.581 524.246 276.81 524.504 276.964 524.808C277.134 525.322 277.232 525.859 277.255 526.401C277.255 526.81 277.321 527.191 277.361 527.559C277.415 527.893 277.415 528.233 277.361 528.567C277.361 528.567 277.215 528.226 277.083 527.6C277.003 527.246 276.937 526.864 276.858 526.456C276.793 525.99 276.678 525.533 276.513 525.094C276.369 524.863 276.174 524.67 275.944 524.53C275.714 524.391 275.456 524.308 275.189 524.29C274.572 524.1 273.913 524.1 273.296 524.29C272.967 524.376 272.665 524.546 272.417 524.784C272.169 525.022 271.984 525.321 271.879 525.652C271.72 526.445 271.667 527.256 271.72 528.063C271.799 529.765 271.349 531.726 272.739 532.148C273.351 532.353 274.006 532.381 274.633 532.23C275.204 532.167 275.76 532.001 276.275 531.74C276.626 531.535 276.912 531.232 277.1 530.865C277.288 530.498 277.369 530.083 277.334 529.67C277.278 529.286 277.283 528.895 277.348 528.512Z" fill="#263238"/>
<g opacity="0.3">
<path d="M427.981 510.235C426.983 509.668 425.811 509.522 424.71 509.827C405.906 512.687 380.798 519.265 371.581 531.263C387.331 522.758 404.622 517.695 422.366 516.391C424.17 516.449 425.952 515.977 427.504 515.029C428.881 513.872 429.424 511.339 427.981 510.235Z" fill="black"/>
</g>
</svg>
