<svg width="696" height="844" viewBox="0 0 696 844" fill="none" xmlns="http://www.w3.org/2000/svg">
<path fill-rule="evenodd" clip-rule="evenodd" d="M336.666 158.721C410.449 151.889 482.741 194.405 528.876 252.323C571.036 305.253 574.354 377.444 564.149 444.31C555.505 500.949 518.011 544.429 478.026 585.507C437.204 627.447 394.333 667.83 336.666 678.018C266.848 690.353 186.773 694.094 134.553 646.19C81.2493 597.29 73.4582 516.106 81.9068 444.31C89.4233 380.436 134.233 332.916 177.068 284.897C223.989 232.298 266.436 165.224 336.666 158.721Z" fill="#CAE6FF"/>
<path d="M252.28 287.812C250.366 283.981 248.885 279.944 247.866 275.778C246.843 271.574 247.252 267.145 249.027 263.205C250.189 260.964 251.839 259.041 252.745 256.695C253.988 253.481 253.686 249.658 255.812 246.913C259.111 242.667 265.756 243.969 270.681 241.881C274.527 240.263 277.315 236.533 281.323 235.407C284.808 234.433 288.548 235.665 291.778 237.248C295.007 238.832 298.248 240.767 301.827 241.436C304.405 241.694 306.996 241.812 309.587 241.788C312.166 241.952 314.896 242.644 316.638 244.579C318.381 246.514 318.625 249.951 316.638 251.558C321.204 250.983 325.281 255.722 325.026 260.354C324.77 264.987 321.157 268.928 316.894 270.676C312.63 272.424 307.867 272.353 303.302 271.849C290.384 270.289 277.559 264.811 269.125 254.76" fill="#263238"/>
<path d="M255.742 271.556L244.241 335.994C242.289 346.949 245.612 364.144 257.81 365.575C270.844 367.029 279.986 363.229 281.81 352.978C282.67 348.122 283.808 333.977 283.936 333.484C283.936 333.484 300.456 334.892 304.521 318.87C306.496 311.129 309.261 294.849 311.585 280.083C312.788 272.437 311.097 264.615 306.848 258.171C302.599 251.727 296.103 247.135 288.653 245.306L287.119 244.931C270.356 241.846 258.344 254.513 255.742 271.556Z" fill="#FFBE9D"/>
<path d="M283.936 333.473C276.588 331.643 269.913 327.728 264.699 322.189C264.699 322.189 267.22 335.901 283.449 338.352L283.936 333.473Z" fill="#EB996E"/>
<path d="M301.954 291.377C301.818 291.979 301.453 292.502 300.938 292.833C300.422 293.165 299.798 293.278 299.201 293.148C298.907 293.1 298.625 292.993 298.372 292.834C298.12 292.675 297.901 292.466 297.729 292.22C297.557 291.975 297.435 291.697 297.371 291.403C297.306 291.109 297.301 290.805 297.354 290.509C297.487 289.906 297.852 289.38 298.367 289.046C298.883 288.712 299.508 288.597 300.107 288.727C300.402 288.776 300.684 288.884 300.937 289.045C301.189 289.205 301.408 289.415 301.58 289.662C301.752 289.908 301.873 290.187 301.938 290.482C302.002 290.776 302.008 291.081 301.954 291.377Z" fill="#263238"/>
<path d="M306.264 287.132C305.916 287.366 304.499 285.654 302.059 285.056C299.619 284.457 297.517 285.255 297.331 284.891C297.226 284.727 297.645 284.258 298.562 283.871C299.802 283.398 301.155 283.316 302.442 283.636C303.715 283.949 304.858 284.659 305.707 285.665C306.369 286.428 306.439 287.038 306.264 287.132Z" fill="#263238"/>
<path d="M278.964 286.346C278.831 286.947 278.468 287.471 277.955 287.805C277.442 288.138 276.82 288.255 276.223 288.129C275.927 288.081 275.645 287.973 275.391 287.813C275.137 287.653 274.918 287.443 274.746 287.196C274.574 286.949 274.452 286.67 274.389 286.375C274.325 286.08 274.321 285.775 274.376 285.478C274.512 284.877 274.877 284.353 275.392 284.022C275.907 283.69 276.531 283.577 277.129 283.707C277.423 283.753 277.706 283.859 277.959 284.018C278.212 284.178 278.43 284.386 278.602 284.633C278.773 284.879 278.893 285.158 278.956 285.452C279.018 285.746 279.021 286.05 278.964 286.346Z" fill="#263238"/>
<path d="M282.113 281.69C281.764 281.912 280.347 280.212 277.896 279.614C275.444 279.015 273.365 279.813 273.167 279.449C273.075 279.273 273.481 278.804 274.411 278.429C275.644 277.944 276.997 277.862 278.279 278.194C279.554 278.495 280.698 279.202 281.543 280.212C282.159 280.986 282.287 281.584 282.113 281.69Z" fill="#263238"/>
<path d="M286.62 302.18C288.008 302.091 289.401 302.178 290.767 302.438C291.406 302.52 292.033 302.544 292.242 302.145C292.442 301.499 292.442 300.808 292.242 300.163L291.545 294.908C290.628 287.448 290.128 281.361 290.384 281.326C290.639 281.291 291.662 287.319 292.579 294.791C292.8 296.632 292.998 298.38 293.183 300.057C293.397 300.914 293.303 301.82 292.916 302.614C292.77 302.813 292.582 302.977 292.364 303.092C292.147 303.208 291.907 303.273 291.662 303.282C291.294 303.291 290.927 303.251 290.57 303.165C289.217 303.005 287.89 302.674 286.62 302.18Z" fill="#263238"/>
<path d="M278.964 302.121C279.371 302.192 278.732 304.877 280.544 307.341C282.356 309.804 285.191 310.202 285.191 310.578C285.191 310.754 284.436 310.941 283.239 310.683C281.676 310.325 280.289 309.419 279.324 308.126C278.395 306.891 277.978 305.339 278.163 303.798C278.337 302.649 278.79 302.063 278.964 302.121Z" fill="#263238"/>
<path d="M285.075 272.166C284.68 272.775 282.31 271.861 279.359 271.497C276.408 271.133 273.888 271.368 273.655 270.664C273.551 270.336 274.108 269.808 275.2 269.386C276.644 268.9 278.177 268.754 279.685 268.957C281.193 269.16 282.635 269.708 283.901 270.559C284.854 271.215 285.261 271.872 285.075 272.166Z" fill="#263238"/>
<path d="M307.089 279.766C306.531 280.223 304.986 279.226 302.965 278.699C300.944 278.171 299.131 278.159 298.876 277.467C298.771 277.15 299.178 276.646 300.037 276.294C301.196 275.906 302.443 275.874 303.619 276.202C304.796 276.53 305.85 277.203 306.647 278.136C307.252 278.898 307.344 279.52 307.089 279.766Z" fill="#263238"/>
<path d="M254.174 283.777C253.93 283.59 244.032 277.819 241.732 288.891C239.432 299.963 250.909 300.01 251.025 299.693C251.142 299.377 254.174 283.777 254.174 283.777Z" fill="#FFBE9D"/>
<path d="M248.516 294.767C248.516 294.767 248.296 294.861 247.947 294.943C247.45 295.047 246.933 294.95 246.506 294.673C245.438 293.993 244.845 291.929 245.217 289.923C245.38 288.97 245.758 288.067 246.321 287.284C246.5 286.964 246.751 286.692 247.054 286.488C247.356 286.284 247.702 286.155 248.063 286.111C248.296 286.099 248.526 286.17 248.713 286.312C248.9 286.453 249.031 286.656 249.085 286.885C249.167 287.225 249.085 287.425 249.085 287.46C249.085 287.495 249.353 287.319 249.364 286.85C249.357 286.563 249.255 286.286 249.074 286.064C248.949 285.918 248.796 285.798 248.624 285.711C248.453 285.625 248.266 285.573 248.075 285.56C247.611 285.559 247.155 285.677 246.748 285.902C246.342 286.128 245.999 286.454 245.751 286.85C245.086 287.711 244.635 288.72 244.439 289.794C244.055 292.046 244.752 294.368 246.239 295.166C246.514 295.317 246.818 295.402 247.13 295.417C247.442 295.431 247.753 295.373 248.04 295.248C248.447 295.06 248.551 294.826 248.516 294.767Z" fill="#EB996E"/>
<path d="M315.383 265.163C313.327 269.21 303.511 270.394 296.459 267.919C289.954 265.574 287.747 261.316 283.681 257.457C281.125 255.018 281.125 255.018 276.827 254.384C273.342 253.88 270.391 257.27 267.649 259.498C268.753 268.424 264.489 277.033 260.354 284.997C259.993 285.93 259.33 286.711 258.472 287.214C256.95 287.906 255.207 286.651 254.371 285.184C253.035 282.839 252.989 279.989 253.209 277.291C253.481 271.126 254.966 265.078 257.577 259.498C260.217 253.905 264.432 249.221 269.694 246.033C276.418 242.257 284.333 241.269 291.766 243.277C299.169 245.337 305.739 249.705 310.539 255.757C312.894 258.429 314.547 261.655 315.349 265.14" fill="#263238"/>
<path d="M291.813 291.178C291.905 291.178 291.917 290.217 292.417 288.61C293.155 286.343 294.612 284.384 296.564 283.038C297.994 282.063 299.641 281.461 301.358 281.285C303.075 281.109 304.808 281.365 306.403 282.03C308.297 282.804 309.917 284.137 311.05 285.853C312.266 287.681 312.872 289.853 312.783 292.053C312.693 294.252 311.911 296.366 310.551 298.087C309.289 299.694 307.583 300.886 305.648 301.512C304.004 302.04 302.255 302.15 300.559 301.831C298.862 301.512 297.27 300.773 295.925 299.682C294.093 298.19 292.802 296.128 292.254 293.817C291.882 292.164 291.952 291.202 291.859 291.202C291.766 291.202 291.801 291.436 291.778 291.894C291.744 292.562 291.79 293.231 291.917 293.888C292.356 296.352 293.634 298.584 295.53 300.198C296.939 301.406 298.628 302.235 300.44 302.608C302.251 302.981 304.127 302.886 305.892 302.333C307.997 301.682 309.856 300.402 311.224 298.661C312.717 296.802 313.577 294.506 313.675 292.114C313.774 289.722 313.106 287.362 311.77 285.384C310.948 284.154 309.891 283.102 308.66 282.291C307.429 281.479 306.05 280.925 304.603 280.661C303.157 280.396 301.672 280.427 300.238 280.75C298.803 281.074 297.447 281.685 296.25 282.546C294.234 283.998 292.781 286.113 292.138 288.528C291.957 289.173 291.855 289.839 291.836 290.51C291.778 290.944 291.778 291.178 291.813 291.178Z" fill="#263238"/>
<path d="M265.814 285.466C265.907 285.466 265.907 284.504 266.418 282.886C267.153 280.62 268.611 278.665 270.565 277.326C271.994 276.353 273.639 275.752 275.354 275.576C277.068 275.4 278.8 275.655 280.393 276.317C282.333 277.138 283.98 278.537 285.113 280.326C286.246 282.116 286.812 284.211 286.736 286.334C286.64 288.536 285.855 290.651 284.494 292.374C283.235 293.984 281.528 295.177 279.592 295.799C277.95 296.334 276.202 296.446 274.506 296.127C272.81 295.807 271.22 295.066 269.88 293.97C268.051 292.475 266.761 290.414 266.209 288.105C265.825 286.463 265.907 285.501 265.814 285.501C265.721 285.501 265.756 285.736 265.721 286.193C265.693 286.857 265.74 287.522 265.86 288.175C266.296 290.644 267.574 292.881 269.473 294.497C270.598 295.453 271.9 296.173 273.303 296.614C274.707 297.055 276.183 297.208 277.646 297.065C279.109 296.922 280.529 296.485 281.823 295.78C283.117 295.075 284.258 294.117 285.179 292.961C286.672 291.101 287.532 288.805 287.63 286.414C287.728 284.022 287.061 281.662 285.725 279.684C284.904 278.452 283.847 277.399 282.617 276.587C281.386 275.775 280.007 275.219 278.561 274.954C277.114 274.688 275.63 274.718 274.195 275.04C272.76 275.363 271.403 275.973 270.205 276.834C268.182 278.286 266.724 280.406 266.081 282.827C265.906 283.47 265.804 284.131 265.779 284.797C265.767 285.22 265.779 285.466 265.814 285.466Z" fill="#263238"/>
<path d="M287.375 286.745C287.48 286.967 288.908 286.369 290.523 286.944C292.138 287.519 292.847 288.867 293.114 288.75C293.381 288.633 293.183 288.281 292.835 287.706C292.36 286.941 291.64 286.363 290.795 286.069C289.949 285.774 289.029 285.781 288.188 286.088C287.607 286.322 287.317 286.639 287.375 286.745Z" fill="#263238"/>
<path d="M251.083 281.983C251.083 282.229 254.569 282.534 258.937 282.651C263.305 282.769 266.801 282.651 266.813 282.417C266.824 282.182 263.328 281.865 258.96 281.748C254.592 281.631 251.095 281.736 251.083 281.983Z" fill="#263238"/>
<path d="M131.638 372.026L153.117 396.656L179.558 372.026L201.014 397.325C201.014 397.325 176.793 422.718 163.933 428.289C151.851 433.521 146.112 428.829 141.965 427.773C137.818 426.718 115.85 386.851 115.85 386.851L131.638 372.026Z" fill="#FFBE9D"/>
<path d="M145.079 343.712C145.079 343.712 143.917 345.436 140.896 350.89C137.876 356.344 138.178 362.854 136.528 367.991C134.554 374.184 132.637 375.345 132.637 375.345L115.85 386.851C115.85 386.851 107.718 381.796 104.977 377.186C102.235 372.577 97.809 356.731 97.809 356.731L90.1534 342.856C90.0963 342.46 90.1403 342.056 90.2812 341.683C90.5898 341.12 91.0367 340.646 91.579 340.307C92.1213 339.969 92.7406 339.777 93.3776 339.75C94.0146 339.723 94.6478 339.861 95.2163 340.153C95.7849 340.444 96.2696 340.878 96.6241 341.413C96.6241 341.413 99.2263 339.067 103.594 341.73C107.219 343.9 106.859 347.043 106.859 347.043C108.996 348.063 119.266 364.331 121.833 360.121C122.961 358.098 124.482 356.327 126.305 354.913C134.437 350.573 132.939 350.562 136.424 345.94C139.909 341.319 144.312 340.24 145.079 343.712Z" fill="#FFBE9D"/>
<path d="M101.41 364.12C101.348 363.895 101.313 363.663 101.306 363.428C101.306 362.901 101.201 362.255 101.131 361.423C100.992 359.605 100.818 357.118 100.597 354.069C100.492 352.509 100.388 350.808 100.26 348.99C100.26 348.075 100.144 347.125 100.086 346.152C99.9387 345.124 99.986 344.077 100.225 343.067C100.401 342.502 100.772 342.019 101.271 341.706C101.783 341.404 102.376 341.272 102.967 341.331C103.555 341.391 104.122 341.584 104.625 341.897C105.128 342.21 105.554 342.634 105.871 343.137C106.45 344.153 106.844 345.265 107.033 346.421C107.277 347.594 107.532 348.697 107.776 349.858C109.101 356.004 110.332 361.763 111.378 366.666L111.11 366.466C113.492 366.321 115.875 366.722 118.081 367.639C119.776 368.321 121.347 369.284 122.727 370.489C123.595 371.263 124.374 372.133 125.051 373.081C125.283 373.41 125.434 373.691 125.539 373.867C125.643 374.043 125.701 374.137 125.69 374.149C124.749 372.899 123.682 371.751 122.507 370.724C121.134 369.586 119.588 368.679 117.93 368.038C115.787 367.195 113.486 366.838 111.192 366.994H110.959V366.771C109.891 361.868 108.636 356.11 107.288 349.975C107.033 348.802 106.789 347.63 106.533 346.539C106.334 345.448 105.941 344.403 105.372 343.454C105.108 343.023 104.75 342.659 104.325 342.391C103.9 342.122 103.419 341.956 102.92 341.906C102.459 341.833 101.986 341.928 101.588 342.176C101.19 342.423 100.892 342.805 100.748 343.255C100.532 344.196 100.485 345.17 100.609 346.128C100.609 347.102 100.713 348.04 100.76 348.955C100.853 350.785 100.946 352.474 101.027 354.045C101.166 357.095 101.282 359.593 101.364 361.411C101.364 362.232 101.364 362.889 101.364 363.417C101.399 363.649 101.415 363.885 101.41 364.12Z" fill="#EB996E"/>
<path d="M128.559 353.67C128.002 354.154 127.408 354.593 126.782 354.984C125.365 356.004 124.129 357.257 123.123 358.69C122.146 360.139 121.532 361.805 121.333 363.546C121.325 364.283 121.275 365.019 121.182 365.751C120.936 365.032 120.841 364.269 120.904 363.51C120.986 361.661 121.582 359.873 122.623 358.35C123.659 356.833 124.996 355.551 126.55 354.585C127.154 354.151 127.837 353.84 128.559 353.67Z" fill="#EB996E"/>
<path d="M100.562 349.753C99.7381 348.378 98.9933 346.956 98.3317 345.495C97.5092 344.116 96.8317 342.653 96.3103 341.132C97.3583 342.355 98.2233 343.726 98.8777 345.202C99.7147 346.6 100.286 348.143 100.562 349.753Z" fill="#EB996E"/>
<path d="M165.919 411.951C164.441 408.962 162.683 406.122 160.668 403.471C158.497 400.956 156.098 398.651 153.501 396.586C154.406 396.979 155.251 397.5 156.01 398.135C157.915 399.567 159.639 401.229 161.145 403.084C162.647 404.944 163.915 406.985 164.92 409.16C165.391 410.034 165.728 410.975 165.919 411.951Z" fill="#EB996E"/>
<path d="M245.681 328.218C245.681 328.218 214.594 336.593 201.014 345.906C194.23 350.597 170.81 378.524 170.81 378.524L194.207 413.523L218.382 389.584L245.681 328.218Z" fill="#E0E0E0"/>
<path d="M204.685 393.396L212.689 487.509L231.729 488.846H324.549L324.305 392.012L320.216 349.412L284.47 335.654C271.773 348.122 251.397 344.979 245.6 328.394L204.685 393.396Z" fill="#E0E0E0"/>
<path d="M202.304 364.073C202.466 364.073 203.663 376.975 204.964 392.903C206.265 408.831 207.195 421.78 207.032 421.803C206.869 421.827 205.673 408.902 204.36 392.962C203.047 377.022 202.141 364.085 202.304 364.073Z" fill="#263238"/>
<g opacity="0.3">
<path d="M243.114 470.279L241.104 471.041C248.649 470.587 256.003 468.47 262.65 464.839C269.297 461.207 275.076 456.15 279.58 450.023C267.951 457.799 256.195 465.517 243.114 470.279Z" fill="black"/>
</g>
<path d="M280.718 420.443C280.674 420.645 280.599 420.838 280.498 421.018C280.288 421.44 280.044 421.968 279.731 422.613C279.417 423.258 278.987 424.138 278.441 425.076C277.895 426.014 277.28 427.117 276.594 428.278C274.93 431.019 273.119 433.665 271.169 436.207C268.772 439.308 266.188 442.258 263.432 445.038C260.652 447.801 257.707 450.39 254.615 452.791C252.087 454.744 249.454 456.553 246.727 458.21C245.565 458.949 244.485 459.524 243.544 460.052C242.603 460.579 241.778 461.002 241.093 461.33L239.513 462.092C239.335 462.195 239.143 462.27 238.944 462.315C239.1 462.185 239.272 462.075 239.455 461.987L240.977 461.119C241.65 460.767 242.464 460.321 243.381 459.747C244.299 459.172 245.379 458.574 246.506 457.847C248.83 456.404 251.443 454.551 254.278 452.346C257.331 449.937 260.244 447.352 263.002 444.605C265.739 441.834 268.321 438.913 270.739 435.855C272.935 433.005 274.794 430.354 276.234 428.043C276.989 426.87 277.593 425.838 278.151 424.912C278.709 423.985 279.162 423.164 279.522 422.495L280.381 420.959C280.482 420.78 280.595 420.607 280.718 420.443Z" fill="#263238"/>
<path d="M142.72 545.039L150.062 578.819C150.062 578.819 118.174 595.216 118.871 601.596L184.658 592.049L175.364 538.952L142.72 545.039Z" fill="#455A64"/>
<g opacity="0.6">
<path d="M169.765 572.239C170.429 572.317 171.041 572.641 171.483 573.148C171.925 573.654 172.165 574.308 172.158 574.984C172.102 575.653 171.796 576.277 171.302 576.728C170.808 577.178 170.163 577.423 169.497 577.411C168.792 577.327 168.143 576.982 167.675 576.443C167.207 575.903 166.954 575.208 166.965 574.491C167.093 573.795 167.482 573.176 168.051 572.763C168.621 572.35 169.326 572.175 170.02 572.274" fill="white"/>
</g>
<g opacity="0.6">
<path d="M184.658 592.049L183.717 586.701L120.497 598.148C119.88 598.602 119.384 599.202 119.052 599.896C118.72 600.589 118.562 601.355 118.592 602.124L184.658 592.049Z" fill="white"/>
</g>
<path d="M148.935 578.678C149.005 578.995 150.631 578.854 152.42 579.605C154.209 580.355 155.267 581.552 155.534 581.364C155.801 581.176 154.988 579.405 152.85 578.537C150.713 577.669 148.819 578.397 148.935 578.678Z" fill="#263238"/>
<path d="M142.569 582.807C142.569 583.123 144.033 583.417 145.357 584.59C146.682 585.763 147.262 587.135 147.576 587.064C147.89 586.994 147.773 585.129 146.089 583.71C144.405 582.291 142.569 582.49 142.569 582.807Z" fill="#263238"/>
<path d="M140.246 591.803C140.548 591.803 140.699 590.126 139.56 588.519C138.422 586.912 136.761 586.466 136.668 586.818C136.575 587.17 137.679 587.885 138.596 589.234C139.514 590.583 139.874 591.826 140.246 591.803Z" fill="#263238"/>
<path d="M148.111 570.796C148.297 571.066 149.679 570.351 151.514 570.14C153.35 569.929 154.849 570.245 155 569.94C155.151 569.635 153.559 568.767 151.41 569.014C149.261 569.26 147.913 570.574 148.111 570.796Z" fill="#263238"/>
<g opacity="0.3">
<path d="M144.184 551.725L145.485 557.754L177.56 551.549L176.619 546.083L144.184 551.725Z" fill="black"/>
</g>
<path d="M146.751 563.947C146.751 564.087 148.076 564.052 150.027 563.337C151.169 562.905 152.253 562.334 153.257 561.636C153.856 561.226 154.427 560.776 154.965 560.287C155.295 560.013 155.581 559.689 155.813 559.325C155.979 559.058 156.053 558.744 156.024 558.43C155.994 558.116 155.863 557.82 155.65 557.59C155.45 557.393 155.207 557.247 154.941 557.163C154.674 557.079 154.392 557.061 154.117 557.109C153.711 557.179 153.319 557.314 152.955 557.508C151.151 558.307 149.58 559.558 148.389 561.143C147.123 562.832 146.821 564.134 146.949 564.181C147.077 564.228 147.669 563.114 148.994 561.66C149.77 560.813 150.653 560.072 151.619 559.455C152.187 559.099 152.781 558.789 153.396 558.528C154.047 558.223 154.639 558.106 154.872 558.387C155.104 558.669 154.976 558.54 154.872 558.762C154.697 559.026 154.485 559.263 154.244 559.466C153.754 559.938 153.234 560.376 152.688 560.78C151.768 561.476 150.783 562.08 149.749 562.586C148.723 562.977 147.722 563.432 146.751 563.947Z" fill="#263238"/>
<path d="M147.216 564.334C147.344 564.334 147.762 563.09 147.507 560.979C147.226 559.006 146.423 557.147 145.183 555.596C144.928 555.191 144.573 554.86 144.154 554.634C143.735 554.408 143.265 554.295 142.79 554.305C142.508 554.373 142.25 554.519 142.045 554.726C141.84 554.933 141.696 555.193 141.628 555.478C141.536 555.898 141.497 556.327 141.512 556.757C141.535 557.516 141.672 558.267 141.919 558.985C142.319 560.189 143.01 561.273 143.928 562.14C145.52 563.618 146.914 563.759 146.926 563.642C146.937 563.524 145.764 563.043 144.498 561.577C143.765 560.736 143.222 559.743 142.906 558.669C142.724 558.044 142.63 557.396 142.627 556.745C142.627 556.018 142.755 555.408 143.034 555.431C143.313 555.455 143.998 555.795 144.37 556.299C144.799 556.816 145.187 557.365 145.532 557.941C146.066 558.944 146.457 560.018 146.693 561.132C147.216 563.055 147.077 564.322 147.216 564.334Z" fill="#263238"/>
<path d="M140.42 553.555C140.42 553.555 117.86 460.31 117.604 447.549C117.337 434.002 129.651 422.613 137.922 420.666C146.194 418.719 164.549 425.146 174.702 437.954C184.855 450.762 217.174 475.077 217.174 475.077C230.533 485.199 250.328 489.503 268.288 480.014C268.288 480.014 294.705 521.5 296.425 520.456C299.526 518.556 297.505 523.775 295.031 530.226C290.14 542.964 280.451 553.825 269.206 554.094L204.639 557.015L179.523 528.643L181.846 548.265L140.42 553.555Z" fill="#263238"/>
<path d="M181.23 542.647C181.123 542.322 181.045 541.989 180.998 541.65C180.87 541.005 180.661 540.043 180.475 538.788C179.91 535.26 179.522 531.706 179.314 528.138C178.989 522.847 178.935 517.542 179.151 512.245C179.244 509.254 179.407 506.123 179.604 502.862C179.872 499.527 179.969 496.179 179.895 492.834C179.691 486.368 178.98 479.928 177.769 473.575C176.824 468.379 175.504 463.259 173.819 458.257C172.701 454.881 171.274 451.618 169.555 448.51C169.094 447.664 168.59 446.841 168.045 446.047C167.85 445.767 167.675 445.473 167.522 445.167C167.752 445.416 167.962 445.683 168.15 445.965C168.733 446.74 169.268 447.551 169.753 448.393C171.567 451.471 173.062 454.729 174.214 458.116C175.972 463.119 177.343 468.252 178.315 473.469C179.558 479.846 180.289 486.315 180.499 492.81C180.57 496.176 180.469 499.543 180.197 502.897C179.987 506.146 179.825 509.278 179.709 512.281C179.465 518.239 179.488 523.622 179.709 528.126C179.929 532.63 180.371 536.266 180.708 538.764C180.859 540.019 181.033 540.981 181.114 541.65C181.179 541.978 181.218 542.312 181.23 542.647Z" fill="#455A64"/>
<path d="M221.75 495.578C221.565 495.578 221.75 491.579 221.03 486.723C220.31 481.867 219.137 478.067 219.311 478.009C219.746 478.775 220.071 479.601 220.275 480.46C220.886 482.482 221.34 484.548 221.634 486.641C221.926 488.735 222.051 490.849 222.006 492.963C222.043 493.843 221.957 494.723 221.75 495.578Z" fill="#455A64"/>
<path d="M209.402 558L177.153 569.647C177.153 569.647 180.359 605.69 174.609 608.423L147.681 547.08L197.169 526.836L209.402 558Z" fill="#455A64"/>
<g opacity="0.6">
<path d="M172.216 549.285C171.797 548.761 171.203 548.411 170.545 548.301C169.888 548.191 169.213 548.328 168.649 548.687C168.124 549.085 167.768 549.669 167.652 550.322C167.535 550.975 167.668 551.648 168.022 552.206C168.466 552.763 169.098 553.135 169.798 553.25C170.497 553.364 171.213 553.214 171.809 552.827C172.328 552.351 172.644 551.69 172.689 550.983C172.735 550.276 172.507 549.579 172.053 549.039" fill="white"/>
</g>
<g opacity="0.6">
<path d="M147.681 547.08L152.676 545.04L176.619 605.186C176.567 605.956 176.328 606.702 175.923 607.356C175.517 608.011 174.958 608.555 174.295 608.939L147.681 547.08Z" fill="white"/>
</g>
<path d="M177.873 570.526C177.571 570.644 176.828 569.178 175.271 568.063C173.714 566.949 172.123 566.679 172.135 566.351C172.146 566.023 174.063 565.765 175.933 567.149C177.804 568.533 178.175 570.48 177.873 570.526Z" fill="#263238"/>
<path d="M177.781 578.15C177.513 578.338 176.48 577.224 174.795 576.696C173.111 576.168 171.647 576.426 171.542 576.121C171.438 575.816 173.064 574.948 175.144 575.617C177.223 576.286 178.059 578.021 177.781 578.15Z" fill="#263238"/>
<path d="M171.496 584.977C171.321 584.73 172.657 583.698 174.621 583.804C176.584 583.909 177.792 585.082 177.595 585.305C177.397 585.528 176.166 585.012 174.551 584.941C172.936 584.871 171.612 585.27 171.496 584.977Z" fill="#263238"/>
<path d="M184.925 567.055C184.599 567.055 184.472 565.471 183.67 563.794C182.868 562.117 181.811 561.003 182.009 560.733C182.206 560.463 183.786 561.331 184.692 563.313C185.598 565.295 185.227 567.102 184.925 567.055Z" fill="#263238"/>
<g opacity="0.3">
<path d="M203.012 560.299L197.274 562.375L185.448 531.633L190.536 529.545L203.012 560.299Z" fill="black"/>
</g>
<path d="M191.361 564.533C191.233 564.533 190.571 563.454 190.141 561.401C189.898 560.198 189.797 558.97 189.839 557.742C189.871 557.014 189.953 556.289 190.083 555.572C190.136 555.142 190.254 554.723 190.431 554.329C190.568 554.045 190.794 553.815 191.073 553.673C191.352 553.531 191.669 553.485 191.976 553.543C192.248 553.61 192.499 553.74 192.711 553.924C192.923 554.107 193.089 554.338 193.196 554.599C193.358 554.995 193.46 555.414 193.498 555.842C193.601 556.572 193.636 557.31 193.603 558.047C193.554 559.287 193.307 560.511 192.871 561.671C192.116 563.653 191.186 564.603 191.082 564.521C190.977 564.439 191.593 563.348 192.116 561.425C192.409 560.315 192.561 559.172 192.569 558.024C192.571 557.348 192.516 556.673 192.406 556.006C192.313 555.279 192.093 554.716 191.744 554.657C191.605 554.657 191.558 554.657 191.419 554.868C191.293 555.16 191.207 555.468 191.163 555.783C191.028 556.449 190.935 557.123 190.884 557.801C190.775 558.971 190.775 560.149 190.884 561.319C191.114 562.379 191.273 563.452 191.361 564.533Z" fill="#263238"/>
<path d="M190.803 564.357C190.71 564.263 191.558 563.184 193.463 562.328C194.589 561.819 195.79 561.502 197.018 561.389C197.744 561.314 198.476 561.314 199.202 561.389C199.673 561.395 200.134 561.523 200.541 561.761C200.948 562 201.287 562.34 201.525 562.75C201.631 563.03 201.655 563.334 201.596 563.626C201.536 563.919 201.395 564.189 201.189 564.404C200.888 564.706 200.548 564.967 200.178 565.178C199.53 565.561 198.829 565.845 198.098 566.022C196.878 566.326 195.602 566.326 194.381 566.022C192.29 565.448 191.43 564.322 191.523 564.251C192.51 564.636 193.519 564.961 194.544 565.225C195.643 565.412 196.769 565.352 197.843 565.049C198.46 564.872 199.05 564.612 199.597 564.275C200.224 563.911 200.654 563.442 200.48 563.231C200.306 563.02 199.667 562.586 199.039 562.539C198.385 562.45 197.724 562.419 197.065 562.445C195.933 562.497 194.814 562.71 193.742 563.078C191.918 563.724 190.919 564.533 190.803 564.357Z" fill="#263238"/>
<path d="M204.429 519.4C204.429 519.4 269.206 458.234 290.465 461.494C311.724 464.755 316.893 475.159 318.822 483.603C320.75 492.048 320.111 517.441 291.115 532.408C262.119 547.374 200.236 563.642 200.236 563.642L187.353 527.2L204.429 519.4Z" fill="#263238"/>
<path d="M204.43 519.4C204.43 519.4 204.058 519.599 203.326 519.951L200.05 521.476L187.399 527.341L187.469 527.165C190.675 536.161 195.113 548.593 200.445 563.583L200.178 563.431C215.385 559.314 233.217 554.13 252.617 547.55C262.306 544.23 272.366 540.583 282.566 536.114C285.121 535.047 287.619 533.768 290.151 532.595C291.429 532.009 292.614 531.223 293.857 530.543L295.704 529.487C296.332 529.147 296.866 528.689 297.482 528.314C302.335 525.167 306.614 521.199 310.133 516.585C315.732 509.347 318.891 500.49 319.147 491.309C319.28 488.381 318.987 485.449 318.276 482.606C317.603 479.815 316.468 477.158 314.919 474.748C313.379 472.397 311.431 470.347 309.168 468.696C306.955 467.066 304.532 465.748 301.966 464.778C299.463 463.794 296.888 463.009 294.264 462.433L290.372 461.729L288.455 461.612L286.539 461.787C284.031 462.189 281.579 462.886 279.231 463.864C274.711 465.736 270.348 467.976 266.186 470.561C258.685 475.18 251.434 480.199 244.462 485.597C231.683 495.426 221.727 504.035 214.92 509.993C211.528 512.984 208.914 515.342 207.148 516.937L205.127 518.79C204.674 519.201 204.43 519.4 204.43 519.4L205.08 518.743L207.055 516.878C208.798 515.26 211.377 512.867 214.757 509.841C221.518 503.824 231.369 495.168 244.195 485.281C251.159 479.849 258.407 474.798 265.907 470.15C270.09 467.543 274.476 465.284 279.022 463.394C281.41 462.396 283.905 461.684 286.457 461.271C287.108 461.213 287.77 461.119 288.432 461.084L290.442 461.201L294.368 461.905C297.025 462.472 299.632 463.257 302.163 464.251C304.777 465.236 307.247 466.573 309.505 468.227C311.825 469.912 313.821 472.011 315.395 474.42C316.99 476.884 318.167 479.599 318.88 482.454C319.599 485.351 319.896 488.338 319.763 491.321C319.763 492.822 319.554 494.324 319.415 495.825C319.275 497.326 318.95 498.828 318.532 500.282C317.087 506.305 314.399 511.953 310.644 516.855C307.098 521.539 302.774 525.567 297.865 528.76C297.261 529.159 296.703 529.616 296.064 529.933L294.206 531C292.951 531.692 291.755 532.478 290.465 533.064C287.921 534.296 285.412 535.563 282.844 536.642C272.656 541.122 262.549 544.758 252.849 548.066C233.414 554.622 215.57 559.795 200.341 563.841L200.143 563.9L200.073 563.7C194.799 548.699 190.431 536.243 187.295 527.235V527.118H187.411L200.097 521.382L203.407 519.904C204.035 519.553 204.43 519.4 204.43 519.4Z" fill="#455A64"/>
<path d="M238.99 475.511C237.991 473.681 240.047 470.467 238.095 469.775C230.614 467.113 236.353 455.173 228.697 457.26L218.451 475.581C222.924 478.349 221.019 486.137 224.922 489.656C227.245 491.708 230.626 491.591 233.588 490.911C244.857 488.365 254.371 482.36 257.275 471.077C257.751 469.013 239.943 477.352 238.99 475.511Z" fill="#E0E0E0"/>
<path d="M345.681 273.655C339.314 274.523 332.24 278.569 329.8 284.586C327.907 289.278 330.067 296.245 330.149 301.312C330.149 305.394 330.276 309.522 330.509 313.58C330.509 313.979 330.416 314.366 330.369 314.753C329.581 320.167 329.192 325.632 329.208 331.103C329.208 332.581 329.382 334.059 329.556 335.502C329.661 336.217 329.754 336.933 329.905 337.636C330.056 338.34 330.16 339.056 330.346 339.724C330.984 342.348 331.867 344.905 332.983 347.36C334.847 351.445 337.137 355.318 339.814 358.913C341.57 361.325 343.458 363.635 345.471 365.833L345.901 366.29L350.629 378.535C352.209 382.617 353.836 386.746 356.612 390.159C359.389 393.572 363.582 396.023 367.857 395.601C369.816 395.31 371.679 394.557 373.294 393.401C374.909 392.245 376.231 390.72 377.151 388.951C378.987 385.373 379.913 381.391 379.846 377.362L345.681 273.655ZM341.742 357.587C339.443 353.948 337.445 350.123 335.771 346.152C333.769 341.359 332.666 336.232 332.518 331.033C332.518 330.2 332.518 329.379 332.518 328.558C334.457 336.214 336.946 343.717 339.965 351.007L343.729 360.754C343.102 359.722 342.439 358.666 341.742 357.529V357.587Z" fill="#263238"/>
<path d="M403.057 352.31L357.007 371.006C357.007 371.006 374.015 409.289 388.617 405.852C403.22 402.416 410.318 367.323 410.318 367.323L403.057 352.31Z" fill="#FFBE9D"/>
<path d="M405.334 353.822C405.334 353.822 410.399 388.798 395.761 391.625C385.504 393.595 361.666 368.66 361.666 368.66C357.507 369.903 354.417 372.061 351.129 374.125C346.046 377.375 342.285 382.358 340.531 388.169C338.776 393.98 339.145 400.233 341.568 405.793C346.656 417.663 353.336 433.11 357.112 441.098C363.768 455.172 379.358 463.969 379.358 463.969L378.08 493.901C378.08 493.901 418.287 485.386 439.836 487.568C461.386 489.749 475.651 484.999 475.651 484.999L447.016 434.694L425.129 351.606C425.129 351.606 415.139 352.309 405.334 353.822Z" fill="#455A64"/>
<path d="M425.129 351.606C425.129 351.606 438.198 351.488 445.796 367.334C449.71 375.486 466.009 402.908 466.009 402.216L490.567 365.387L511.989 377.421C511.989 377.421 492.02 420.079 488.848 426.483C485.677 432.887 481.553 441.848 469.506 443.127C457.459 444.405 445.737 434.166 443.205 428.09C440.672 422.015 422.294 390.323 422.294 389.385C422.294 388.446 425.129 351.606 425.129 351.606Z" fill="#455A64"/>
<path d="M466.555 468.977C466.387 468.773 466.24 468.553 466.114 468.321C465.823 467.84 465.452 467.148 464.952 466.409C463.941 464.673 462.524 462.245 460.758 459.242C457.215 453.073 452.313 444.534 446.737 434.846V434.776V434.705C446.62 432.055 446.481 429.298 446.26 426.495C445.848 420.321 444.741 414.214 442.961 408.292C441.525 403.458 439.295 398.902 436.363 394.815C434.374 392.067 431.985 389.639 429.276 387.614C428.3 386.922 427.534 386.441 426.953 386.089C426.666 385.934 426.394 385.753 426.14 385.549C426.44 385.668 426.731 385.81 427.011 385.972C427.811 386.414 428.586 386.9 429.334 387.426C432.125 389.394 434.584 391.802 436.618 394.557C439.651 398.646 441.962 403.233 443.449 408.116C445.271 414.07 446.402 420.218 446.818 426.436C447.039 429.263 447.166 432.031 447.283 434.647V434.506C452.777 444.241 457.622 452.815 461.13 459.008C462.814 462.057 464.185 464.509 465.161 466.268L466.23 468.238C466.359 468.475 466.468 468.722 466.555 468.977Z" fill="#263238"/>
<path d="M467.066 418.191C466.31 415.675 465.9 413.066 465.847 410.438C465.736 408.59 465.736 406.738 465.847 404.89C465.837 404.116 465.943 403.345 466.16 402.603C466.335 402.603 466.16 406.122 466.462 410.403C466.764 414.684 467.241 418.156 467.066 418.191Z" fill="#263238"/>
<path d="M411.398 408.538C411.643 408.995 411.834 409.479 411.967 409.981C412.169 410.553 412.34 411.137 412.478 411.728C412.641 412.409 412.873 413.194 413.001 414.074C413.188 415.032 413.323 415.999 413.407 416.971C413.547 418.015 413.558 419.141 413.605 420.326C413.636 425.487 412.62 430.6 410.619 435.35C410.183 436.384 409.694 437.394 409.156 438.377C408.714 439.242 408.221 440.08 407.68 440.887C407.216 441.649 406.716 442.282 406.298 442.857C405.935 443.346 405.548 443.816 405.136 444.264C404.819 444.672 404.461 445.046 404.067 445.379C403.974 445.297 405.461 443.666 407.309 440.687C407.817 439.872 408.282 439.03 408.703 438.165C409.202 437.262 409.62 436.23 410.097 435.163C411.034 432.817 411.761 430.391 412.269 427.914C412.744 425.424 413.001 422.897 413.036 420.361C413.036 419.188 413.036 418.085 412.896 417.053C412.757 416.021 412.699 415.059 412.571 414.18C412.083 410.696 411.282 408.62 411.398 408.538Z" fill="#263238"/>
<path d="M387.095 291.741C386.114 288.213 384.437 284.921 382.166 282.062C379.894 279.203 377.075 276.836 373.876 275.104C370.677 273.371 367.165 272.309 363.55 271.979C359.935 271.649 356.291 272.06 352.836 273.186C338.896 277.608 331.101 292.644 334.586 306.813C337.653 319.222 341.01 331.643 342.834 335.901C348.341 348.732 357.936 350.55 361.654 350.75C362.922 350.685 364.18 350.485 365.406 350.151C365.43 350.147 365.456 350.152 365.477 350.165C365.498 350.178 365.514 350.198 365.522 350.222L368.775 366.255C371.493 376.506 380.485 382.852 390.766 380.154C401.047 377.456 405.612 366.748 403.08 356.415L387.095 291.741Z" fill="#FFBE9D"/>
<path d="M343.392 313.252C343.53 313.817 343.882 314.305 344.374 314.61C344.865 314.915 345.455 315.013 346.017 314.882C346.296 314.831 346.562 314.725 346.8 314.57C347.038 314.415 347.244 314.214 347.405 313.979C347.566 313.743 347.679 313.478 347.738 313.198C347.797 312.919 347.8 312.63 347.748 312.349C347.61 311.783 347.258 311.295 346.767 310.99C346.275 310.685 345.685 310.587 345.123 310.718C344.844 310.769 344.578 310.875 344.34 311.03C344.102 311.185 343.896 311.386 343.736 311.622C343.575 311.857 343.462 312.122 343.403 312.402C343.344 312.682 343.34 312.971 343.392 313.252Z" fill="#263238"/>
<path d="M339.024 309.041C339.361 309.253 340.685 307.622 343.009 307.012C345.332 306.402 347.318 307.118 347.493 306.778C347.667 306.438 347.179 306.18 346.331 305.839C345.15 305.399 343.863 305.342 342.648 305.675C341.442 305.988 340.365 306.678 339.57 307.646C338.966 308.385 338.896 308.959 339.024 309.041Z" fill="#263238"/>
<path d="M365.116 307.997C365.253 308.562 365.606 309.049 366.098 309.353C366.59 309.656 367.18 309.75 367.741 309.616C368.019 309.567 368.285 309.462 368.523 309.308C368.761 309.154 368.967 308.954 369.128 308.72C369.289 308.485 369.402 308.221 369.461 307.942C369.52 307.663 369.524 307.375 369.472 307.094C369.331 306.53 368.978 306.044 368.488 305.74C367.997 305.435 367.408 305.336 366.847 305.464C366.567 305.513 366.3 305.618 366.061 305.773C365.822 305.927 365.616 306.129 365.455 306.364C365.294 306.6 365.181 306.866 365.123 307.146C365.064 307.427 365.062 307.716 365.116 307.997Z" fill="#263238"/>
<path d="M361.909 303.482C362.246 303.693 363.582 302.051 365.894 301.453C368.206 300.854 370.204 301.558 370.39 301.206C370.471 301.054 370.076 300.62 369.228 300.268C368.045 299.839 366.76 299.786 365.546 300.116C364.338 300.432 363.258 301.121 362.455 302.086C361.863 302.813 361.747 303.388 361.909 303.482Z" fill="#263238"/>
<path d="M357.832 322.917C356.512 322.854 355.189 322.956 353.894 323.221C353.29 323.327 352.732 323.351 352.5 322.975C352.311 322.368 352.311 321.717 352.5 321.11C352.697 319.539 352.895 317.885 353.115 316.149C353.929 309.112 354.358 303.341 354.068 303.317C353.777 303.294 352.906 308.994 352.081 316.043C351.896 317.779 351.721 319.445 351.547 321.028C351.374 321.819 351.472 322.646 351.826 323.374C351.963 323.556 352.138 323.705 352.339 323.81C352.54 323.916 352.761 323.975 352.988 323.984C353.34 323.982 353.691 323.939 354.033 323.855C355.332 323.7 356.608 323.384 357.832 322.917Z" fill="#263238"/>
<path d="M365.499 350.128C365.499 350.128 374.63 348.509 384.086 338.833C384.086 338.833 383.529 351.594 366.324 354.444L365.499 350.128Z" fill="#EB996E"/>
<path d="M360.225 328.218C360.528 327.547 360.994 326.964 361.578 326.521C362.163 326.078 362.848 325.791 363.571 325.685C364.093 325.596 364.628 325.614 365.143 325.739C365.658 325.864 366.143 326.093 366.568 326.412C366.973 326.717 367.275 327.141 367.431 327.627C367.587 328.112 367.59 328.634 367.439 329.121C367.174 329.638 366.763 330.063 366.259 330.342C365.754 330.622 365.178 330.744 364.605 330.693C363.412 330.593 362.251 330.254 361.189 329.696C360.881 329.584 360.597 329.413 360.353 329.192C360.236 329.085 360.154 328.945 360.117 328.79C360.079 328.636 360.089 328.473 360.144 328.324" fill="#EB996E"/>
<path d="M365.058 322.706C364.674 322.776 365.302 325.298 363.605 327.655C361.909 330.013 359.156 330.435 359.226 330.787C359.226 330.951 359.946 331.115 361.085 330.857C362.564 330.484 363.869 329.606 364.779 328.371C365.646 327.193 366.025 325.721 365.836 324.266C365.615 323.187 365.232 322.647 365.058 322.706Z" fill="#263238"/>
<path d="M358.97 296.034C359.365 296.609 361.596 295.706 364.407 295.319C367.218 294.931 369.588 295.084 369.809 294.427C369.902 294.11 369.367 293.618 368.334 293.254C366.954 292.818 365.494 292.702 364.064 292.915C362.634 293.129 361.27 293.666 360.074 294.486C359.179 295.131 358.796 295.764 358.97 296.034Z" fill="#263238"/>
<path d="M337.63 302.59C338.164 303.013 339.628 302.039 341.533 301.511C343.438 300.983 345.169 300.937 345.413 300.28C345.506 299.975 345.111 299.506 344.252 299.201C343.143 298.857 341.958 298.849 340.845 299.179C339.732 299.508 338.74 300.16 337.99 301.054C337.467 301.805 337.374 302.379 337.63 302.59Z" fill="#263238"/>
<path d="M421.203 350.339C417.462 336.663 413.202 323.147 408.424 309.792C405.555 301.746 402.476 293.712 397.969 286.475C393.461 279.238 387.513 272.764 379.928 268.963C374.568 266.221 368.528 265.132 362.56 265.832C356.752 265.48 351.013 266.794 346.633 270.523C344.438 272.4 342.579 275.461 343.764 278.124C344.705 280.235 347.121 281.138 349.294 281.83L367.242 287.577L367.381 287.718L368.427 288.832C370.583 291.209 372.337 293.927 373.62 296.878C375.508 301.277 376.726 305.94 377.232 310.707C377.871 316.102 377.802 322.189 378.034 328.676C378.083 334.883 379.026 341.051 380.834 346.984C382.472 351.759 384.742 356.289 387.583 360.449C389.383 363.106 391.358 365.638 393.496 368.026C393.699 368.972 393.828 369.933 393.88 370.9C394.042 373.726 393.508 376.541 393.531 379.38C393.554 382.218 394.286 385.244 396.424 387.074C397.549 387.934 398.883 388.471 400.285 388.63C401.688 388.789 403.107 388.563 404.393 387.977C406.955 386.753 409.075 384.752 410.457 382.253C413.675 376.952 414.558 370.466 414.093 364.249C414.035 363.475 413.954 362.713 413.861 361.904C414.936 361.716 415.988 361.409 416.997 360.989C418.175 360.536 419.227 359.804 420.066 358.855C420.905 357.906 421.506 356.767 421.818 355.535C422.003 353.778 421.793 352.002 421.203 350.339ZM389.57 359.183C387.12 355.042 385.151 350.63 383.703 346.034C382.153 340.34 381.348 334.464 381.31 328.558C381.159 324.5 381.101 320.512 380.857 316.689C381.182 318.248 381.473 319.82 381.751 321.38C383.889 333.437 385.132 345.8 389.581 357.189C390.371 359.206 391.266 361.223 392.044 363.252C391.266 362.033 390.441 360.684 389.57 359.183Z" fill="#263238"/>
<path d="M398.828 287.542L398.294 287.46L396.737 287.307C396.052 287.237 395.227 287.155 394.274 287.038C393.322 286.92 392.218 286.815 391.022 286.627C388.605 286.311 385.748 285.83 382.599 285.208C379.451 284.586 376.012 283.742 372.434 282.733C368.856 281.724 365.464 280.575 362.49 279.473C359.516 278.37 356.798 277.232 354.568 276.235C353.406 275.754 352.453 275.274 351.582 274.863C350.711 274.453 349.944 274.101 349.34 273.796L347.923 273.104L347.423 272.881C347.568 272.991 347.724 273.085 347.888 273.162L349.282 273.913C349.886 274.23 350.629 274.617 351.501 275.086C352.372 275.555 353.359 276.012 354.475 276.505C356.693 277.537 359.377 278.663 362.386 279.813C365.395 280.962 368.775 282.076 372.353 283.109C375.931 284.141 379.381 284.926 382.541 285.56C385.701 286.193 388.57 286.615 390.987 286.909C392.148 287.085 393.31 287.178 394.251 287.272C395.192 287.366 396.04 287.436 396.726 287.483L398.282 287.577C398.465 287.584 398.648 287.572 398.828 287.542Z" fill="#455A64"/>
<path d="M399.467 289.888C399.282 289.87 399.095 289.87 398.909 289.888L397.318 289.994L396.156 290.076H394.785C393.81 290.076 392.683 290.169 391.451 290.134H389.5C388.826 290.134 388.129 290.064 387.397 290.029C385.945 290.029 384.4 289.794 382.75 289.642C375.679 288.835 368.745 287.083 362.13 284.434C360.62 283.789 359.179 283.202 357.867 282.557C357.204 282.241 356.554 281.959 355.961 281.643L354.23 280.728C353.069 280.176 352.163 279.555 351.303 279.086L350.141 278.394L349.165 277.772L347.806 276.916C347.653 276.81 347.489 276.719 347.318 276.646L347.771 276.974L349.096 277.878L350.06 278.534L351.222 279.25C352.07 279.754 353.022 280.423 354.126 280.951L355.857 281.877C356.449 282.194 357.1 282.487 357.762 282.815C359.063 283.472 360.515 284.07 362.037 284.716C368.659 287.428 375.622 289.196 382.727 289.97C384.365 290.123 385.91 290.298 387.374 290.334C388.106 290.334 388.814 290.416 389.488 290.416H391.44C392.683 290.416 393.763 290.416 394.785 290.322L396.156 290.24L397.318 290.134L398.909 289.97L399.467 289.888Z" fill="white"/>
<path d="M408.134 375.275C408.134 375.275 408.134 375.205 408.134 375.052V374.384C408.134 373.809 408.052 372.953 407.925 371.85C407.596 368.737 407.099 365.643 406.438 362.584C405.624 358.714 404.405 354.151 402.836 349.155C401.268 344.158 399.421 338.728 397.504 333.004L387.606 303.681C386.329 299.963 385.283 296.937 384.574 294.826L383.738 292.422L383.506 291.8C383.483 291.728 383.456 291.657 383.424 291.589C383.424 291.589 383.424 291.671 383.482 291.812L383.668 292.445L384.458 294.873L387.386 303.764C389.895 311.282 393.357 321.638 397.19 333.086C399.096 338.81 400.978 344.24 402.546 349.225C404.114 354.21 405.369 358.749 406.205 362.619C406.892 365.663 407.423 368.74 407.797 371.838C407.936 372.929 408.006 373.797 408.064 374.372L408.134 375.029V375.275Z" fill="#455A64"/>
<path d="M392.392 341.683C392.386 341.502 392.367 341.322 392.334 341.144C392.276 340.757 392.195 340.24 392.102 339.584C391.893 338.235 391.568 336.288 391.138 333.883C390.29 329.086 389 322.471 387.339 315.211C385.678 307.951 383.97 301.429 382.692 296.738C382.03 294.392 381.531 292.492 381.078 291.19L380.613 289.689C380.568 289.511 380.506 289.338 380.427 289.173C380.456 289.355 380.499 289.536 380.555 289.712C380.648 290.087 380.787 290.592 380.95 291.225C381.322 292.574 381.833 294.462 382.46 296.796C383.726 301.488 385.399 308.033 387.107 315.281C388.814 322.53 390.092 329.145 390.998 333.93C391.44 336.276 391.8 338.235 392.067 339.607C392.183 340.252 392.288 340.78 392.358 341.155C392.353 341.332 392.364 341.509 392.392 341.683Z" fill="#455A64"/>
<path d="M495.423 360.895C496.437 357.726 497.126 354.46 497.479 351.148C498.118 345.46 498.13 345.166 496.887 342.656C495.644 340.146 493.402 339.138 492.403 337.894C491.404 336.651 495.272 335.126 498.653 337.461C502.033 339.795 504.659 344.216 505.367 345.272C508.945 350.562 512.047 350.703 512.047 350.703L525.604 347.184C525.604 347.184 528.427 343.044 530.925 343.595L532.017 343.794L532.458 343.536C532.713 343.384 533.003 343.299 533.299 343.291C533.596 343.283 533.889 343.352 534.152 343.491C534.415 343.629 534.639 343.833 534.802 344.083C534.965 344.333 535.062 344.622 535.084 344.92C535.084 345.329 534.984 345.732 534.793 346.093C533.829 348.063 525.186 355.805 524.744 357.892C524.303 359.98 524.744 363.288 520.946 366.971C517.147 370.653 512.64 372.073 507.923 372.671L507.191 374.676L492.705 366.548L495.423 360.895Z" fill="#FFBE9D"/>
<path d="M522.224 362.185C522.223 361.751 522.27 361.319 522.363 360.895C522.526 359.933 522.723 358.76 522.967 357.376C523.211 355.992 523.571 354.104 523.931 352.192C524.24 351.268 524.24 350.266 523.931 349.342C523.835 349.133 523.693 348.948 523.516 348.802C523.339 348.656 523.131 348.552 522.909 348.498C522.673 348.471 522.435 348.495 522.208 348.568C521.982 348.641 521.774 348.761 521.596 348.92C520.679 349.682 520.435 351.066 520.063 352.227C519.691 353.389 519.343 354.573 519.017 355.617C518.355 357.681 517.774 359.511 517.287 361.012V361.13H517.17C516.353 361.214 515.573 361.522 514.917 362.021C514.452 362.373 514.254 362.631 514.22 362.607C514.185 362.584 514.347 362.291 514.789 361.869C515.433 361.256 516.241 360.848 517.112 360.696L516.95 360.836C517.391 359.312 517.914 357.47 518.506 355.394C518.832 354.315 519.168 353.177 519.517 351.981C519.703 351.383 519.865 350.808 520.086 350.14C520.311 349.456 520.712 348.844 521.248 348.369C521.496 348.155 521.785 347.997 522.097 347.904C522.409 347.811 522.738 347.786 523.06 347.829C523.371 347.902 523.661 348.046 523.909 348.249C524.156 348.452 524.355 348.71 524.489 349.002C524.879 350.04 524.908 351.182 524.57 352.239C524.164 354.151 523.792 355.887 523.478 357.4C523.165 358.913 522.898 359.922 522.688 360.918C522.594 361.361 522.437 361.787 522.224 362.185Z" fill="#EB996E"/>
<path d="M532.388 343.9C531.336 346.269 530.1 348.551 528.694 350.726C527.464 353.01 526.054 355.191 524.477 357.247C525.53 354.878 526.765 352.595 528.171 350.421C529.405 348.139 530.815 345.958 532.388 343.9Z" fill="#EB996E"/>
<path d="M524.152 350.562C524.074 349.469 524.383 348.385 525.023 347.501C525.941 345.952 527.172 345.155 527.265 345.272C527.358 345.389 526.394 346.375 525.546 347.817C524.698 349.26 524.326 350.597 524.152 350.562Z" fill="#EB996E"/>
<path d="M506.25 347.442C506.906 347.919 507.449 348.535 507.842 349.248C508.92 350.906 509.596 352.796 509.816 354.766C510.036 356.737 509.794 358.732 509.108 360.59C508.875 361.373 508.479 362.097 507.946 362.713C507.853 362.713 508.283 361.857 508.69 360.449C509.237 358.632 509.411 356.721 509.202 354.833C508.992 352.945 508.403 351.121 507.47 349.471C506.761 348.204 506.181 347.547 506.25 347.442Z" fill="#EB996E"/>
<path d="M515.602 358.631C515.428 358.631 515.254 356.837 514.29 354.878C513.325 352.919 512.036 351.652 512.164 351.512C513.317 352.281 514.247 353.345 514.859 354.596C515.471 355.847 515.744 357.239 515.649 358.631H515.602Z" fill="#EB996E"/>
<path d="M519.134 352.72C518.451 353.274 517.659 353.674 516.81 353.893C516.021 354.283 515.156 354.492 514.278 354.503C514.278 354.339 515.265 353.811 516.601 353.33C517.385 352.926 518.254 352.717 519.134 352.72Z" fill="#EB996E"/>
<path d="M481.158 549.942L511.768 558.786C511.768 558.786 510.955 592.413 516.415 594.606L537.732 536.043L490.591 520.292L481.158 549.942Z" fill="#455A64"/>
<g opacity="0.6">
<path d="M515.137 539.609C515.493 539.095 516.024 538.732 516.629 538.589C517.233 538.447 517.869 538.534 518.413 538.835C518.936 539.173 519.31 539.702 519.457 540.311C519.605 540.921 519.514 541.564 519.203 542.107C518.824 542.653 518.257 543.037 517.613 543.185C516.969 543.332 516.294 543.232 515.718 542.905C515.201 542.495 514.864 541.897 514.78 541.239C514.695 540.581 514.869 539.916 515.265 539.386" fill="white"/>
</g>
<g opacity="0.6">
<path d="M537.767 536.043L533.016 534.46L514.429 591.732C514.517 592.445 514.782 593.123 515.198 593.705C515.614 594.287 516.168 594.754 516.81 595.063L537.767 536.043Z" fill="white"/>
</g>
<path d="M511.165 559.642C511.455 559.736 512.047 558.328 513.43 557.203C514.812 556.077 516.264 555.725 516.23 555.42C516.195 555.115 514.406 554.997 512.745 556.381C511.083 557.765 510.828 559.619 511.165 559.642Z" fill="#263238"/>
<path d="M511.699 566.703C511.966 566.867 512.86 565.776 514.382 565.19C515.904 564.603 517.286 564.732 517.368 564.451C517.449 564.169 515.881 563.43 513.999 564.205C512.117 564.979 511.431 566.609 511.699 566.703Z" fill="#263238"/>
<path d="M517.937 572.661C518.088 572.427 516.775 571.547 514.975 571.77C513.174 571.993 512.094 573.154 512.303 573.353C512.512 573.553 513.604 572.99 515.103 572.825C516.601 572.661 517.798 572.943 517.937 572.661Z" fill="#263238"/>
<path d="M504.403 556.851C504.705 556.851 504.74 555.361 505.379 553.754C506.018 552.147 506.936 551.045 506.738 550.81C506.541 550.576 505.123 551.467 504.415 553.367C503.706 555.267 504.136 556.921 504.403 556.851Z" fill="#263238"/>
<path d="M450.013 544.031L421.144 557.601C421.144 557.601 427.162 590.689 422.062 593.727L391.951 539.246L436.095 516.245L450.013 544.031Z" fill="#455A64"/>
<g opacity="0.6">
<path d="M414.848 539.187C414.417 538.735 413.836 538.461 413.216 538.415C412.597 538.37 411.982 538.557 411.491 538.941C411.031 539.36 410.747 539.941 410.697 540.564C410.647 541.188 410.836 541.807 411.224 542.295C411.678 542.778 412.296 543.071 412.954 543.116C413.612 543.162 414.263 542.957 414.778 542.541C415.219 542.057 415.454 541.418 415.435 540.761C415.415 540.103 415.142 539.48 414.674 539.023" fill="white"/>
</g>
<g opacity="0.6">
<path d="M391.951 539.245L396.4 536.9L423.7 590.56C423.719 591.275 423.561 591.985 423.24 592.624C422.92 593.262 422.447 593.811 421.865 594.219L391.951 539.245Z" fill="white"/>
</g>
<path d="M421.888 558.364C421.609 558.493 420.808 557.191 419.263 556.299C417.718 555.408 416.231 555.279 416.219 554.974C416.207 554.669 417.95 554.282 419.797 555.396C421.644 556.51 422.155 558.293 421.888 558.364Z" fill="#263238"/>
<path d="M422.434 565.413C422.213 565.612 421.156 564.674 419.553 564.334C417.95 563.993 416.614 564.334 416.497 564.076C416.381 563.817 417.798 562.844 419.785 563.301C421.772 563.759 422.689 565.284 422.434 565.413Z" fill="#263238"/>
<path d="M417.206 572.286C417.02 572.063 418.17 570.996 419.994 570.937C421.818 570.878 423.049 571.84 422.875 572.11C422.701 572.38 421.528 571.958 420.029 572.028C418.53 572.098 417.369 572.544 417.206 572.286Z" fill="#263238"/>
<path d="M428.126 554.528C427.824 554.528 427.557 553.109 426.686 551.619C425.815 550.13 424.722 549.192 424.885 548.933C425.048 548.675 426.581 549.332 427.592 551.092C428.603 552.851 428.405 554.552 428.126 554.528Z" fill="#263238"/>
<path d="M474.339 478.701C474.339 478.701 518.646 467.3 529.821 469.693C540.997 472.086 554.868 473.821 556.901 482.184C558.934 490.547 558.26 504.223 550.128 511.741C541.996 519.259 442.81 551.385 442.81 551.385L432.994 524.408L407.89 478.302C429.776 479.404 453.904 481.387 474.339 478.701Z" fill="#263238"/>
<path d="M439.964 525.745C440.221 525.598 440.494 525.48 440.777 525.393L443.1 524.514C445.157 523.74 448.107 522.567 451.697 520.995C461.026 516.833 469.892 511.687 478.149 505.642C482.97 502.123 487.442 498.464 491.671 495.438C495.397 492.696 499.386 490.338 503.578 488.4C506.421 487.113 509.422 486.218 512.5 485.738C513.335 485.598 514.176 485.508 515.021 485.468C515.311 485.44 515.603 485.44 515.892 485.468C515.892 485.539 514.731 485.609 512.535 485.996C509.502 486.565 506.552 487.514 503.753 488.823C499.608 490.791 495.666 493.167 491.985 495.919C487.779 498.945 483.342 502.569 478.509 506.146C470.222 512.225 461.282 517.339 451.86 521.394C448.247 522.942 445.261 524.056 443.182 524.76C442.148 525.124 441.335 525.358 440.777 525.534C440.512 525.625 440.24 525.696 439.964 525.745Z" fill="#455A64"/>
<path d="M392.032 475.71C392.032 475.71 378.592 479.955 374.99 498.745C371.389 517.535 381.078 538.741 383.506 541.814C385.933 544.887 432.994 546.939 432.994 546.939L499.013 557.191C499.013 557.191 506.285 551.385 507.738 538.811C508.899 529.276 507.819 526.426 507.819 526.426L436.955 492.259C436.955 492.259 403.858 473.352 392.032 475.71Z" fill="#263238"/>
<path d="M407.89 478.278C408.06 478.34 408.226 478.411 408.389 478.489L409.876 479.17L415.557 481.856L436.642 491.919L507.947 526.168L508.086 526.238V526.39C508.649 530.129 508.735 533.925 508.342 537.685C507.921 541.572 506.852 545.359 505.182 548.887C504.428 550.501 503.538 552.047 502.522 553.508C501.563 554.954 500.453 556.291 499.211 557.496L499.106 557.578H498.967L451.221 550.13C447.573 549.555 444.018 548.957 440.557 548.511C437.214 547.928 433.909 547.145 430.659 546.165C424.856 544.378 419.217 542.09 413.803 539.328C409.352 537.066 405.049 534.519 400.919 531.704C399.142 530.414 397.434 529.252 395.994 528.056C394.553 526.86 393.194 525.792 392.032 524.772C390.871 523.751 389.883 522.79 389.024 521.98C388.164 521.171 387.467 520.432 386.921 519.834C386.375 519.236 385.957 518.802 385.666 518.473C385.376 518.145 385.26 518.004 385.26 518.004L385.713 518.438L387.002 519.752C387.56 520.338 388.257 521.054 389.14 521.851C390.023 522.649 390.987 523.622 392.183 524.596C393.38 525.569 394.658 526.707 396.168 527.833C397.678 528.959 399.316 530.179 401.105 531.434C405.242 534.21 409.545 536.724 413.989 538.964C419.393 541.684 425.017 543.936 430.798 545.696C434.029 546.674 437.315 547.457 440.638 548.042C444.123 548.5 447.608 549.074 451.291 549.626L499.06 557.015L498.816 557.085C501.238 554.681 503.207 551.851 504.624 548.734C506.263 545.268 507.315 541.549 507.738 537.732C508.119 534.026 508.033 530.286 507.482 526.602L507.645 526.824L436.479 492.271L415.476 482.043L409.841 479.275L408.378 478.536C408.041 478.372 407.89 478.278 407.89 478.278Z" fill="#455A64"/>
<path d="M382.878 542.354C382.742 542.173 382.628 541.976 382.541 541.767C382.344 541.368 382.053 540.77 381.705 540.008C380.996 538.471 380.009 536.219 378.94 533.381C376.048 526 374.372 518.191 373.98 510.263C373.79 505.89 374.161 501.51 375.083 497.232C375.509 495.372 376.068 493.545 376.756 491.767C377.379 490.223 378.117 488.729 378.963 487.298C380.182 485.23 381.64 483.317 383.308 481.598C383.889 480.988 384.4 480.566 384.725 480.261C384.885 480.097 385.064 479.956 385.26 479.838C385.26 479.838 384.621 480.53 383.482 481.762C380.802 484.747 378.684 488.201 377.232 491.954C376.568 493.715 376.032 495.522 375.629 497.361C374.749 501.601 374.397 505.935 374.584 510.263C374.986 518.129 376.592 525.883 379.347 533.252C380.357 536.102 381.275 538.366 381.914 539.938L382.657 541.732C382.754 541.93 382.828 542.139 382.878 542.354Z" fill="#455A64"/>
<path d="M318.671 356.086C315.999 347.149 311.794 338.622 310.423 329.379L302.024 330.552C296.218 332.136 291.21 335.856 287.985 340.982C284.76 346.107 283.552 352.265 284.599 358.244C285.528 363.569 288.188 368.449 289.454 373.715C290.721 378.981 290.163 385.326 285.969 388.646C287.983 388.758 289.97 388.147 291.58 386.922C291.785 388.911 291.247 390.907 290.07 392.516C293.787 393.046 297.567 392.187 300.7 390.1C300.733 390.825 300.599 391.547 300.308 392.21C300.018 392.874 299.579 393.46 299.027 393.924C302.781 393.874 306.462 392.869 309.73 391.001C312.997 389.133 315.745 386.464 317.719 383.239C322.342 375.24 321.343 365.024 318.671 356.086Z" fill="#263238"/>
<path d="M293.079 354.984C291.755 345.917 299.422 334.939 308.448 333.989L329.986 334.704C331.436 334.755 332.845 335.206 334.06 336.009C335.274 336.811 336.248 337.934 336.875 339.255L347.272 399.272C347.272 399.272 351.524 417.921 335.225 420.267C320.588 422.378 318.137 406.802 318.137 406.802L316.208 395.472C316.208 395.472 304.452 397.501 298.969 383.086C296.239 375.908 294.554 365.059 293.079 354.984Z" fill="#FFBE9D"/>
<path d="M301.815 365.681C301.916 366.179 302.205 366.618 302.622 366.905C303.038 367.192 303.549 367.304 304.045 367.217C304.29 367.184 304.526 367.102 304.74 366.976C304.953 366.849 305.139 366.681 305.288 366.482C305.436 366.282 305.543 366.054 305.603 365.812C305.663 365.569 305.674 365.317 305.637 365.071C305.535 364.572 305.246 364.133 304.83 363.846C304.413 363.56 303.903 363.448 303.406 363.534C303.161 363.567 302.925 363.649 302.712 363.775C302.498 363.902 302.312 364.07 302.164 364.27C302.016 364.47 301.908 364.697 301.848 364.94C301.788 365.182 301.777 365.434 301.815 365.681Z" fill="#263238"/>
<path d="M297.354 362.361C297.644 362.561 298.852 361.188 300.839 360.743C302.825 360.297 304.591 361.024 304.766 360.743C304.94 360.461 304.51 360.215 303.755 359.875C302.746 359.443 301.629 359.34 300.56 359.582C299.499 359.808 298.536 360.366 297.807 361.177C297.331 361.775 297.214 362.268 297.354 362.361Z" fill="#263238"/>
<path d="M319.008 361.974C319.106 362.474 319.395 362.915 319.812 363.202C320.229 363.49 320.741 363.6 321.238 363.511C321.483 363.479 321.719 363.398 321.932 363.273C322.145 363.148 322.332 362.981 322.48 362.782C322.628 362.583 322.736 362.356 322.796 362.115C322.856 361.873 322.867 361.622 322.83 361.376C322.731 360.875 322.443 360.433 322.026 360.144C321.61 359.855 321.098 359.741 320.599 359.828C320.354 359.861 320.118 359.943 319.905 360.069C319.691 360.195 319.505 360.363 319.357 360.563C319.209 360.763 319.101 360.991 319.041 361.233C318.982 361.475 318.97 361.727 319.008 361.974Z" fill="#263238"/>
<path d="M316.174 358.655C316.464 358.854 317.672 357.482 319.717 357.048C321.761 356.614 323.457 357.318 323.632 357.048C323.806 356.778 323.388 356.508 322.633 356.168C321.618 355.743 320.5 355.641 319.426 355.875C318.369 356.101 317.409 356.66 316.685 357.47C316.162 358.103 316.034 358.573 316.174 358.655Z" fill="#263238"/>
<path d="M313.188 374.911C312.023 374.849 310.855 374.912 309.703 375.099C309.18 375.158 308.669 375.169 308.541 374.888C308.399 374.43 308.42 373.936 308.599 373.492C308.855 372.319 309.122 371.088 309.401 369.786C310.066 366.623 310.574 363.429 310.923 360.215C310.679 360.215 309.61 364.437 308.518 369.704L307.786 373.41C307.682 373.703 307.639 374.015 307.659 374.325C307.679 374.636 307.761 374.939 307.902 375.216C308.024 375.365 308.176 375.484 308.349 375.565C308.522 375.646 308.711 375.687 308.901 375.685C309.205 375.695 309.509 375.671 309.807 375.615C310.957 375.508 312.091 375.272 313.188 374.911Z" fill="#263238"/>
<path d="M316.139 395.566C323.114 394.178 329.573 390.865 334.796 385.995C334.796 385.995 331.926 397.489 316.824 399.272L316.139 395.566Z" fill="#EB996E"/>
<path d="M319.345 373.785C319.008 373.844 319.472 376.072 317.916 378.066C316.359 380.06 313.943 380.318 314.001 380.635C314.059 380.951 314.616 380.963 315.616 380.775C316.915 380.512 318.082 379.798 318.915 378.758C319.695 377.762 320.073 376.505 319.972 375.239C319.856 374.242 319.496 373.75 319.345 373.785Z" fill="#263238"/>
<path d="M315.407 351.641C315.778 352.227 317.428 351.383 319.589 351.066C321.749 350.749 323.631 350.996 323.724 350.339C323.724 350.022 323.294 349.518 322.435 349.166C321.377 348.682 320.202 348.519 319.054 348.697C317.94 348.864 316.905 349.376 316.092 350.163C315.465 350.749 315.244 351.359 315.407 351.641Z" fill="#263238"/>
<path d="M295.797 355.3C296.25 355.805 297.668 355.019 299.457 354.749C301.246 354.479 302.825 354.667 303.104 354.034C303.209 353.717 302.895 353.189 302.163 352.755C301.208 352.244 300.112 352.067 299.046 352.252C297.98 352.436 297.005 352.972 296.273 353.776C295.727 354.444 295.588 355.054 295.797 355.3Z" fill="#263238"/>
<path d="M300.746 331.127C297.261 340.451 306.183 342.281 311.016 345.026C315.848 347.77 321.227 349.319 326.594 350.75C327.862 350.837 329.062 351.359 329.996 352.229C330.93 353.1 331.541 354.266 331.729 355.535C332.72 358.756 333.711 361.978 334.703 365.2C335.505 367.468 336.005 369.835 336.19 372.237C336.281 373.432 336.139 374.633 335.77 375.772C335.401 376.911 334.814 377.966 334.041 378.876C334.725 378.8 335.387 378.584 335.987 378.241C336.586 377.898 337.11 377.436 337.526 376.882C337.71 380.387 336.96 383.879 335.353 386.992C337.517 386.938 339.623 386.275 341.433 385.077C343.244 383.879 344.687 382.194 345.6 380.213C345.891 381.799 346.788 383.206 348.097 384.13C348.632 384.599 349.619 384.892 349.375 384.224C348.907 382.682 348.519 381.116 348.213 379.532C350.351 380.412 350.897 381.092 355.427 379.685C353.326 378.276 351.787 376.161 351.083 373.715C351.083 373.715 352.314 376.248 356.229 375.005C353.08 372.25 351.124 368.36 350.781 364.167C350.455 358.303 350.676 351.266 349.48 345.471C348.423 339.596 345.415 334.26 340.953 330.341C337.092 327.393 332.557 325.477 327.767 324.77C322.682 323.884 317.484 323.884 312.398 324.77C309.192 325.309 302.198 326.471 300.7 331.162" fill="#263238"/>
<path d="M335.411 386.898C336.526 386.704 337.627 386.441 338.71 386.112C339.97 385.692 341.148 385.057 342.196 384.236C343.614 383.149 344.731 381.711 345.437 380.06L345.657 379.509L345.797 380.084C346.002 381.027 346.398 381.917 346.958 382.699C347.555 383.56 348.466 384.146 349.491 384.329L349.247 384.611C348.852 382.992 348.434 381.28 347.992 379.509L347.853 378.922L348.364 379.227C349.432 379.808 350.622 380.122 351.835 380.142C353.048 380.163 354.248 379.889 355.334 379.345V379.814C353.157 378.389 351.567 376.213 350.862 373.691L350.444 372.213L351.361 373.445C351.929 374.137 352.703 374.625 353.567 374.836C354.432 375.048 355.341 374.971 356.159 374.618L356.089 375.122C352.999 372.659 351.315 368.671 350.629 364.648C350.132 360.811 349.965 356.938 350.13 353.072C350.263 349.505 349.823 345.941 348.829 342.516C347.018 336.707 343.243 331.726 338.164 328.441C334.733 326.271 330.854 324.927 326.826 324.512C325.734 324.407 324.636 324.36 323.539 324.371H322.679H322.377C323.858 324.154 325.36 324.119 326.849 324.265C331.962 324.672 336.837 326.615 340.847 329.842C344.857 333.069 347.819 337.434 349.352 342.375C350.371 345.848 350.83 349.463 350.711 353.083C350.555 356.918 350.722 360.76 351.21 364.566C351.884 368.507 353.534 372.331 356.45 374.676L356.833 374.981L356.391 375.181C355.453 375.594 354.405 375.682 353.411 375.432C352.417 375.181 351.533 374.607 350.897 373.797L351.396 373.539C352.058 375.942 353.555 378.023 355.613 379.403L356.02 379.673L355.59 379.872C354.422 380.45 353.135 380.736 351.835 380.708C350.536 380.679 349.262 380.336 348.12 379.708L348.48 379.427L349.7 384.541L349.781 384.869H349.468C348.898 384.774 348.354 384.564 347.867 384.252C347.38 383.939 346.96 383.531 346.633 383.051C346.042 382.214 345.627 381.264 345.413 380.259H345.785C345.044 381.974 343.861 383.457 342.358 384.552C341.261 385.378 340.025 385.998 338.71 386.382C337.901 386.64 337.068 386.817 336.224 386.91C335.954 386.931 335.681 386.927 335.411 386.898Z" fill="#455A64"/>
<path d="M345.983 369.833C345.95 369.607 345.95 369.378 345.983 369.152C345.983 368.636 346.052 367.979 346.099 367.194C346.256 364.811 346.256 362.421 346.099 360.039C345.919 356.514 344.988 353.069 343.369 349.94C342.396 348.119 341.087 346.503 339.512 345.178C337.796 343.79 335.854 342.715 333.773 342C329.67 340.733 325.43 339.973 321.146 339.736C317.614 339.499 314.113 338.922 310.69 338.012C308.378 337.376 306.193 336.34 304.231 334.951C303.709 334.558 303.212 334.131 302.744 333.672C302.431 333.355 302.268 333.191 302.291 333.168C302.314 333.144 302.988 333.801 304.371 334.751C306.348 336.047 308.522 337.006 310.806 337.59C314.214 338.437 317.69 338.971 321.192 339.185C325.528 339.386 329.822 340.138 333.971 341.425C336.122 342.164 338.128 343.279 339.895 344.721C341.52 346.097 342.865 347.778 343.857 349.67C345.487 352.88 346.399 356.411 346.529 360.015C346.634 362.418 346.556 364.826 346.296 367.217C346.215 368.061 346.134 368.718 346.064 369.164C346.069 369.39 346.042 369.615 345.983 369.833Z" fill="#455A64"/>
<path d="M286.957 451.138L286.167 460.521C293.053 460.769 299.774 462.718 305.741 466.198L305.207 451.138H286.957Z" fill="#FFBE9D"/>
<path d="M298.934 514.72C298.934 514.72 289.721 540.524 296.901 553.132C304.08 565.741 306.647 567.653 315.755 567.113C324.863 566.574 330.997 559.583 332.855 556.897C334.714 554.211 338.664 517.101 338.664 517.101L337.061 482.266L309.645 483.498L298.934 514.72Z" fill="#263238"/>
<path d="M374.677 480.014C374.677 480.014 377.906 499.39 377.639 516.374C377.372 533.357 371.319 554.106 364.86 562.598C361.759 566.632 353.72 567.723 348.085 567.289C342.858 566.844 337.828 562.598 337.56 554.493C337.293 546.388 338.827 514.779 338.722 515.318C338.617 515.858 331.322 491.708 331.322 491.708L335.795 482.325L374.677 480.014Z" fill="#263238"/>
<path d="M340.058 508.961C340.03 511.486 339.801 514.004 339.373 516.491C339.14 519.008 338.713 521.502 338.095 523.951C338.116 521.426 338.346 518.907 338.78 516.421C339.006 513.903 339.433 511.409 340.058 508.961Z" fill="#455A64"/>
<path d="M296.901 553.132C296.759 552.996 296.634 552.842 296.529 552.675C296.187 552.224 295.902 551.731 295.681 551.209C294.883 549.275 294.401 547.223 294.252 545.133C293.73 539.855 294.38 532.536 296.03 524.69C297.416 517.98 299.359 511.401 301.838 505.02C302.814 502.581 303.685 500.645 304.313 499.32C304.638 498.647 304.893 498.143 305.079 497.807C305.254 497.467 305.358 497.291 305.381 497.303C305.346 497.5 305.279 497.69 305.184 497.866L304.533 499.414C303.964 500.763 303.151 502.721 302.21 505.173C299.837 511.569 297.942 518.136 296.541 524.819C294.903 532.63 294.217 539.879 294.601 545.086C294.704 547.146 295.116 549.179 295.821 551.115C296.436 552.464 296.959 553.085 296.901 553.132Z" fill="#455A64"/>
<g opacity="0.3">
<path d="M305.869 496.376L305.497 497.913C320.53 505.701 338.431 506.803 354.928 503.085C362.444 501.396 370.192 498.394 374.804 492.189C351.979 495.495 328.922 496.895 305.869 496.376Z" fill="black"/>
</g>
<path d="M310.144 400.48C310.144 400.48 296.204 402.345 291.824 423.058C287.7 442.646 286.016 451.138 286.016 451.138H312.177L310.144 400.48Z" fill="#92E3A9"/>
<path d="M345.983 390.264C345.983 390.264 364.872 386.37 375.234 397.454C383.784 406.614 390.894 421.604 390.894 421.604L369.983 432.359L345.983 390.264Z" fill="#92E3A9"/>
<path d="M310.144 400.48L316.429 398.51C316.429 398.51 325.107 402.251 332.937 399.999C342.718 397.173 345.715 390.252 345.715 390.252L361.503 391.226L371.714 440.816L377.65 492.095C351.872 501.326 327.082 505.267 304.579 496.998L306.566 490.218L304.568 431.996L310.144 400.48Z" fill="#92E3A9"/>
<path d="M306.287 482.266C306.233 482.051 306.206 481.831 306.206 481.609L306.078 479.733C305.997 478.008 305.892 475.663 305.753 472.801C305.614 469.939 305.486 466.362 305.335 462.515C305.265 460.579 305.184 458.55 305.114 456.439C305.044 454.328 304.986 452.158 304.777 449.941C303.924 442.369 302.691 434.845 301.083 427.398C300.537 424.513 300.142 422.179 299.921 420.56C299.817 419.798 299.724 419.188 299.654 418.695C299.614 418.475 299.594 418.251 299.596 418.027C299.681 418.233 299.739 418.45 299.77 418.672C299.875 419.153 300.003 419.774 300.154 420.513L301.559 427.304C303.284 434.751 304.572 442.294 305.416 449.894C305.637 452.123 305.683 454.316 305.753 456.415C305.823 458.515 305.881 460.556 305.939 462.491C306.043 466.35 306.136 469.822 306.229 472.777C306.322 475.733 306.334 477.997 306.369 479.721V481.609C306.373 481.831 306.345 482.052 306.287 482.266Z" fill="#263238"/>
<path d="M360.132 474.22C359.644 474.547 359.132 474.833 358.599 475.076C357.6 475.604 356.113 476.308 354.277 477.141C349.455 479.259 344.513 481.088 339.477 482.618C334.442 484.155 329.331 485.427 324.166 486.43C322.191 486.829 320.576 487.087 319.519 487.251C318.944 487.364 318.362 487.43 317.777 487.45C318.325 487.246 318.894 487.101 319.473 487.017L324.119 486.008C328.046 485.14 333.413 483.826 339.326 482.032C345.239 480.237 350.42 478.278 354.138 476.742C355.996 475.968 357.507 475.323 358.529 474.865C359.042 474.6 359.579 474.384 360.132 474.22Z" fill="#263238"/>
<g opacity="0.3">
<path d="M300.444 423.058L300.154 423.598C298.915 427.469 298.673 431.595 299.451 435.586C300.23 439.578 302.003 443.303 304.603 446.411C303.84 438.526 302.45 430.717 300.444 423.058Z" fill="black"/>
</g>
<path d="M356.693 469.775C355.769 470.547 354.773 471.226 353.72 471.804C351.239 473.287 348.671 474.614 346.029 475.78C343.382 476.942 340.666 477.937 337.897 478.759C336.767 479.151 335.599 479.422 334.412 479.569C335.509 479.104 336.634 478.712 337.781 478.396C339.86 477.668 342.718 476.613 345.797 475.264C348.875 473.915 351.605 472.519 353.522 471.464C354.539 470.827 355.598 470.262 356.693 469.775Z" fill="#263238"/>
<path d="M387.781 417.722C387.781 417.722 391.266 426.554 393.984 434.142C396.911 442.212 402.395 460.157 390.778 464.403C381.949 467.617 377.558 457.448 377.558 457.448L370.448 432.207L377.012 428.688L374.909 422.437L387.781 417.722Z" fill="#FFBE9D"/>
<path d="M375.978 425.357C375.978 425.357 370.866 420.032 370.169 418.156L367.497 406.743C367.497 406.743 368.462 405.148 370.274 406.743C371.124 407.61 371.855 408.588 372.446 409.652L373.933 412.842L374.63 410.802L373.468 402.978C373.468 402.978 372.493 397.372 373.712 397.595C374.932 397.818 375.85 399.237 376.28 401.665L377.232 407.154C377.232 407.154 377.465 408.08 377.895 406.251C378.324 404.421 376.849 397.747 376.907 396.762C376.965 395.777 376.187 393.478 377.825 393.091C379.463 392.704 379.718 395.871 379.718 395.871L382.042 405.688C382.042 405.688 382.042 401.465 382.042 400.726C382.042 399.988 381.67 397.806 381.74 396.516C381.809 395.226 382.379 394.393 383.111 394.24C383.422 394.117 383.767 394.116 384.079 394.238C384.391 394.36 384.647 394.595 384.795 394.897L385.724 403.635C385.764 405.061 385.889 406.482 386.096 407.893C386.27 408.092 387.258 405.817 387.258 405.817L387.455 402.826C387.455 402.826 387.002 398.815 388.176 398.322C389.349 397.829 389.697 398.557 389.697 398.557L390.464 405.899L389.918 414.66L388.164 422.718L384.121 423.891L375.978 425.357Z" fill="#FFBE9D"/>
<path d="M381.635 457.659C381.635 457.659 381.519 457.659 381.356 457.471C381.102 457.263 380.872 457.027 380.671 456.767C379.931 455.803 379.383 454.704 379.056 453.53C378.089 449.682 377.767 445.698 378.104 441.742C378.349 437.836 378.04 433.914 377.186 430.096C376.512 427.175 375.827 425.404 375.92 425.404C376.16 425.768 376.351 426.162 376.489 426.577C376.941 427.687 377.329 428.823 377.651 429.978C378.632 433.804 379.004 437.763 378.754 441.707C378.626 443.856 378.626 446.01 378.754 448.158C378.853 449.911 379.113 451.65 379.533 453.354C379.813 454.496 380.28 455.582 380.915 456.568C381.322 457.307 381.67 457.623 381.635 457.659Z" fill="#EB996E"/>
<path d="M382.065 418.93C381.972 418.93 381.705 418.179 380.903 417.171C379.878 415.851 378.455 414.904 376.849 414.473C376.39 414.368 375.924 414.294 375.455 414.25C375.207 414.218 374.962 414.163 374.723 414.086C374.582 414.056 374.45 413.991 374.34 413.898C374.229 413.811 374.134 413.703 374.061 413.581C373.662 412.902 373.316 412.192 373.027 411.459C372.715 410.813 372.469 410.137 372.295 409.441C372.787 409.977 373.18 410.596 373.457 411.271C373.808 411.956 374.196 412.622 374.619 413.265C374.758 413.452 374.746 413.464 374.99 413.535C375.195 413.594 375.405 413.633 375.618 413.652C376.115 413.688 376.609 413.766 377.093 413.886C378.827 414.341 380.338 415.417 381.345 416.913C381.769 417.502 382.019 418.202 382.065 418.93Z" fill="#EB996E"/>
<path d="M296.785 460.486C296.52 460.092 296.166 459.768 295.751 459.541C295.337 459.315 294.874 459.192 294.403 459.184C293.46 459.174 292.52 459.056 291.603 458.832C290.895 458.562 290.291 458.07 289.605 457.741C288.722 457.335 287.735 457.219 286.783 457.408C285.831 457.598 284.961 458.083 284.296 458.797L283.762 458.457C283.354 458.155 282.873 457.971 282.37 457.924C281.867 457.876 281.36 457.967 280.904 458.187C279.986 458.633 279.189 459.297 278.581 460.122C276.734 462.477 275.532 465.279 275.096 468.25C274.921 469.423 274.979 470.795 275.955 471.405C276.31 471.589 276.707 471.671 277.105 471.642C277.502 471.613 277.884 471.475 278.209 471.241C278.855 470.765 279.39 470.153 279.777 469.447C281.116 467.309 282.178 465.007 282.937 462.597C282.209 465.469 281.704 468.395 281.427 471.347C281.338 472.096 281.41 472.856 281.636 473.575C281.719 473.914 281.895 474.223 282.144 474.466C282.394 474.708 282.706 474.874 283.044 474.946C283.383 475.017 283.735 474.99 284.059 474.868C284.384 474.745 284.667 474.533 284.877 474.255C285.274 473.783 285.592 473.248 285.818 472.672C286.974 470.143 287.945 467.533 288.722 464.861C288.174 467.616 287.863 470.414 287.793 473.223C287.71 473.697 287.745 474.184 287.895 474.641C288.045 475.098 288.306 475.509 288.653 475.839C288.958 476.008 289.305 476.089 289.653 476.073C290.002 476.056 290.339 475.943 290.628 475.745C291.196 475.339 291.649 474.789 291.94 474.15C293.416 471.253 293.334 467.664 295.158 464.978C295.681 464.316 296.169 463.627 296.622 462.914C296.843 462.553 296.973 462.143 297.001 461.72C297.03 461.297 296.955 460.873 296.785 460.486Z" fill="#FFBE9D"/>
<path d="M296.785 460.485C296.901 460.641 296.98 460.822 297.017 461.013C297.111 461.573 297.038 462.149 296.808 462.667C296.401 463.464 295.906 464.211 295.333 464.895C294.689 465.88 294.214 466.966 293.927 468.109C293.555 469.388 293.3 470.854 292.823 472.402C292.58 473.22 292.245 474.007 291.824 474.748C291.6 475.187 291.269 475.561 290.863 475.836C290.457 476.111 289.988 476.277 289.501 476.319C289.236 476.335 288.971 476.291 288.726 476.189C288.481 476.088 288.261 475.932 288.084 475.733C287.75 475.318 287.548 474.811 287.503 474.279C287.433 473.263 287.433 472.244 287.503 471.229C287.636 469.074 287.915 466.93 288.339 464.813L288.874 464.942C288.444 466.432 287.944 467.945 287.363 469.47C287.073 470.232 286.759 471.006 286.434 471.816C286.115 472.63 285.727 473.415 285.272 474.161C285.026 474.584 284.659 474.922 284.22 475.131C283.781 475.341 283.289 475.411 282.809 475.334C282.342 475.182 281.928 474.897 281.615 474.515C281.302 474.133 281.104 473.668 281.044 473.176C280.927 472.273 280.927 471.358 281.044 470.455C281.137 469.552 281.264 468.66 281.415 467.769C281.706 466.021 282.101 464.25 282.484 462.632L283.065 462.796C282.175 465.645 280.842 468.334 279.115 470.76C278.653 471.316 278.026 471.706 277.326 471.874C276.939 471.971 276.532 471.953 276.155 471.822C275.778 471.691 275.446 471.452 275.2 471.135C274.796 470.511 274.612 469.767 274.678 469.024C274.717 468.348 274.818 467.676 274.98 467.018C275.534 464.561 276.613 462.256 278.139 460.263C278.8 459.305 279.681 458.524 280.707 457.987C281.208 457.741 281.766 457.639 282.321 457.691C282.876 457.742 283.407 457.946 283.855 458.28L284.389 458.609H284.134C284.831 457.883 285.732 457.392 286.715 457.201C287.698 457.01 288.715 457.129 289.629 457.541C290.419 457.928 291.023 458.445 291.673 458.714C292.296 458.894 292.942 458.981 293.59 458.972C294.518 458.94 295.434 459.194 296.215 459.7C296.485 459.879 296.689 460.143 296.796 460.45C296.623 460.192 296.402 459.969 296.146 459.793C295.364 459.352 294.472 459.149 293.578 459.207C292.911 459.206 292.247 459.116 291.604 458.937C290.888 458.611 290.19 458.247 289.512 457.846C288.664 457.479 287.725 457.383 286.821 457.572C285.918 457.761 285.093 458.225 284.459 458.902L284.343 459.019L284.203 458.937L283.657 458.609C283.269 458.331 282.812 458.165 282.337 458.13C281.862 458.095 281.387 458.192 280.962 458.409C280.029 458.932 279.233 459.672 278.639 460.567C277.17 462.51 276.135 464.751 275.607 467.136C275.463 467.764 275.37 468.404 275.328 469.048C275.281 469.662 275.431 470.275 275.758 470.795C275.939 471.026 276.183 471.197 276.46 471.289C276.736 471.381 277.034 471.389 277.315 471.311C277.936 471.153 278.485 470.784 278.871 470.267C280.538 467.894 281.824 465.269 282.682 462.491L283.263 462.655C282.891 464.333 282.496 466.021 282.205 467.757C282.054 468.637 281.927 469.517 281.845 470.396C281.741 471.245 281.741 472.104 281.845 472.953C281.888 473.328 282.033 473.684 282.265 473.981C282.497 474.277 282.806 474.502 283.158 474.631C283.522 474.677 283.892 474.615 284.22 474.45C284.549 474.285 284.822 474.025 285.005 473.704C285.42 473.002 285.782 472.269 286.085 471.511C286.411 470.748 286.724 469.998 287.015 469.247C287.596 467.734 288.095 466.233 288.537 464.766L289.071 464.895C288.646 466.989 288.359 469.109 288.211 471.241C288.114 472.223 288.09 473.211 288.142 474.197C288.181 474.621 288.333 475.026 288.583 475.369C288.715 475.519 288.878 475.636 289.062 475.711C289.245 475.786 289.443 475.818 289.64 475.803C290.046 475.763 290.434 475.619 290.77 475.385C291.105 475.151 291.376 474.835 291.557 474.466C291.971 473.765 292.303 473.017 292.544 472.238C293.032 470.736 293.311 469.27 293.706 467.98C294.027 466.81 294.541 465.704 295.228 464.708C295.806 464.046 296.316 463.327 296.75 462.561C296.897 462.236 296.976 461.884 296.982 461.527C296.988 461.17 296.921 460.815 296.785 460.485Z" fill="#EB996E"/>
</svg>
